SplineFontDB: 3.0
FontName: Belgika-16th
FullName: Belgika 16th
FamilyName: Belgika
Weight: 16th
Copyright: Copyright (c) 2014-2015, Pierre Huyghebaert\n\nOSP: Version 1.0 (http://ospublish.constantvzw.org/foundry)\n\nBelgica and Belgika fonts are released under the OFL 1.1 -- http://scripts.sil.org/OFL\n\nFor information on what you're allowed to change or modify, \nconsult the OFL-1.1.txt and OFL-FAQ.txt files.  The OFL-FAQ also gives a very general rationale and various recommendations regarding why you would want to contribute to the project or make your own version of the font.
UComments: "2014-12-26: Created with FontForge (http://fontforge.org)"
Version: 001.000
StrokeWidth: 50
ItalicAngle: 0
UnderlinePosition: -100
UnderlineWidth: 50
Ascent: 800
Descent: 200
InvalidEm: 0
sfntRevision: 0x00010000
LayerCount: 2
Layer: 0 0 "Back" 1
Layer: 1 0 "Fore" 0
XUID: [1021 878 1716694747 13563712]
FSType: 0
OS2Version: 0
OS2_WeightWidthSlopeOnly: 0
OS2_UseTypoMetrics: 1
CreationTime: 1419624870
ModificationTime: 1425459209
PfmFamily: 17
TTFWeight: 400
TTFWidth: 5
LineGap: 90
VLineGap: 0
OS2TypoAscent: 0
OS2TypoAOffset: 1
OS2TypoDescent: 0
OS2TypoDOffset: 1
OS2TypoLinegap: 90
OS2WinAscent: 0
OS2WinAOffset: 1
OS2WinDescent: 0
OS2WinDOffset: 1
HheadAscent: 0
HheadAOffset: 1
HheadDescent: 0
HheadDOffset: 1
OS2CapHeight: 0
OS2XHeight: 0
OS2Vendor: 'PfEd'
MarkAttachClasses: 1
DEI: 91125
Encoding: ISO8859-1
UnicodeInterp: none
NameList: AGL For New Fonts
DisplaySize: -48
AntiAlias: 1
FitToEm: 1
WidthSeparation: 150
WinInfo: 40 20 11
BeginPrivate: 0
EndPrivate
Grid
-633.405273438 -36.7060546875 m 0
 2190.12402344 -36.7060546875 l 1024
  Named: "accent-low"
-633.405273438 368 m 0
 2190.12402344 368 l 1024
  Named: "x-height"
EndSplineSet
BeginChars: 256 256

StartChar: A
Encoding: 65 65 0
Width: 630
VWidth: 23
Flags: W
HStem: 0.0332031 21G<51.7944 57.9307 572.783 578.918> 0.0332031 21G<51.7944 57.9307 572.783 578.918> 256 47.0586<175.281 454.986>
VStem: 29.7393 45.7217<1.46484 15.8057> 555.258 45.708<1.47807 73.6096>
LayerCount: 2
Back
Fore
SplineSet
175.28125 303.05859375 m 1x38
 454.986328125 303.05859375 l 1
 398.861328125 463.970703125 344.280273438 620.586914062 314.911132812 704.872070312 c 1
 175.28125 303.05859375 l 1x38
585.23046875 1.31640625 m 0
 582.739257812 0.4462890625 580.181640625 0.0341796875 577.655273438 0.0341796875 c 0
 567.91015625 0.0341796875 558.614257812 6.162109375 555.2578125 15.76953125 c 0
 529.7421875 88.8056640625 500.674804688 172.086914062 471.40234375 256 c 1
 158.928710938 256 l 1
 75.4609375 15.8056640625 l 2
 72.1162109375 6.1806640625 62.8095703125 0.033203125 53.0517578125 0.033203125 c 0xb8
 50.537109375 0.033203125 47.9921875 0.44140625 45.51171875 1.3037109375 c 0
 35.8857421875 4.6484375 29.7392578125 13.955078125 29.7392578125 23.712890625 c 0
 29.7392578125 26.2275390625 30.1474609375 28.7724609375 31.009765625 31.2529296875 c 2
 292.65625 784.194335938 l 2
 293.852539062 787.635742188 295.810546875 790.631835938 298.278320312 793.061523438 c 0
 300.706054688 795.532226562 303.701171875 797.4921875 307.141601562 798.690429688 c 0
 309.685546875 799.576171875 312.295898438 799.985351562 314.874023438 799.965820312 c 0
 317.451171875 799.987304688 320.0625 799.580078125 322.60546875 798.696289062 c 0
 326.046875 797.5 329.043945312 795.54296875 331.473632812 793.07421875 c 0
 333.943359375 790.646484375 335.903320312 787.651367188 337.102539062 784.2109375 c 2
 337.102539062 784.2109375 497.100585938 324.921875 599.68359375 31.2900390625 c 0
 600.553710938 28.7978515625 600.965820312 26.2412109375 600.965820312 23.7138671875 c 0
 600.965820312 13.9697265625 594.837890625 4.6728515625 585.23046875 1.31640625 c 0
EndSplineSet
Validated: 1
EndChar

StartChar: B
Encoding: 66 66 1
Width: 652
VWidth: 23
Flags: W
HStem: 0.941406 46.9609<152.053 445.765> 451.765 47.0586<152.053 351.135> 752.941 47.0586<152.053 347.396>
VStem: 104.993 47.0596<47.9023 451.765 498.823 752.941> 406.18 47.0596<555.324 694.914> 556.765 47.0596<159.425 339.215>
LayerCount: 2
Back
Fore
SplineSet
152.052734375 498.823242188 m 1
 294.67578125 498.823242188 l 2
 307.713867188 500.443359375 320.193359375 504.014648438 331.59765625 509.211914062 c 0
 375.478515625 529.2109375 406.1796875 573.46875 406.1796875 625.731445312 c 0
 406.1796875 695.630859375 349.196289062 752.154296875 279.918945312 752.94140625 c 2
 152.052734375 752.94140625 l 1
 152.052734375 498.823242188 l 1
297.311523438 451.764648438 m 2
 291.321289062 451.157226562 285.099609375 450.823242188 279.111328125 450.823242188 c 0
 277.139648438 450.823242188 274.643554688 451.20703125 272.47265625 451.764648438 c 2
 152.052734375 451.764648438 l 1
 152.052734375 47.90234375 l 1
 354.454101562 47.05859375 l 2
 466.052734375 47.05859375 556.764648438 136.888671875 556.764648438 249.295898438 c 0
 556.764648438 360.822265625 467.681640625 450.926757812 356.19921875 451.764648438 c 2
 297.311523438 451.764648438 l 2
395.458007812 495.513671875 m 1
 514.192382812 475.89453125 603.82421875 373.1171875 603.82421875 249.296875 c 0
 603.82421875 110.784179688 491.975585938 0 354.356445312 0 c 2
 128.424804688 0.94140625 l 2
 115.022460938 0.9970703125 104.993164062 12.86328125 104.993164062 24.470703125 c 2
 104.993164062 776.470703125 l 2
 104.993164062 790.712890625 118.423828125 800 128.5234375 800 c 2
 280.186523438 800 l 2
 375.405273438 798.91796875 453.239257812 721.774414062 453.239257812 625.754882812 c 0
 453.239257812 573.84375 430.725585938 527.6015625 395.458007812 495.513671875 c 1
EndSplineSet
Validated: 1
EndChar

StartChar: C
Encoding: 67 67 2
Width: 715
VWidth: 23
Flags: W
HStem: 0 47.0586<305.488 519.902> 752.941 47.0586<305.488 519.902>
VStem: 86.1768 47.0586<220.434 579.566>
LayerCount: 2
Back
Fore
SplineSet
641.166992188 128.637695312 m 0
 645.698242188 124.106445312 647.963867188 118.053710938 647.963867188 112 c 0
 647.963867188 105.946289062 645.698242188 99.8935546875 641.166992188 95.3623046875 c 0
 582.465820312 36.66015625 502.073242188 0 411.823242188 0 c 0
 232.328125 0 86.1767578125 145.041015625 86.1767578125 324.706054688 c 2
 86.1767578125 475.293945312 l 2
 86.1767578125 654.958984375 232.328125 800 411.823242188 800 c 0
 502.073242188 800 582.465820312 763.33984375 641.166992188 704.637695312 c 0
 645.698242188 700.106445312 647.963867188 694.053710938 647.963867188 688 c 0
 647.963867188 681.946289062 645.698242188 675.893554688 641.166992188 671.362304688 c 0
 636.635742188 666.831054688 630.583007812 664.565429688 624.529296875 664.565429688 c 0
 618.4765625 664.565429688 612.422851562 666.831054688 607.891601562 671.362304688 c 0
 557.416992188 721.836914062 489.103515625 752.94140625 411.823242188 752.94140625 c 0
 258.142578125 752.94140625 133.235351562 628.806640625 133.235351562 475.293945312 c 2
 133.235351562 324.706054688 l 2
 133.235351562 171.194335938 258.142578125 47.05859375 411.823242188 47.05859375 c 0
 489.103515625 47.05859375 557.416992188 78.1630859375 607.891601562 128.637695312 c 0
 612.422851562 133.168945312 618.4765625 135.434570312 624.529296875 135.434570312 c 0
 630.583007812 135.434570312 636.635742188 133.168945312 641.166992188 128.637695312 c 0
EndSplineSet
Validated: 1
EndChar

StartChar: D
Encoding: 68 68 3
Width: 783
VWidth: 23
Flags: W
HStem: 0 47.0586<152.059 433.816> 752.941 47.0586<152.059 434.887>
VStem: 105 47.0586<47.0586 752.941> 668.757 47.0742<280.205 519.795>
LayerCount: 2
Back
Fore
SplineSet
152.05859375 47.05859375 m 1
 315.823242188 47.05859375 l 2
 404.916992188 47.05859375 496.784179688 81.5302734375 565.5390625 150.28515625 c 0
 634.350585938 219.09765625 668.756835938 309.548828125 668.756835938 400 c 0
 668.756835938 490.451171875 634.350585938 580.90234375 565.5390625 649.71484375 c 0
 496.668945312 718.584960938 406.784179688 752.94140625 316.764648438 752.94140625 c 2
 152.05859375 752.94140625 l 1
 152.05859375 47.05859375 l 1
105 23.529296875 m 2
 105 776.470703125 l 2
 105 790.712890625 118.430664062 800 128.529296875 800 c 2
 316.764648438 800 l 2
 418.745117188 800 520.860351562 760.944335938 598.814453125 682.991210938 c 0
 676.825195312 604.979492188 715.831054688 502.490234375 715.831054688 400 c 0
 715.831054688 297.509765625 676.825195312 195.020507812 598.814453125 117.008789062 c 0
 520.745117188 38.9404296875 416.84765625 0 315.823242188 0 c 2
 128.529296875 0 l 2
 114.287109375 0 105 13.4306640625 105 23.529296875 c 2
EndSplineSet
Validated: 1
EndChar

StartChar: E
Encoding: 69 69 4
Width: 624
VWidth: 23
Flags: W
HStem: 0 47.0586<152.059 566.107> 376.471 47.0586<152.059 490.813> 752.941 47.0586<152.059 566.107>
VStem: 105 47.0586<47.0586 376.471 423.529 752.941>
CounterMasks: 1 e0
LayerCount: 2
Back
Fore
SplineSet
566.176757812 776.470703125 m 0
 566.176757812 763.654296875 555.462890625 752.94140625 542.647460938 752.94140625 c 2
 152.05859375 752.94140625 l 1
 152.05859375 423.529296875 l 1
 467.352539062 423.529296875 l 2
 480.168945312 423.529296875 490.8828125 412.81640625 490.8828125 400 c 0
 490.8828125 387.18359375 480.168945312 376.470703125 467.352539062 376.470703125 c 2
 152.05859375 376.470703125 l 1
 152.05859375 47.05859375 l 1
 542.647460938 47.05859375 l 2
 555.462890625 47.05859375 566.176757812 36.345703125 566.176757812 23.529296875 c 0
 566.176757812 10.712890625 555.462890625 0 542.647460938 0 c 2
 128.529296875 0 l 2
 118.430664062 0 105 9.287109375 105 23.529296875 c 2
 105 400 l 1
 105 776.470703125 l 2
 105 786.569335938 114.287109375 800 128.529296875 800 c 2
 542.647460938 800 l 2
 555.462890625 800 566.176757812 789.287109375 566.176757812 776.470703125 c 0
EndSplineSet
Validated: 1
EndChar

StartChar: F
Encoding: 70 70 5
Width: 577
VWidth: 23
Flags: W
HStem: 0 21G<122.121 134.938> 0 21G<122.121 134.938> 376.471 47.0586<152.059 490.813> 752.941 47.0586<152.059 566.107>
VStem: 105 47.0586<0.0697305 376.471 423.529 752.941>
LayerCount: 2
Back
Fore
SplineSet
566.176757812 776.470703125 m 0xb8
 566.176757812 763.654296875 555.462890625 752.94140625 542.647460938 752.94140625 c 2
 152.05859375 752.94140625 l 1
 152.05859375 423.529296875 l 1
 467.352539062 423.529296875 l 2
 480.168945312 423.529296875 490.8828125 412.81640625 490.8828125 400 c 0
 490.8828125 387.18359375 480.168945312 376.470703125 467.352539062 376.470703125 c 2
 152.05859375 376.470703125 l 1
 152.05859375 23.529296875 l 2
 152.05859375 10.712890625 141.345703125 0 128.529296875 0 c 0
 115.712890625 0 105 10.712890625 105 23.529296875 c 2
 105 400 l 1
 105 776.470703125 l 2
 105 786.569335938 114.287109375 800 128.529296875 800 c 2
 542.647460938 800 l 2
 555.462890625 800 566.176757812 789.287109375 566.176757812 776.470703125 c 0xb8
EndSplineSet
Validated: 1
EndChar

StartChar: G
Encoding: 71 71 6
Width: 843
VWidth: 23
Flags: W
HStem: 0 47.0586<347.757 589.231> 352.941 47.0586<502.246 710.177> 752.941 47.0586<347.179 588.321>
VStem: 67.3525 47.0596<280.404 519.596> 710.177 47.0586<126.288 352.941>
LayerCount: 2
Back
Fore
SplineSet
502.176757812 376.470703125 m 0
 502.176757812 389.287109375 512.889648438 400 525.706054688 400 c 2
 733.706054688 400 l 2
 747.948242188 400 757.235351562 386.569335938 757.235351562 376.470703125 c 2
 757.235351562 133.647460938 l 2
 757.235351562 127.2890625 754.008789062 120.673828125 750.34375 117.008789062 c 0
 672.327148438 38.9931640625 569.302734375 0 467.352539062 0 c 0
 365.403320312 0 262.37890625 38.9931640625 184.362304688 117.008789062 c 0
 106.345703125 195.025390625 67.3525390625 298.05078125 67.3525390625 400 c 0
 67.3525390625 501.94921875 106.345703125 604.974609375 184.362304688 682.991210938 c 0
 262.31640625 760.944335938 364.431640625 800 466.412109375 800 c 0
 568.197265625 800 671.293945312 762.041015625 749.40234375 683.931640625 c 0
 753.93359375 679.400390625 756.19921875 673.34765625 756.19921875 667.293945312 c 0
 756.19921875 661.241210938 753.93359375 655.1875 749.40234375 650.65625 c 0
 744.87109375 646.125 738.818359375 643.859375 732.764648438 643.859375 c 0
 726.7109375 643.859375 720.658203125 646.125 716.126953125 650.65625 c 0
 647.412109375 719.37109375 556.626953125 752.94140625 466.412109375 752.94140625 c 0
 376.392578125 752.94140625 286.5078125 718.584960938 217.637695312 649.71484375 c 0
 148.830078125 580.908203125 114.412109375 490.05078125 114.412109375 400 c 0
 114.412109375 309.94921875 148.830078125 219.091796875 217.637695312 150.28515625 c 0
 286.4453125 81.4775390625 377.302734375 47.05859375 467.352539062 47.05859375 c 0
 554.426757812 47.05859375 641.983398438 79.056640625 710.176757812 143.577148438 c 1
 710.176757812 352.94140625 l 1
 525.706054688 352.94140625 l 2
 512.889648438 352.94140625 502.176757812 363.654296875 502.176757812 376.470703125 c 0
EndSplineSet
Validated: 1
EndChar

StartChar: H
Encoding: 72 72 7
Width: 708
VWidth: 23
Flags: W
HStem: 0 21G<122.121 134.938 573.886 586.702> 0 21G<122.121 134.938 573.886 586.702> 376.471 47.0586<152.059 556.765> 780 20G<122.121 134.938 573.886 586.702> 780 20G<122.121 134.938 573.886 586.702>
VStem: 105 47.0586<0.0697305 376.471 423.529 799.93> 556.765 47.0586<0.0697305 376.471 423.529 799.93>
LayerCount: 2
Back
Fore
SplineSet
128.529296875 0 m 0xb6
 115.712890625 0 105 10.712890625 105 23.529296875 c 2
 105 400 l 1
 105 776.470703125 l 2
 105 789.287109375 115.712890625 800 128.529296875 800 c 0
 141.345703125 800 152.05859375 789.287109375 152.05859375 776.470703125 c 2
 152.05859375 423.529296875 l 1
 556.764648438 423.529296875 l 1
 556.764648438 776.470703125 l 2
 556.764648438 789.287109375 567.477539062 800 580.293945312 800 c 0
 593.110351562 800 603.823242188 789.287109375 603.823242188 776.470703125 c 2
 603.823242188 23.529296875 l 2
 603.823242188 10.712890625 593.110351562 0 580.293945312 0 c 0
 567.477539062 0 556.764648438 10.712890625 556.764648438 23.529296875 c 2
 556.764648438 376.470703125 l 1
 152.05859375 376.470703125 l 1
 152.05859375 23.529296875 l 2
 152.05859375 10.712890625 141.345703125 0 128.529296875 0 c 0xb6
EndSplineSet
Validated: 1
EndChar

StartChar: I
Encoding: 73 73 8
Width: 279
VWidth: 23
Flags: W
HStem: 0 21G<133.416 146.231> 0 21G<133.416 146.231> 780 20G<133.416 146.231> 780 20G<133.416 146.231>
VStem: 116.294 47.0586<0.0697305 799.93>
LayerCount: 2
Back
Fore
SplineSet
139.823242188 800 m 0xa8
 152.639648438 800 163.352539062 789.287109375 163.352539062 776.470703125 c 2
 163.352539062 23.529296875 l 2
 163.352539062 10.712890625 152.639648438 0 139.823242188 0 c 0
 127.0078125 0 116.293945312 10.712890625 116.293945312 23.529296875 c 2
 116.293945312 776.470703125 l 2
 116.293945312 789.287109375 127.0078125 800 139.823242188 800 c 0xa8
EndSplineSet
Validated: 1
EndChar

StartChar: J
Encoding: 74 74 9
Width: 455
VWidth: 23
Flags: W
HStem: 0 47.0586<121.89 263.986> 780 20G<339.533 352.349> 780 20G<339.533 352.349>
VStem: 322.412 47.0586<107.307 799.93>
LayerCount: 2
Back
Fore
SplineSet
44.1044921875 136.508789062 m 0xd0
 47.0048828125 137.73046875 50.0400390625 138.306640625 53.041015625 138.306640625 c 0
 62.26171875 138.306640625 71.1689453125 132.865234375 74.9208984375 123.954101562 c 0
 81.20703125 109.024414062 90.1396484375 96.2509765625 102.52734375 84.689453125 c 0
 126.043945312 61.1728515625 158.372070312 47.05859375 193.470703125 47.05859375 c 0
 265.239257812 47.05859375 322.412109375 104.23046875 322.412109375 176 c 2
 322.412109375 776.470703125 l 2
 322.412109375 789.287109375 333.125 800 345.94140625 800 c 0
 358.756835938 800 369.470703125 789.287109375 369.470703125 776.470703125 c 2
 369.470703125 176 l 2
 369.470703125 78.357421875 291.11328125 0 193.470703125 0 c 0
 145.815429688 0 102.288085938 18.7666015625 69.833984375 50.830078125 c 0
 54.025390625 65.783203125 40.3564453125 84.77734375 31.5498046875 105.692382812 c 0
 30.328125 108.59375 29.751953125 111.627929688 29.751953125 114.629882812 c 0
 29.751953125 123.849609375 35.193359375 132.756835938 44.1044921875 136.508789062 c 0xd0
EndSplineSet
Validated: 1
EndChar

StartChar: K
Encoding: 75 75 10
Width: 633
VWidth: 23
Flags: W
HStem: 0 21G<122.121 134.938 558.46 564.513> 0 21G<122.121 134.938 558.46 564.513> 780 20G<122.121 134.938 558.46 564.513> 780 20G<122.121 134.938 558.46 564.513>
VStem: 105 47.0586<0.0697305 799.93>
LayerCount: 2
Back
Fore
SplineSet
128.529296875 800 m 0xa8
 141.345703125 800 152.05859375 789.287109375 152.05859375 776.470703125 c 2
 152.05859375 23.529296875 l 2
 152.05859375 10.712890625 141.345703125 0 128.529296875 0 c 0
 115.712890625 0 105 10.712890625 105 23.529296875 c 2
 105 776.470703125 l 2
 105 789.287109375 115.712890625 800 128.529296875 800 c 0xa8
578.19140625 793.025390625 m 0
 582.669921875 788.501953125 584.905273438 782.487304688 584.905273438 776.474609375 c 0
 584.905273438 770.380859375 582.609375 764.2890625 578.025390625 759.75 c 2
 214.677734375 400 l 1
 578.025390625 40.25 l 2
 582.609375 35.7109375 584.905273438 29.619140625 584.905273438 23.525390625 c 0
 584.905273438 17.5126953125 582.669921875 11.498046875 578.19140625 6.974609375 c 0
 573.65234375 2.390625 567.559570312 0.0947265625 561.466796875 0.0947265625 c 0
 555.453125 0.0947265625 549.439453125 2.330078125 544.916015625 6.80859375 c 2
 164.680664062 383.279296875 l 2
 160.022460938 387.891601562 157.760742188 393.938476562 157.760742188 399.954101562 c 0
 157.760742188 406.092773438 160.115234375 412.201171875 164.680664062 416.720703125 c 2
 544.916015625 793.19140625 l 2
 549.439453125 797.669921875 555.453125 799.905273438 561.466796875 799.905273438 c 0
 567.559570312 799.905273438 573.65234375 797.609375 578.19140625 793.025390625 c 0
EndSplineSet
Validated: 1
EndChar

StartChar: L
Encoding: 76 76 11
Width: 633
VWidth: 23
Flags: W
HStem: 0 47.0586<152.059 603.754> 780 20G<122.121 134.938> 780 20G<122.121 134.938>
VStem: 105 47.0586<47.0586 799.93>
LayerCount: 2
Back
Fore
SplineSet
128.529296875 800 m 0xd0
 141.345703125 800 152.05859375 789.287109375 152.05859375 776.470703125 c 2
 152.05859375 47.05859375 l 1
 580.293945312 47.05859375 l 2
 593.110351562 47.05859375 603.823242188 36.345703125 603.823242188 23.529296875 c 0
 603.823242188 10.712890625 593.110351562 0 580.293945312 0 c 2
 128.529296875 0 l 2
 118.430664062 0 105 9.287109375 105 23.529296875 c 2
 105 776.470703125 l 2
 105 789.287109375 115.712890625 800 128.529296875 800 c 0xd0
EndSplineSet
Validated: 1
EndChar

StartChar: M
Encoding: 77 77 12
Width: 1011
VWidth: 23
Flags: W
HStem: 0 21G<122.121 134.938 876.945 889.761> 0 21G<122.121 134.938 876.945 889.761> 780 20G<122.035 133.192 881.106 884.279> 780 20G<122.035 133.192 881.106 884.279>
VStem: 105 47.0586<0.0697305 677.242 786.694 799.931> 859.823 47.0596<0.0697305 676.799>
LayerCount: 2
Back
Fore
SplineSet
105 776.470703125 m 2xac
 105 789.458984375 115.541015625 800 128.529296875 800 c 0
 137.854492188 800 145.91796875 794.56640625 149.724609375 786.694335938 c 2
 506.830078125 76.0380859375 l 1
 862.307617188 786.993164062 l 2
 864.31640625 791.010742188 867.38671875 794.208984375 871.021484375 796.421875 c 0
 874.626953125 798.68359375 878.860351562 800 883.352539062 800 c 0
 885.206054688 800 887.015625 799.776367188 888.754882812 799.353515625 c 0
 890.499023438 798.953125 892.217773438 798.344726562 893.875976562 797.515625 c 0
 897.893554688 795.506835938 901.091796875 792.436523438 903.3046875 788.801757812 c 0
 905.56640625 785.197265625 906.8828125 780.962890625 906.8828125 776.470703125 c 2
 906.8828125 23.529296875 l 2
 906.8828125 10.712890625 896.168945312 0 883.352539062 0 c 0
 870.537109375 0 859.823242188 10.712890625 859.823242188 23.529296875 c 2
 859.823242188 676.798828125 l 1
 527.927734375 13.0068359375 l 2
 526.774414062 10.701171875 525.272460938 8.6650390625 523.514648438 6.9306640625 c 0
 521.783203125 5.1689453125 519.750976562 3.6630859375 517.447265625 2.5048828125 c 0
 514.087890625 0.8173828125 510.477539062 0.0341796875 506.905273438 0.0595703125 c 0
 503.333984375 0.02734375 499.721679688 0.802734375 496.359375 2.484375 c 0
 494.053710938 3.63671875 492.018554688 5.1396484375 490.284179688 6.8974609375 c 0
 488.522460938 8.6279296875 487.015625 10.6611328125 485.858398438 12.96484375 c 2
 152.05859375 677.2421875 l 1
 152.05859375 23.529296875 l 2
 152.05859375 10.712890625 141.345703125 0 128.529296875 0 c 0
 115.712890625 0 105 10.712890625 105 23.529296875 c 2
 105 776.470703125 l 2xac
EndSplineSet
Validated: 1
EndChar

StartChar: N
Encoding: 78 78 13
Width: 784
VWidth: 23
Flags: W
HStem: 0 21G<122.121 134.938 653.645 656.814> 0 21G<122.121 134.938 653.645 656.814> 780 20G<127.303 130.472 649.18 661.996> 780 20G<127.303 130.472 649.18 661.996>
VStem: 105 47.0586<0.0697305 701.827> 632.059 47.0586<98.1729 799.93>
LayerCount: 2
Back
Fore
SplineSet
655.587890625 800 m 0xac
 668.404296875 800 679.1171875 789.287109375 679.1171875 776.470703125 c 2
 679.1171875 23.529296875 l 2
 679.1171875 19.6435546875 678.1328125 15.951171875 676.403320312 12.6923828125 c 0
 674.724609375 9.40625 672.264648438 6.4814453125 669.081054688 4.2529296875 c 0
 667.072265625 2.84765625 664.90234375 1.806640625 662.653320312 1.1162109375 c 0
 660.416015625 0.392578125 658.040039062 0 655.587890625 0 c 0
 651.702148438 0 648.009765625 0.984375 644.750976562 2.71484375 c 0
 641.46484375 4.392578125 638.540039062 6.8525390625 636.3125 10.0361328125 c 2
 152.05859375 701.827148438 l 1
 152.05859375 23.529296875 l 2
 152.05859375 10.712890625 141.345703125 0 128.529296875 0 c 0
 115.712890625 0 105 10.712890625 105 23.529296875 c 2
 105 776.470703125 l 2
 105 780.356445312 105.984375 784.048828125 107.71484375 787.307617188 c 0
 109.392578125 790.59375 111.852539062 793.518554688 115.036132812 795.747070312 c 0
 117.044921875 797.15234375 119.215820312 798.193359375 121.463867188 798.883789062 c 0
 123.702148438 799.607421875 126.077148438 800 128.529296875 800 c 0
 132.415039062 800 136.107421875 799.015625 139.3671875 797.28515625 c 0
 142.653320312 795.607421875 145.577148438 793.147460938 147.805664062 789.963867188 c 2
 632.05859375 98.1728515625 l 1
 632.05859375 776.470703125 l 2
 632.05859375 789.287109375 642.772460938 800 655.587890625 800 c 0xac
EndSplineSet
Validated: 1
EndChar

StartChar: O
Encoding: 79 79 14
Width: 934
VWidth: 23
Flags: W
HStem: 0 47.0586<347.171 587.535> 752.941 47.0586<347.171 587.535>
VStem: 67.3525 47.0596<279.818 520.182> 820.294 47.0586<279.818 520.182>
LayerCount: 2
Back
Fore
SplineSet
467.352539062 47.05859375 m 0
 662.365234375 47.05859375 820.293945312 204.98828125 820.293945312 400 c 0
 820.293945312 595.01171875 662.365234375 752.94140625 467.352539062 752.94140625 c 0
 272.340820312 752.94140625 114.412109375 595.01171875 114.412109375 400 c 0
 114.412109375 204.98828125 272.340820312 47.05859375 467.352539062 47.05859375 c 0
467.352539062 0 m 0
 246.365234375 0 67.3525390625 179.01171875 67.3525390625 400 c 0
 67.3525390625 620.98828125 246.365234375 800 467.352539062 800 c 0
 688.340820312 800 867.352539062 620.98828125 867.352539062 400 c 0
 867.352539062 179.01171875 688.340820312 0 467.352539062 0 c 0
EndSplineSet
Validated: 1
EndChar

StartChar: P
Encoding: 80 80 15
Width: 650
VWidth: 23
Flags: W
HStem: 0 21G<122.121 134.938> 0 21G<122.121 134.938> 301.177 47.0586<152.059 443.894> 752.941 47.0586<152.059 439.995>
VStem: 105 47.0586<0.0697305 301.177 348.235 752.941> 554.889 47.0596<460.596 641.968>
LayerCount: 2
Back
Fore
SplineSet
152.05859375 301.176757812 m 1xbc
 152.05859375 23.529296875 l 2
 152.05859375 10.712890625 141.345703125 0 128.529296875 0 c 0
 115.712890625 0 105 10.712890625 105 23.529296875 c 2
 105 776.470703125 l 2
 105 786.569335938 114.287109375 800 128.529296875 800 c 2
 354.5 800 l 2
 492.194335938 798.96484375 601.948242188 687.669921875 601.948242188 550.46484375 c 0
 601.948242188 411.956054688 490.05859375 301.176757812 352.529296875 301.176757812 c 2
 152.05859375 301.176757812 l 1xbc
152.05859375 348.235351562 m 1
 352.529296875 348.235351562 l 2
 464.215820312 348.235351562 554.888671875 438.0625 554.888671875 550.458984375 c 0
 554.888671875 661.994140625 465.810546875 752.102539062 354.323242188 752.94140625 c 2
 152.05859375 752.94140625 l 1
 152.05859375 348.235351562 l 1
EndSplineSet
Validated: 1
EndChar

StartChar: Q
Encoding: 81 81 16
Width: 938
VWidth: 23
Flags: W
HStem: 0 47.0586<348.85 590.006> 0.0947266 21G<842.679 848.732> 752.941 47.0586<348.85 589.621>
VStem: 67.3525 47.0596<279.821 520.179> 824.059 47.0586<280.719 520.179>
LayerCount: 2
Back
Fore
SplineSet
469.235351562 0 m 0xb8
 248.359375 0 67.3525390625 178.854492188 67.3525390625 400 c 0
 67.3525390625 621.145507812 248.359375 800 469.235351562 800 c 0
 690.111328125 800 871.1171875 621.145507812 871.1171875 400 c 0
 871.1171875 297.663085938 832.356445312 204.3828125 768.819335938 133.69140625 c 1
 862.34375 40.1669921875 l 2
 866.875 35.6357421875 869.140625 29.5830078125 869.140625 23.529296875 c 0
 869.140625 17.4765625 866.875 11.4228515625 862.34375 6.8916015625 c 0
 857.8125 2.3603515625 851.758789062 0.0947265625 845.706054688 0.0947265625 c 0x78
 839.65234375 0.0947265625 833.599609375 2.3603515625 829.068359375 6.8916015625 c 2
 735.37890625 100.580078125 l 1
 664.338867188 37.9814453125 571.020507812 0 469.235351562 0 c 0xb8
608.833007812 260.40234375 m 0
 613.364257812 264.93359375 619.416992188 267.19921875 625.470703125 267.19921875 c 0
 631.5234375 267.19921875 637.577148438 264.93359375 642.108398438 260.40234375 c 2
 735.475585938 167.03515625 l 1
 790.549804688 229.201171875 824.05859375 310.743164062 824.05859375 400 c 0
 824.05859375 594.854492188 664.359375 752.94140625 469.235351562 752.94140625 c 0
 274.111328125 752.94140625 114.412109375 594.854492188 114.412109375 400 c 0
 114.412109375 205.145507812 274.111328125 47.05859375 469.235351562 47.05859375 c 0xb8
 558.0859375 47.05859375 639.591796875 79.837890625 702.018554688 133.94140625 c 1
 608.833007812 227.126953125 l 2
 604.301757812 231.658203125 602.036132812 237.7109375 602.036132812 243.764648438 c 0
 602.036132812 249.818359375 604.301757812 255.87109375 608.833007812 260.40234375 c 0
EndSplineSet
Validated: 1
EndChar

StartChar: R
Encoding: 82 82 17
Width: 595
VWidth: 23
Flags: W
HStem: 0 21G<122.113 134.929 482.026 488.116> 0 21G<122.113 134.929 482.026 488.116> 376.471 47.0586<152.051 282.482> 752.941 47.0586<152.051 396.105>
VStem: 104.992 47.0586<0.0697305 376.471 423.529 752.941> 465.144 44.4951<2.69991 12.9648> 481.471 47.0586<507.577 670.233>
LayerCount: 2
Back
Fore
SplineSet
152.05078125 423.529296875 m 1x3a
 316.756835938 423.529296875 l 2
 407.765625 423.529296875 481.470703125 496.426757812 481.470703125 588.131835938 c 0
 481.470703125 679.133789062 409.249023438 752.94140625 318.638671875 752.94140625 c 2
 152.05078125 752.94140625 l 1
 152.05078125 423.529296875 l 1x3a
152.05078125 376.470703125 m 1
 152.05078125 23.529296875 l 2
 152.05078125 10.712890625 141.336914062 0 128.521484375 0 c 0
 115.705078125 0 104.9921875 10.712890625 104.9921875 23.529296875 c 2
 104.9921875 776.470703125 l 2
 104.9921875 790.712890625 118.422851562 800 128.521484375 800 c 2
 318.638671875 800 l 2
 435.783203125 800 528.529296875 704.453125 528.529296875 588.129882812 c 0xba
 528.529296875 476.383789062 443.140625 386.290039062 334.771484375 377.220703125 c 1
 507.192382812 34.09375 l 2
 508.854492188 30.787109375 509.638671875 27.236328125 509.638671875 23.71875 c 0
 509.638671875 15.0556640625 504.877929688 6.59765625 496.732421875 2.5048828125 c 0
 493.42578125 0.84375 489.875 0.05859375 486.357421875 0.05859375 c 0
 477.694335938 0.05859375 469.236328125 4.8193359375 465.143554688 12.96484375 c 2xbc
 282.482421875 376.470703125 l 1
 152.05078125 376.470703125 l 1
EndSplineSet
Validated: 1
EndChar

StartChar: S
Encoding: 83 83 18
Width: 539
VWidth: 23
Flags: W
HStem: 0 47.0586<181.155 341.792> 752.941 47.0586<191.077 332.147>
VStem: 84.2939 47.0586<558.514 694.11> 425 47.0586<128.654 290.533>
LayerCount: 2
Back
Fore
SplineSet
81.8330078125 159.130859375 m 0
 84.7099609375 160.330078125 87.7158203125 160.896484375 90.6884765625 160.896484375 c 0
 99.9404296875 160.896484375 108.87109375 155.415039062 112.6015625 146.461914062 c 0
 120.883789062 126.584960938 132.280273438 109.524414062 147.049804688 94.755859375 c 0
 176.626953125 65.177734375 217.693359375 47.05859375 263.1171875 47.05859375 c 0
 352.571289062 47.05859375 425 120.15625 425 209.8828125 c 0
 425 255.114257812 408.284179688 300.736328125 367.861328125 330.151367188 c 2
 157.025390625 483.572265625 l 2
 115.500976562 513.874023438 84.2939453125 572.666992188 84.2939453125 624 c 0
 84.2939453125 720.67578125 162.522460938 800 260.293945312 800 c 0
 308.211914062 800 352.615234375 780.108398438 383.930664062 749.169921875 c 0
 401.154296875 732.877929688 413.37109375 715.310546875 422.21484375 694.307617188 c 0
 423.436523438 691.40625 424.012695312 688.372070312 424.012695312 685.370117188 c 0
 424.012695312 676.150390625 418.571289062 667.243164062 409.66015625 663.491210938 c 0
 406.759765625 662.26953125 403.724609375 661.693359375 400.723632812 661.693359375 c 0
 391.502929688 661.693359375 382.595703125 667.134765625 378.84375 676.045898438 c 0
 372.553710938 690.983398438 363.634765625 703.740234375 351.237304688 715.310546875 c 0
 327.721679688 738.826171875 295.391601562 752.94140625 260.293945312 752.94140625 c 0
 188.654296875 752.94140625 131.352539062 694.853515625 131.352539062 624 c 0
 131.352539062 590.624023438 156.60546875 542.134765625 184.751953125 521.594726562 c 2
 395.549804688 368.202148438 l 2
 450.692382812 328.076171875 472.05859375 266.297851562 472.05859375 209.8828125 c 0
 472.05859375 94.4326171875 378.840820312 0 263.1171875 0 c 0
 205.01171875 0 151.9609375 23.29296875 113.774414062 61.4794921875 c 0
 94.66015625 80.59375 79.7041015625 103.0625 69.1630859375 128.362304688 c 0
 67.9638671875 131.239257812 67.3984375 134.245117188 67.3984375 137.217773438 c 0
 67.3984375 146.469726562 72.8798828125 155.400390625 81.8330078125 159.130859375 c 0
EndSplineSet
Validated: 1
EndChar

StartChar: T
Encoding: 84 84 19
Width: 633
VWidth: 23
Flags: W
HStem: 0 21G<310.356 323.173> 0 21G<310.356 323.173> 752.941 47.0586<-7.87167 293.235 340.294 641.401>
VStem: 293.235 47.0586<0.0697305 752.941>
LayerCount: 2
Back
Fore
SplineSet
-7.94140625 776.470703125 m 0xb0
 -7.94140625 789.287109375 2.7724609375 800 15.587890625 800 c 2
 316.764648438 800 l 1
 617.94140625 800 l 2
 630.756835938 800 641.470703125 789.287109375 641.470703125 776.470703125 c 0
 641.470703125 763.654296875 630.756835938 752.94140625 617.94140625 752.94140625 c 2
 340.293945312 752.94140625 l 1
 340.293945312 23.529296875 l 2
 340.293945312 10.712890625 329.581054688 0 316.764648438 0 c 0
 303.948242188 0 293.235351562 10.712890625 293.235351562 23.529296875 c 2
 293.235351562 752.94140625 l 1
 15.587890625 752.94140625 l 2
 2.7724609375 752.94140625 -7.94140625 763.654296875 -7.94140625 776.470703125 c 0xb0
EndSplineSet
Validated: 1
EndChar

StartChar: U
Encoding: 85 85 20
Width: 821
VWidth: 23
Flags: W
HStem: 0 47.0586<304.672 517.093> 780 20G<103.298 116.114 705.651 718.467> 780 20G<103.298 116.114 705.651 718.467>
VStem: 86.1768 47.0586<220.51 799.93> 688.529 47.0586<220.472 799.93>
LayerCount: 2
Back
Fore
SplineSet
712.05859375 800 m 0xd8
 724.875 800 735.587890625 789.287109375 735.587890625 776.470703125 c 2
 735.587890625 324.706054688 l 2
 735.587890625 145.140625 590.448242188 0 410.8828125 0 c 0
 231.309570312 0 86.1767578125 145.23828125 86.1767578125 324.706054688 c 2
 86.1767578125 776.470703125 l 2
 86.1767578125 789.287109375 96.8896484375 800 109.706054688 800 c 0
 122.522460938 800 133.235351562 789.287109375 133.235351562 776.470703125 c 2
 133.235351562 324.706054688 l 2
 133.235351562 171.190429688 257.278320312 47.05859375 410.8828125 47.05859375 c 0
 564.493164062 47.05859375 688.529296875 171.094726562 688.529296875 324.706054688 c 2
 688.529296875 776.470703125 l 2
 688.529296875 789.287109375 699.243164062 800 712.05859375 800 c 0xd8
EndSplineSet
Validated: 1
EndChar

StartChar: V
Encoding: 86 86 21
Width: 671
VWidth: 23
Flags: W
HStem: 779.962 20G<51.6968 57.8228 613.354 619.48> 779.962 20G<51.6968 57.8228 613.354 619.48>
VStem: 29.7441 45.5225<784.732 798.333> 595.91 45.5225<784.732 798.333>
LayerCount: 2
Back
Fore
SplineSet
44.9736328125 798.501953125 m 0xb0
 47.6171875 799.493164062 50.34765625 799.961914062 53.0458984375 799.961914062 c 0
 62.599609375 799.961914062 71.7578125 794.088867188 75.2666015625 784.732421875 c 2
 335.587890625 90.541015625 l 1
 595.91015625 784.732421875 l 2
 599.418945312 794.088867188 608.577148438 799.961914062 618.130859375 799.961914062 c 0
 620.829101562 799.961914062 623.559570312 799.493164062 626.203125 798.501953125 c 0
 635.559570312 794.993164062 641.432617188 785.834960938 641.432617188 776.28125 c 0
 641.432617188 773.583007812 640.963867188 770.852539062 639.97265625 768.208984375 c 2
 357.619140625 15.267578125 l 2
 352.296875 1.0751953125 345.626953125 -3.65625 339.099609375 -3.65625 c 0
 326.043945312 -3.65625 313.556640625 15.267578125 313.556640625 15.267578125 c 1
 31.2041015625 768.208984375 l 2
 30.212890625 770.852539062 29.744140625 773.583007812 29.744140625 776.28125 c 0
 29.744140625 785.834960938 35.6171875 794.993164062 44.9736328125 798.501953125 c 0xb0
EndSplineSet
Validated: 1
EndChar

StartChar: W
Encoding: 87 87 22
Width: 1023
VWidth: 23
Flags: W
HStem: 779.974 20G<51.9556 58.1113 965.07 971.226> 779.974 20G<51.9556 58.1113 965.07 971.226>
VStem: 29.7324 46.0166<760.264 798.836> 947.436 46.0078<760.384 798.828>
LayerCount: 2
Back
Fore
SplineSet
504.75 798.984375 m 0xb0
 507.018554688 799.673828125 509.325195312 799.991210938 511.6015625 799.97265625 c 0
 513.877929688 799.98828125 516.184570312 799.66796875 518.452148438 798.9765625 c 0
 522.247070312 797.819335938 525.549804688 795.73828125 528.190429688 793.053710938 c 0
 530.872070312 790.41015625 532.94921875 787.10546875 534.1015625 783.309570312 c 2
 740.340820312 104.334960938 l 1
 947.435546875 783.334960938 l 2
 950.498046875 793.377929688 960.02734375 799.973632812 970.11328125 799.973632812 c 0
 972.337890625 799.973632812 974.58984375 799.65234375 976.805664062 798.9765625 c 0
 986.848632812 795.913085938 993.443359375 786.383789062 993.443359375 776.298828125 c 0
 993.443359375 774.07421875 993.123046875 771.822265625 992.447265625 769.606445312 c 2
 762.799804688 16.6650390625 l 2
 761.642578125 12.8701171875 759.561523438 9.5673828125 756.876953125 6.9267578125 c 0
 754.233398438 4.2451171875 750.928710938 2.1689453125 747.1328125 1.015625 c 0
 744.86328125 0.326171875 742.556640625 0.0087890625 740.280273438 0.02734375 c 0
 738.00390625 0.01171875 735.698242188 0.33203125 733.4296875 1.0234375 c 0
 729.634765625 2.1806640625 726.33203125 4.26171875 723.692382812 6.9462890625 c 0
 721.009765625 9.58984375 718.93359375 12.89453125 717.780273438 16.6904296875 c 2
 511.541992188 695.665039062 l 1
 304.447265625 16.6650390625 l 2
 303.290039062 12.8701171875 301.208984375 9.5673828125 298.524414062 6.9267578125 c 0
 295.880859375 4.2451171875 292.576171875 2.1689453125 288.779296875 1.015625 c 0
 286.510742188 0.326171875 284.204101562 0.0087890625 281.927734375 0.02734375 c 0
 279.651367188 0.01171875 277.344726562 0.33203125 275.077148438 1.0234375 c 0
 271.282226562 2.1806640625 267.979492188 4.26171875 265.338867188 6.9462890625 c 0
 262.657226562 9.58984375 260.580078125 12.89453125 259.427734375 16.6904296875 c 2
 30.7216796875 769.631835938 l 2
 30.05078125 771.83984375 29.732421875 774.083007812 29.732421875 776.298828125 c 0
 29.732421875 786.39453125 36.341796875 795.9296875 46.396484375 798.984375 c 0
 48.6044921875 799.655273438 50.84765625 799.973632812 53.0634765625 799.973632812 c 0
 63.1591796875 799.973632812 72.6943359375 793.364257812 75.7490234375 783.309570312 c 2
 281.987304688 104.334960938 l 1
 489.08203125 783.334960938 l 2
 490.240234375 787.129882812 492.3203125 790.432617188 495.005859375 793.073242188 c 0
 497.6484375 795.754882812 500.954101562 797.831054688 504.75 798.984375 c 0xb0
EndSplineSet
Validated: 1
EndChar

StartChar: X
Encoding: 88 88 23
Width: 716
VWidth: 23
Flags: W
HStem: 0.0791016 21G<107.34 113.407 602.946 609.012> 0.0791016 21G<107.34 113.407 602.946 609.012> 779.921 20G<107.34 113.407 602.946 609.012> 779.921 20G<107.34 113.407 602.946 609.012>
LayerCount: 2
Back
Fore
SplineSet
96.7451171875 3.8916015625 m 0xa0
 89.9599609375 8.3701171875 86.255859375 15.9794921875 86.255859375 23.67578125 c 0
 86.255859375 28.11328125 87.486328125 32.5791015625 90.068359375 36.490234375 c 2
 329.984375 400 l 1
 90.068359375 763.509765625 l 2
 87.486328125 767.420898438 86.255859375 771.88671875 86.255859375 776.32421875 c 0
 86.255859375 784.020507812 89.9599609375 791.629882812 96.7451171875 796.108398438 c 0
 100.65625 798.690429688 105.122070312 799.920898438 109.55859375 799.920898438 c 0
 117.255859375 799.920898438 124.865234375 796.216796875 129.34375 789.431640625 c 2
 358.176757812 442.715820312 l 1
 587.008789062 789.431640625 l 2
 591.487304688 796.216796875 599.09765625 799.920898438 606.793945312 799.920898438 c 0
 611.23046875 799.920898438 615.696289062 798.690429688 619.608398438 796.108398438 c 0
 626.393554688 791.629882812 630.09765625 784.020507812 630.09765625 776.32421875 c 0
 630.09765625 771.88671875 628.866210938 767.420898438 626.28515625 763.509765625 c 2
 386.368164062 400 l 1
 626.28515625 36.490234375 l 2
 628.866210938 32.5791015625 630.09765625 28.11328125 630.09765625 23.67578125 c 0
 630.09765625 15.9794921875 626.393554688 8.3701171875 619.608398438 3.8916015625 c 0
 615.696289062 1.3095703125 611.23046875 0.0791015625 606.793945312 0.0791015625 c 0
 599.09765625 0.0791015625 591.487304688 3.783203125 587.008789062 10.568359375 c 2
 358.176757812 357.284179688 l 1
 129.34375 10.568359375 l 2
 124.865234375 3.783203125 117.255859375 0.0791015625 109.55859375 0.0791015625 c 0
 105.122070312 0.0791015625 100.65625 1.3095703125 96.7451171875 3.8916015625 c 0xa0
EndSplineSet
Validated: 1
EndChar

StartChar: Y
Encoding: 89 89 24
Width: 651
VWidth: 23
Flags: W
HStem: 0 21G<318.827 331.644> 0 21G<318.827 331.644> 779.915 20G<50.7275 56.7891 594.628 600.689> 779.915 20G<50.7275 56.7891 594.628 600.689>
VStem: 301.706 47.0586<0.0697305 392.368>
LayerCount: 2
Back
Fore
SplineSet
39.455078125 795.54296875 m 0xa8
 43.544921875 798.497070312 48.341796875 799.915039062 53.11328125 799.915039062 c 0
 60.46484375 799.915039062 67.755859375 796.549804688 72.3076171875 790.25 c 2
 325.268554688 440.131835938 l 1
 579.126953125 790.28125 l 2
 583.680664062 796.5625 590.958984375 799.915039062 598.296875 799.915039062 c 0
 603.08203125 799.915039062 607.891601562 798.489257812 611.987304688 795.520507812 c 0
 618.268554688 790.966796875 621.62109375 783.6875 621.62109375 776.349609375 c 0
 621.62109375 771.564453125 620.1953125 766.754882812 617.2265625 762.659179688 c 2
 348.764648438 392.368164062 l 1
 348.764648438 23.529296875 l 2
 348.764648438 10.712890625 338.051757812 0 325.235351562 0 c 0
 312.418945312 0 301.706054688 10.712890625 301.706054688 23.529296875 c 2
 301.706054688 392.389648438 l 1
 34.1630859375 762.690429688 l 2
 31.208984375 766.780273438 29.791015625 771.577148438 29.791015625 776.348632812 c 0
 29.791015625 783.700195312 33.15625 790.991210938 39.455078125 795.54296875 c 0xa8
EndSplineSet
Validated: 1
EndChar

StartChar: Z
Encoding: 90 90 25
Width: 671
VWidth: 23
Flags: W
HStem: 0 47.0586<151.264 584.93> 752.941 47.0586<86.2465 519.913>
LayerCount: 2
Back
Fore
SplineSet
86.1767578125 776.470703125 m 0
 86.1767578125 789.287109375 96.8896484375 800 109.706054688 800 c 2
 561.470703125 800 l 2
 563.635742188 800 565.741210938 799.694335938 567.745117188 799.124023438 c 0
 569.756835938 798.58203125 571.719726562 797.760742188 573.576171875 796.646484375 c 0
 577.157226562 794.499023438 579.9609375 791.490234375 581.885742188 788.029296875 c 0
 583.86328125 784.598632812 585 780.646484375 585 776.470703125 c 0
 585 774.3046875 584.694335938 772.19921875 584.124023438 770.1953125 c 0
 583.58203125 768.184570312 582.760742188 766.221679688 581.646484375 764.365234375 c 2
 151.263671875 47.05859375 l 1
 561.470703125 47.05859375 l 2
 574.287109375 47.05859375 585 36.345703125 585 23.529296875 c 0
 585 10.712890625 574.287109375 0 561.470703125 0 c 2
 109.706054688 0 l 2
 88.486328125 0 82.953125 8.15625 82.953125 16.6650390625 c 0
 82.953125 25.94140625 89.529296875 35.634765625 89.529296875 35.634765625 c 1
 519.913085938 752.94140625 l 1
 109.706054688 752.94140625 l 2
 96.8896484375 752.94140625 86.1767578125 763.654296875 86.1767578125 776.470703125 c 0
EndSplineSet
Validated: 5
EndChar

StartChar: one
Encoding: 49 49 26
Width: 567
VWidth: 23
Flags: W
HStem: 0 21G<333.886 346.702> 0 21G<333.886 346.702> 585.412 47.0586<147.422 246.185> 780 20G<337.113 340.434> 780 20G<337.113 340.434>
VStem: 316.765 47.0586<0.0697305 652.125 702.048 792.749>
LayerCount: 2
Back
Fore
SplineSet
340.293945312 0 m 0xb4
 327.477539062 0 316.764648438 10.712890625 316.764648438 23.529296875 c 2
 316.764648438 652.125 l 1
 281.424804688 611.32421875 229.236328125 585.412109375 170.8828125 585.412109375 c 0
 158.06640625 585.412109375 147.352539062 596.125 147.352539062 608.94140625 c 0
 147.352539062 621.756835938 158.06640625 632.470703125 170.8828125 632.470703125 c 0
 251.103515625 632.470703125 315.956054688 697.34375 316.765625 776.7109375 c 0
 316.831054688 783.079101562 319.536132812 788.901367188 323.814453125 793.131835938 c 0
 328.086914062 797.359375 333.931640625 800 340.293945312 800 c 2
 340.4140625 800 l 2
 340.454101562 800 340.494140625 799.999023438 340.534179688 799.999023438 c 0
 346.90234375 799.93359375 352.724609375 797.228515625 356.955078125 792.950195312 c 0
 361.182617188 788.677734375 363.823242188 782.833984375 363.823242188 776.470703125 c 2
 363.823242188 23.529296875 l 2
 363.823242188 10.712890625 353.110351562 0 340.293945312 0 c 0xb4
EndSplineSet
Validated: 1
EndChar

StartChar: two
Encoding: 50 50 27
Width: 567
VWidth: 23
Flags: W
HStem: 0 47.0586<138.263 487.047> 752.941 47.0586<213.831 357.066>
VStem: 414.647 47.0586<559.691 693.215>
LayerCount: 2
Back
Fore
SplineSet
136.33984375 663.491210938 m 0
 127.428710938 667.243164062 121.987304688 676.150390625 121.987304688 685.370117188 c 0
 121.987304688 688.372070312 122.563476562 691.40625 123.78515625 694.307617188 c 0
 132.591796875 715.22265625 146.260742188 734.215820312 162.0703125 749.169921875 c 0
 194.350585938 781.076171875 237.038085938 800 284.764648438 800 c 0
 381.302734375 800 461.706054688 721.96484375 461.706054688 624 c 0
 461.706054688 597.817382812 452.815429688 570.446289062 440.213867188 546.29296875 c 0
 439.995117188 545.874023438 439.666992188 545.297851562 439.485351562 544.998046875 c 2
 138.262695312 47.05859375 l 1
 463.587890625 47.05859375 l 2
 476.404296875 47.05859375 487.1171875 36.345703125 487.1171875 23.529296875 c 0
 487.1171875 10.712890625 476.404296875 0 463.587890625 0 c 2
 96.529296875 0 l 2
 75.3095703125 0 69.767578125 8.1455078125 69.767578125 16.65625 c 0
 69.767578125 25.9638671875 76.3974609375 35.7080078125 76.3974609375 35.7080078125 c 1
 398.82421875 568.69921875 l 2
 408.166015625 586.829101562 414.647460938 608.859375 414.647460938 624 c 0
 414.647460938 695.446289062 355.755859375 752.94140625 284.764648438 752.94140625 c 0
 249.7421875 752.94140625 218.443359375 738.9921875 194.762695312 715.310546875 c 0
 182.375 703.749023438 173.442382812 690.975585938 167.15625 676.045898438 c 0
 163.404296875 667.134765625 154.497070312 661.693359375 145.276367188 661.693359375 c 0
 142.275390625 661.693359375 139.240234375 662.26953125 136.33984375 663.491210938 c 0
EndSplineSet
Validated: 1
EndChar

StartChar: three
Encoding: 51 51 28
Width: 567
VWidth: 23
Flags: W
HStem: 0 47.0586<197.604 369.641> 413.177 47.0586<257.54 356.79> 752.941 47.0586<205.963 356.205>
VStem: 53.2354 47.0586<145.825 252.166> 88.0586 47.0576<585.482 683.338> 426.883 47.0586<531.354 682.264> 467.353 47.0596<145.19 311.321>
LayerCount: 2
Back
Fore
SplineSet
88.05859375 608.946289062 m 0xec
 88.05859375 609.024414062 88.0595703125 609.102539062 88.0595703125 609.181640625 c 0
 89.1328125 714.28515625 174.868164062 800 281 800 c 0
 387.206054688 800 473.94140625 713.264648438 473.94140625 607.05859375 c 0xec
 473.94140625 535.815429688 435.251953125 472.73046875 377.272460938 439.037109375 c 1
 457.474609375 402.104492188 514.412109375 321.022460938 514.412109375 228.706054688 c 0
 514.412109375 101.58984375 410.447265625 0 283.823242188 0 c 0
 156.240234375 0 53.2353515625 101.68359375 53.2353515625 228.706054688 c 0
 53.2353515625 241.522460938 63.9482421875 252.235351562 76.7646484375 252.235351562 c 0
 89.5810546875 252.235351562 100.293945312 241.522460938 100.293945312 228.706054688 c 0
 100.293945312 127.963867188 181.759765625 47.05859375 283.823242188 47.05859375 c 0
 384.96484375 47.05859375 467.352539062 128.057617188 467.352539062 228.706054688 c 0xf2
 467.352539062 328.313476562 381.953125 413.176757812 281 413.176757812 c 0
 268.18359375 413.176757812 257.470703125 423.889648438 257.470703125 436.706054688 c 0
 257.470703125 449.522460938 268.18359375 460.235351562 281 460.235351562 c 0
 361.89453125 460.235351562 426.8828125 526.670898438 426.8828125 607.05859375 c 0
 426.8828125 687.205078125 361.146484375 752.94140625 281 752.94140625 c 0
 200.778320312 752.94140625 135.926757812 688.067382812 135.116210938 608.701171875 c 0
 134.986328125 595.963867188 124.294921875 585.412109375 111.583007812 585.412109375 c 0
 98.6826171875 585.412109375 88.05859375 596.1875 88.05859375 608.946289062 c 0xec
EndSplineSet
Validated: 1
EndChar

StartChar: four
Encoding: 52 52 29
Width: 567
VWidth: 23
Flags: W
HStem: 0 21G<372.475 385.291> 0 21G<372.475 385.291> 214.588 47.0596<82.6689 355.353 402.412 542.578> 780 20G<376.839 380.009> 780 20G<376.839 380.009>
VStem: 355.353 47.0596<0.0697305 214.588 261.647 694.911>
LayerCount: 2
Back
Fore
SplineSet
355.352539062 261.647460938 m 1x24
 355.352539062 694.911132812 l 1
 82.6689453125 261.647460938 l 1
 355.352539062 261.647460938 l 1x24
378.8828125 0 m 0xb4
 366.06640625 0 355.352539062 10.712890625 355.352539062 23.529296875 c 2
 355.352539062 214.587890625 l 1
 40.05859375 214.587890625 l 2
 18.73046875 214.587890625 13.099609375 222.622070312 13.099609375 231.106445312 c 0
 13.099609375 240.59765625 20.1455078125 250.650390625 20.1455078125 250.650390625 c 1
 358.96875 789.00390625 l 2
 361.145507812 792.462890625 364.131835938 795.161132812 367.540039062 797.009765625 c 0
 370.920898438 798.91015625 374.794921875 800 378.8828125 800 c 0
 381.134765625 800 383.322265625 799.668945312 385.397460938 799.053710938 c 0
 387.481445312 798.46875 389.509765625 797.583984375 391.415039062 796.383789062 c 0
 394.875 794.20703125 397.573242188 791.221679688 399.421875 787.8125 c 0
 401.322265625 784.431640625 402.412109375 780.55859375 402.412109375 776.470703125 c 2
 402.412109375 261.647460938 l 1
 519.1171875 261.647460938 l 2
 531.93359375 261.647460938 542.647460938 250.93359375 542.647460938 238.1171875 c 0
 542.647460938 225.301757812 531.93359375 214.587890625 519.1171875 214.587890625 c 2
 402.412109375 214.587890625 l 1
 402.412109375 23.529296875 l 2
 402.412109375 10.712890625 391.698242188 0 378.8828125 0 c 0xb4
EndSplineSet
Validated: 1
EndChar

StartChar: five
Encoding: 53 53 30
Width: 567
VWidth: 23
Flags: W
HStem: 0 47.0586<184.499 365.082> 447.059 47.0586<158.647 361.614> 752.941 47.0586<158.647 460.695>
VStem: 45.752 45.1494<131.298 181.486> 111.588 47.0596<494.117 752.941> 473.941 47.0586<155.918 336.621>
LayerCount: 2
Back
Fore
SplineSet
60.05859375 181.666015625 m 0
 62.97265625 182.900390625 66.0234375 183.483398438 69.041015625 183.483398438 c 0
 78.244140625 183.483398438 87.1376953125 178.063476562 90.9013671875 169.176757812 c 0
 121.250976562 97.5185546875 192.010742188 47.05859375 274.412109375 47.05859375 c 0
 384.721679688 47.05859375 473.94140625 136.278320312 473.94140625 246.587890625 c 0
 473.94140625 356.322265625 386.208984375 444.130859375 276.98046875 447.05859375 c 2
 135.1171875 447.05859375 l 2
 122.301757812 447.05859375 111.587890625 457.772460938 111.587890625 470.587890625 c 2
 111.587890625 776.470703125 l 2
 111.587890625 789.287109375 122.301757812 800 135.1171875 800 c 2
 437.235351562 800 l 2
 450.051757812 800 460.764648438 789.287109375 460.764648438 776.470703125 c 0
 460.764648438 763.654296875 450.051757812 752.94140625 437.235351562 752.94140625 c 2
 158.647460938 752.94140625 l 1
 158.647460938 494.1171875 l 1
 277.506835938 494.1171875 l 2
 412.94921875 490.9921875 521 381.865234375 521 246.587890625 c 0
 521 110.310546875 410.689453125 0 274.412109375 0 c 0
 172.341796875 0 84.984375 62.4814453125 47.5693359375 150.823242188 c 0
 46.3349609375 153.737304688 45.751953125 156.788085938 45.751953125 159.805664062 c 0
 45.751953125 169.008789062 51.171875 177.90234375 60.05859375 181.666015625 c 0
EndSplineSet
Validated: 1
EndChar

StartChar: six
Encoding: 54 54 31
Width: 567
VWidth: 23
Flags: W
HStem: 0 47.0586<193.274 374.661> 447.059 47.0586<194.438 372.483> 752.941 47.0586<195.163 373.655>
VStem: 36.2939 47.0693<158.857 333.408 391.439 639.189> 463.195 44.5703<630.389 673.064> 484.294 47.0586<155.919 335.248>
LayerCount: 2
Back
Fore
SplineSet
83.3525390625 391.439453125 m 1xf8
 128.328125 453.478515625 201.512695312 494.1171875 283.823242188 494.1171875 c 0
 420.140625 494.1171875 531.352539062 382.905273438 531.352539062 246.587890625 c 0xf4
 531.352539062 110.176757812 420.006835938 0 283.823242188 0 c 0
 147.639648438 0 36.2939453125 110.176757812 36.2939453125 246.587890625 c 2
 36.2939453125 552.470703125 l 2
 36.2939453125 688.787109375 147.506835938 800 283.823242188 800 c 0
 381.592773438 800 464.930664062 743.670898438 505.392578125 661.709960938 c 0
 507.004882812 658.444335938 507.765625 654.947265625 507.765625 651.485351562 c 0
 507.765625 642.762695312 502.936523438 634.256835938 494.709960938 630.1953125 c 0
 491.444335938 628.583007812 487.947265625 627.822265625 484.485351562 627.822265625 c 0
 475.762695312 627.822265625 467.256835938 632.65234375 463.1953125 640.877929688 c 0
 430.24609375 707.623046875 362.99609375 752.94140625 283.823242188 752.94140625 c 0
 173.551757812 752.94140625 83.3525390625 662.7421875 83.3525390625 552.470703125 c 2
 83.3525390625 391.439453125 l 1xf8
83.36328125 244.51171875 m 0
 84.61328125 135.345703125 174.194335938 47.05859375 283.823242188 47.05859375 c 0
 394.228515625 47.05859375 484.293945312 136.411132812 484.293945312 246.587890625 c 0
 484.293945312 356.859375 394.094726562 447.05859375 283.823242188 447.05859375 c 0
 173.600585938 447.05859375 83.447265625 356.9453125 83.447265625 246.760742188 c 0
 83.447265625 245.696289062 83.447265625 245.869140625 83.36328125 244.51171875 c 0
EndSplineSet
Validated: 1
EndChar

StartChar: seven
Encoding: 55 55 32
Width: 567
VWidth: 23
Flags: W
HStem: 0.0419922 21G<206.905 213.022> 0.0419922 21G<206.905 213.022> 752.941 47.0586<34.4818 474.952>
VStem: 185.042 45.334<1.85742 14.791>
LayerCount: 2
Back
Fore
SplineSet
34.412109375 776.470703125 m 0xb0
 34.412109375 789.287109375 45.125 800 57.94140625 800 c 2
 509.706054688 800 l 2
 511.22265625 800 512.709960938 799.849609375 514.153320312 799.564453125 c 0
 515.599609375 799.29296875 517.036132812 798.879882812 518.444335938 798.317382812 c 0
 522.934570312 796.521484375 526.579101562 793.420898438 529.123046875 789.616210938 c 0
 531.709960938 785.841796875 533.235351562 781.305664062 533.235351562 776.470703125 c 0
 533.235351562 774.954101562 533.084960938 773.466796875 532.799804688 772.0234375 c 0
 532.528320312 770.577148438 532.115234375 769.140625 531.552734375 767.732421875 c 2
 230.375976562 14.791015625 l 2
 226.73046875 5.6767578125 217.708007812 0.0419921875 208.336914062 0.0419921875 c 0
 205.47265625 0.0419921875 202.576171875 0.568359375 199.791015625 1.6826171875 c 0
 190.676757812 5.328125 185.041992188 14.3505859375 185.041992188 23.7216796875 c 0
 185.041992188 26.5859375 185.568359375 29.482421875 186.682617188 32.267578125 c 2
 474.952148438 752.94140625 l 1
 57.94140625 752.94140625 l 2
 45.125 752.94140625 34.412109375 763.654296875 34.412109375 776.470703125 c 0xb0
EndSplineSet
Validated: 1
EndChar

StartChar: eight
Encoding: 56 56 33
Width: 567
VWidth: 23
Flags: W
HStem: 0 47.0586<195.163 372.483> 448 47.0586<215.073 352.573> 752.941 47.0586<215.013 352.634>
VStem: 36.2939 47.0586<158.869 336.373> 107.823 47.0596<553.975 692.811> 412.765 47.0586<553.975 692.811> 484.294 47.0586<158.869 336.373>
LayerCount: 2
Back
Fore
SplineSet
283.823242188 448 m 0
 173.552734375 448 83.3525390625 357.80078125 83.3525390625 247.529296875 c 0
 83.3525390625 137.2578125 173.551757812 47.05859375 283.823242188 47.05859375 c 0
 394.094726562 47.05859375 484.293945312 137.2578125 484.293945312 247.529296875 c 0
 484.293945312 357.80078125 394.094726562 448 283.823242188 448 c 0
531.352539062 247.529296875 m 0
 531.352539062 111.212890625 420.140625 0 283.823242188 0 c 0
 147.506835938 0 36.2939453125 111.212890625 36.2939453125 247.529296875 c 0
 36.2939453125 350.212890625 99.3984375 438.65234375 188.801757812 476.041992188 c 1
 140.176757812 507.447265625 107.823242188 562.126953125 107.823242188 624 c 0
 107.823242188 720.8046875 187.018554688 800 283.823242188 800 c 0
 380.627929688 800 459.823242188 720.8046875 459.823242188 624 c 0
 459.823242188 562.126953125 427.470703125 507.447265625 378.845703125 476.041992188 c 1
 468.249023438 438.65234375 531.352539062 350.212890625 531.352539062 247.529296875 c 0
412.764648438 624 m 0
 412.764648438 694.724609375 354.547851562 752.94140625 283.823242188 752.94140625 c 0
 213.098632812 752.94140625 154.8828125 694.724609375 154.8828125 624 c 0
 154.8828125 553.275390625 213.098632812 495.05859375 283.823242188 495.05859375 c 0
 354.547851562 495.05859375 412.764648438 553.275390625 412.764648438 624 c 0
EndSplineSet
Validated: 1
EndChar

StartChar: nine
Encoding: 57 57 34
Width: 567
VWidth: 23
Flags: W
HStem: 0 47.0586<193.701 374.418> 304.941 47.0586<195.163 371.052> 752.941 47.0586<195.163 372.483>
VStem: 36.2939 47.0586<463.81 641.131> 58.9395 44.5703<126.92 169.611> 484.377 47.0703<158.907 407.591 465.753 639.189>
LayerCount: 2
Back
Fore
SplineSet
484.293945312 407.590820312 m 1xec
 439.3046875 345.564453125 366.135742188 304.94140625 283.823242188 304.94140625 c 0
 147.506835938 304.94140625 36.2939453125 416.153320312 36.2939453125 552.470703125 c 0xf4
 36.2939453125 688.787109375 147.506835938 800 283.823242188 800 c 0
 420.140625 800 531.352539062 688.787109375 531.352539062 552.470703125 c 2
 531.352539062 248.6640625 l 2
 531.416015625 247.97265625 531.447265625 247.274414062 531.447265625 246.5703125 c 0
 531.342773438 110.174804688 420.009765625 0 283.823242188 0 c 0
 186.126953125 0 101.838867188 56.2001953125 61.3134765625 138.290039062 c 0
 59.701171875 141.555664062 58.939453125 145.052734375 58.939453125 148.514648438 c 0
 58.939453125 157.237304688 63.76953125 165.743164062 71.99609375 169.8046875 c 0
 75.26171875 171.416992188 78.7587890625 172.177734375 82.220703125 172.177734375 c 0
 90.9423828125 172.177734375 99.44921875 167.34765625 103.509765625 159.122070312 c 0
 136.396484375 92.5048828125 204.579101562 47.05859375 283.823242188 47.05859375 c 0
 393.567382812 47.05859375 483.229492188 135.3515625 484.376953125 244.637695312 c 0
 484.322265625 245.282226562 484.293945312 245.932617188 484.293945312 246.587890625 c 2
 484.293945312 407.590820312 l 1xec
484.293945312 552.470703125 m 0
 484.293945312 662.7421875 394.094726562 752.94140625 283.823242188 752.94140625 c 0
 173.552734375 752.94140625 83.3525390625 662.7421875 83.3525390625 552.470703125 c 0
 83.3525390625 442.19921875 173.551757812 352 283.823242188 352 c 0
 394.094726562 352 484.293945312 442.19921875 484.293945312 552.470703125 c 0
EndSplineSet
Validated: 1
EndChar

StartChar: zero
Encoding: 48 48 35
Width: 567
VWidth: 23
Flags: W
HStem: 0 47.0586<199.388 368.26> 752.979 47.0596<199.388 368.26>
VStem: 52.4814 47.0586<147.362 652.675> 468.106 47.0586<147.362 652.676>
LayerCount: 2
Back
Fore
SplineSet
52.4814453125 568.696289062 m 2
 52.4814453125 696.62109375 155.901367188 800.038085938 283.823242188 800.038085938 c 0
 411.749023438 800.038085938 515.165039062 696.620117188 515.165039062 568.696289062 c 2
 515.165039062 231.340820312 l 2
 515.165039062 103.416015625 411.748046875 0 283.823242188 0 c 0
 155.900390625 0 52.4814453125 103.41796875 52.4814453125 231.340820312 c 2
 52.4814453125 568.696289062 l 2
99.5400390625 568.696289062 m 2
 99.5400390625 231.340820312 l 2
 99.5400390625 129.373046875 181.857421875 47.05859375 283.823242188 47.05859375 c 0
 385.79296875 47.05859375 468.106445312 129.374023438 468.106445312 231.340820312 c 2
 468.106445312 568.696289062 l 2
 468.106445312 670.665039062 385.791992188 752.978515625 283.823242188 752.978515625 c 0
 181.856445312 752.978515625 99.5400390625 670.663085938 99.5400390625 568.696289062 c 2
EndSplineSet
Validated: 1
EndChar

StartChar: period
Encoding: 46 46 36
Width: 258
VWidth: 23
Flags: W
HStem: 0 47.0586<105.069 151.99>
VStem: 105 47.0586<0.0686506 46.9899>
LayerCount: 2
Back
Fore
SplineSet
105 23.529296875 m 0
 105 36.517578125 115.541015625 47.05859375 128.529296875 47.05859375 c 0
 141.517578125 47.05859375 152.05859375 36.517578125 152.05859375 23.529296875 c 0
 152.05859375 10.541015625 141.517578125 0 128.529296875 0 c 0
 115.541015625 0 105 10.541015625 105 23.529296875 c 0
EndSplineSet
Validated: 1
EndChar

StartChar: colon
Encoding: 58 58 37
Width: 257
VWidth: 23
Flags: W
HStem: 0 47.0586<105.069 151.99> 408.471 47.0586<105.069 151.99>
VStem: 105 47.0586<0.0686506 46.9899 408.539 455.461>
LayerCount: 2
Back
Fore
SplineSet
105 23.529296875 m 0
 105 36.517578125 115.541015625 47.05859375 128.529296875 47.05859375 c 0
 141.517578125 47.05859375 152.05859375 36.517578125 152.05859375 23.529296875 c 0
 152.05859375 10.541015625 141.517578125 0 128.529296875 0 c 0
 115.541015625 0 105 10.541015625 105 23.529296875 c 0
105 432 m 0
 105 444.98828125 115.541015625 455.529296875 128.529296875 455.529296875 c 0
 141.517578125 455.529296875 152.05859375 444.98828125 152.05859375 432 c 0
 152.05859375 419.01171875 141.517578125 408.470703125 128.529296875 408.470703125 c 0
 115.541015625 408.470703125 105 419.01171875 105 432 c 0
EndSplineSet
Validated: 1
EndChar

StartChar: comma
Encoding: 44 44 38
Width: 257
VWidth: 23
Flags: W
HStem: -142.117 189.176<105.07 151.989>
VStem: 105 47.0586<-142.047 46.9889>
LayerCount: 2
Back
Fore
SplineSet
128.529296875 -142.1171875 m 0
 115.712890625 -142.1171875 105 -131.404296875 105 -118.587890625 c 2
 105 23.529296875 l 2
 105 36.345703125 115.712890625 47.05859375 128.529296875 47.05859375 c 0
 141.345703125 47.05859375 152.05859375 36.345703125 152.05859375 23.529296875 c 2
 152.05859375 -118.587890625 l 2
 152.05859375 -131.404296875 141.345703125 -142.1171875 128.529296875 -142.1171875 c 0
EndSplineSet
Validated: 1
EndChar

StartChar: hyphen
Encoding: 45 45 39
Width: 504
VWidth: 23
Flags: W
HStem: 308.706 47.0586<105.07 399.518>
VStem: 105 294.588<308.776 355.695>
LayerCount: 2
Back
Fore
SplineSet
105 332.235351562 m 0
 105 345.051757812 115.712890625 355.764648438 128.529296875 355.764648438 c 2
 376.05859375 355.764648438 l 2
 388.875 355.764648438 399.587890625 345.051757812 399.587890625 332.235351562 c 0
 399.587890625 319.418945312 388.875 308.706054688 376.05859375 308.706054688 c 2
 128.529296875 308.706054688 l 2
 115.712890625 308.706054688 105 319.418945312 105 332.235351562 c 0
EndSplineSet
Validated: 1
EndChar

StartChar: exclam
Encoding: 33 33 40
Width: 257
VWidth: 23
Flags: W
HStem: 0 47.0586<105.069 151.99> 780 20G<122.121 134.938> 780 20G<122.121 134.938>
VStem: 105 47.0586<0.0686506 46.9899 177.011 799.93>
LayerCount: 2
Back
Fore
SplineSet
128.529296875 176.94140625 m 0xd0
 115.712890625 176.94140625 105 187.654296875 105 200.470703125 c 2
 105 776.470703125 l 2
 105 789.287109375 115.712890625 800 128.529296875 800 c 0
 141.345703125 800 152.05859375 789.287109375 152.05859375 776.470703125 c 2
 152.05859375 200.470703125 l 2
 152.05859375 187.654296875 141.345703125 176.94140625 128.529296875 176.94140625 c 0xd0
105 23.529296875 m 0
 105 36.517578125 115.541015625 47.05859375 128.529296875 47.05859375 c 0
 141.517578125 47.05859375 152.05859375 36.517578125 152.05859375 23.529296875 c 0
 152.05859375 10.541015625 141.517578125 0 128.529296875 0 c 0
 115.541015625 0 105 10.541015625 105 23.529296875 c 0
EndSplineSet
Validated: 1
EndChar

StartChar: question
Encoding: 63 63 41
Width: 549
VWidth: 23
Flags: W
HStem: 0.941406 47.0586<235.892 282.814> 752.941 47.0586<216.007 356.805>
VStem: 235.823 47.0596<1.01006 47.9313 177.953 312.103> 416.529 47.0586<559.233 694.11>
LayerCount: 2
Back
Fore
SplineSet
138.22265625 662.549804688 m 0
 129.311523438 666.301757812 123.869140625 675.208984375 123.869140625 684.428710938 c 0
 123.869140625 687.430664062 124.446289062 690.46484375 125.666992188 693.366210938 c 0
 134.352539062 713.993164062 147.74609375 733.806640625 163.9609375 749.178710938 c 0
 196.396484375 781.223632812 239.936523438 800 287.587890625 800 c 0
 385.359375 800 463.587890625 720.67578125 463.587890625 624 c 0
 463.587890625 597.817382812 454.698242188 570.446289062 442.095703125 546.29296875 c 0
 441.895507812 545.907226562 441.59375 545.375976562 441.428710938 545.098632812 c 2
 323.78125 348.393554688 l 2
 288.780273438 289.87109375 282.8828125 250.724609375 282.8828125 201.412109375 c 0
 282.8828125 188.595703125 272.168945312 177.8828125 259.352539062 177.8828125 c 0
 246.537109375 177.8828125 235.823242188 188.595703125 235.823242188 201.412109375 c 0
 235.823242188 255.62890625 244.328125 307.227539062 283.39453125 372.547851562 c 2
 400.680664062 568.649414062 l 2
 410.067382812 586.865234375 416.529296875 608.846679688 416.529296875 624 c 0
 416.529296875 694.853515625 359.228515625 752.94140625 287.587890625 752.94140625 c 0
 252.490234375 752.94140625 220.162109375 738.827148438 196.645507812 715.310546875 c 0
 184.654296875 704.119140625 175.455078125 690.34375 169.038085938 675.104492188 c 0
 165.286132812 666.193359375 156.37890625 660.751953125 147.159179688 660.751953125 c 0
 144.157226562 660.751953125 141.123046875 661.328125 138.22265625 662.549804688 c 0
235.823242188 24.470703125 m 0
 235.823242188 37.458984375 246.364257812 48 259.352539062 48 c 0
 272.340820312 48 282.8828125 37.458984375 282.8828125 24.470703125 c 0
 282.8828125 11.482421875 272.340820312 0.94140625 259.352539062 0.94140625 c 0
 246.364257812 0.94140625 235.823242188 11.482421875 235.823242188 24.470703125 c 0
EndSplineSet
Validated: 1
EndChar

StartChar: parenleft
Encoding: 40 40 42
Width: 325
VWidth: 23
Flags: W
HStem: 0.0390625 21G<191.734 197.857> 0.0390625 21G<191.734 197.857> 779.961 20G<192.663 198.788> 779.961 20G<192.663 198.788>
VStem: 105 47.0586<188.592 611.836> 174.314 45.4697<1.72022 74.9066 722.385 798.303>
LayerCount: 2
Back
Fore
SplineSet
205.575195312 798.47265625 m 0xac
 214.892578125 794.94140625 220.725585938 785.8046875 220.725585938 776.280273438 c 0
 220.725585938 773.5546875 220.248046875 770.797851562 219.237304688 768.130859375 c 0
 175.987304688 654.025390625 152.05859375 529.7890625 152.05859375 400.94140625 c 0
 152.05859375 271.966796875 175.135742188 144.821289062 218.2734375 31.927734375 c 0
 219.298828125 29.244140625 219.784179688 26.4658203125 219.784179688 23.7197265625 c 0
 219.784179688 14.21875 213.98046875 5.0986328125 204.692382812 1.5498046875 c 0
 202.008789062 0.5244140625 199.23046875 0.0390625 196.484375 0.0390625 c 0
 186.983398438 0.0390625 177.86328125 5.84375 174.314453125 15.130859375 c 0
 128.982421875 133.766601562 105 266.38671875 105 400.94140625 c 0
 105 535.623046875 130.012695312 665.50390625 175.233398438 784.809570312 c 0
 178.764648438 794.127929688 187.901367188 799.9609375 197.424804688 799.9609375 c 0
 200.150390625 799.9609375 202.908203125 799.483398438 205.575195312 798.47265625 c 0xac
EndSplineSet
Validated: 1
EndChar

StartChar: parenright
Encoding: 41 41 43
Width: 325
VWidth: 23
Flags: W
HStem: 0.0390625 21G<126.966 133.089> 0.0390625 21G<126.966 133.089> 779.961 20G<126.977 133.102> 779.961 20G<126.977 133.102>
VStem: 105.039 45.4697<1.72022 74.9119 724.847 798.303> 173.706 47.0586<188.187 611.432>
LayerCount: 2
Back
Fore
SplineSet
120.190429688 798.47265625 m 0xac
 122.856445312 799.483398438 125.614257812 799.9609375 128.33984375 799.9609375 c 0
 137.86328125 799.9609375 147 794.127929688 150.53125 784.809570312 c 0
 195.765625 665.467773438 220.764648438 534.678710938 220.764648438 400 c 0
 220.764648438 265.327148438 195.787109375 133.624023438 150.508789062 15.130859375 c 0
 146.959960938 5.84375 137.83984375 0.0390625 128.338867188 0.0390625 c 0
 125.592773438 0.0390625 122.815429688 0.5244140625 120.130859375 1.5498046875 c 0
 110.84375 5.0986328125 105.0390625 14.21875 105.0390625 23.7197265625 c 0
 105.0390625 26.4658203125 105.524414062 29.244140625 106.549804688 31.927734375 c 0
 149.7421875 144.963867188 173.706054688 271.143554688 173.706054688 400 c 0
 173.706054688 528.8515625 149.763671875 654.061523438 106.52734375 768.130859375 c 0
 105.516601562 770.797851562 105.0390625 773.5546875 105.0390625 776.280273438 c 0
 105.0390625 785.8046875 110.872070312 794.94140625 120.190429688 798.47265625 c 0xac
EndSplineSet
Validated: 1
EndChar

StartChar: slash
Encoding: 47 47 45
Width: 497
VWidth: 23
Flags: W
HStem: 0.0292969 21G<127.194 133.342> 0.0292969 21G<127.194 133.342> 779.971 20G<363.717 369.866> 779.971 20G<363.717 369.866>
VStem: 346.111 45.9189<761.655 798.736>
LayerCount: 2
Back
Fore
SplineSet
375.674804688 798.888671875 m 0xa8
 385.583007812 795.73046875 392.030273438 786.272460938 392.030273438 776.293945312 c 0
 392.030273438 773.974609375 391.681640625 771.627929688 390.947265625 769.325195312 c 2
 150.947265625 16.3837890625 l 2
 147.7890625 6.4755859375 138.331054688 0.029296875 128.353515625 0.029296875 c 0
 126.034179688 0.029296875 123.686523438 0.376953125 121.383789062 1.111328125 c 0
 111.475585938 4.26953125 105.029296875 13.7275390625 105.029296875 23.7060546875 c 0
 105.029296875 26.025390625 105.376953125 28.3720703125 106.111328125 30.6748046875 c 2
 346.111328125 783.616210938 l 2
 349.26953125 793.524414062 358.727539062 799.970703125 368.706054688 799.970703125 c 0
 371.025390625 799.970703125 373.372070312 799.623046875 375.674804688 798.888671875 c 0xa8
EndSplineSet
Validated: 1
EndChar

StartChar: plus
Encoding: 43 43 46
Width: 504
VWidth: 23
Flags: W
HStem: 308.706 47.0586<105.07 228.765 275.823 399.518>
VStem: 228.765 47.0586<185.011 308.706 355.765 479.46>
LayerCount: 2
Back
Fore
SplineSet
252.293945312 184.94140625 m 0
 239.477539062 184.94140625 228.764648438 195.654296875 228.764648438 208.470703125 c 2
 228.764648438 308.706054688 l 1
 128.529296875 308.706054688 l 2
 115.712890625 308.706054688 105 319.418945312 105 332.235351562 c 0
 105 345.051757812 115.712890625 355.764648438 128.529296875 355.764648438 c 2
 228.764648438 355.764648438 l 1
 228.764648438 456 l 2
 228.764648438 468.81640625 239.477539062 479.529296875 252.293945312 479.529296875 c 0
 265.110351562 479.529296875 275.823242188 468.81640625 275.823242188 456 c 2
 275.823242188 355.764648438 l 1
 376.05859375 355.764648438 l 2
 388.875 355.764648438 399.587890625 345.051757812 399.587890625 332.235351562 c 0
 399.587890625 319.418945312 388.875 308.706054688 376.05859375 308.706054688 c 2
 275.823242188 308.706054688 l 1
 275.823242188 208.470703125 l 2
 275.823242188 195.654296875 265.110351562 184.94140625 252.293945312 184.94140625 c 0
EndSplineSet
Validated: 1
EndChar

StartChar: asterisk
Encoding: 42 42 47
Width: 470
VWidth: 23
Flags: W
HStem: 505.412 294.588<212.253 259.172>
VStem: 212.184 47.0586<505.482 611.952 693.46 799.93>
LayerCount: 2
Back
Fore
SplineSet
259.2421875 528.94140625 m 2
 259.2421875 516.125 248.529296875 505.412109375 235.712890625 505.412109375 c 0
 222.897460938 505.412109375 212.18359375 516.125 212.18359375 528.94140625 c 2
 212.18359375 611.952148438 l 1
 140.293945312 570.446289062 l 2
 136.670898438 568.354492188 132.670898438 567.36328125 128.703125 567.36328125 c 0
 120.516601562 567.36328125 112.46875 571.583007812 108.15234375 579.05859375 c 0
 106.060546875 582.681640625 105.069335938 586.681640625 105.069335938 590.649414062 c 0
 105.069335938 598.8359375 109.2890625 606.884765625 116.764648438 611.200195312 c 2
 188.654296875 652.706054688 l 1
 116.764648438 694.2109375 l 2
 109.2890625 698.52734375 105.069335938 706.576171875 105.069335938 714.76171875 c 0
 105.069335938 718.729492188 106.060546875 722.729492188 108.15234375 726.352539062 c 0
 112.46875 733.829101562 120.516601562 738.047851562 128.703125 738.047851562 c 0
 132.670898438 738.047851562 136.670898438 737.057617188 140.293945312 734.96484375 c 2
 212.18359375 693.459960938 l 1
 212.18359375 776.470703125 l 2
 212.18359375 789.287109375 222.897460938 800 235.712890625 800 c 0
 248.529296875 800 259.2421875 789.287109375 259.2421875 776.470703125 c 2
 259.2421875 693.459960938 l 1
 331.1328125 734.96484375 l 2
 334.755859375 737.057617188 338.755859375 738.047851562 342.72265625 738.047851562 c 0
 350.909179688 738.047851562 358.958007812 733.829101562 363.274414062 726.352539062 c 0
 365.366210938 722.729492188 366.357421875 718.729492188 366.357421875 714.76171875 c 0
 366.357421875 706.576171875 362.137695312 698.52734375 354.662109375 694.2109375 c 2
 282.772460938 652.706054688 l 1
 354.662109375 611.200195312 l 2
 362.137695312 606.884765625 366.357421875 598.8359375 366.357421875 590.649414062 c 0
 366.357421875 586.681640625 365.366210938 582.681640625 363.274414062 579.05859375 c 0
 358.958007812 571.583007812 350.909179688 567.36328125 342.72265625 567.36328125 c 0
 338.755859375 567.36328125 334.755859375 568.354492188 331.1328125 570.446289062 c 2
 259.2421875 611.952148438 l 1
 259.2421875 528.94140625 l 2
EndSplineSet
Validated: 1
EndChar

StartChar: quotedbl
Encoding: 34 34 48
Width: 411
VWidth: 23
Flags: W
HStem: 610.824 189.176<105.07 151.989 259.422 306.341>
VStem: 105 47.0586<610.894 799.93> 259.353 47.0586<610.894 799.93>
LayerCount: 2
Back
Fore
SplineSet
282.881835938 610.82421875 m 0
 270.065429688 610.82421875 259.352539062 621.537109375 259.352539062 634.353515625 c 2
 259.352539062 776.470703125 l 2
 259.352539062 789.287109375 270.065429688 800 282.881835938 800 c 0
 295.698242188 800 306.411132812 789.287109375 306.411132812 776.470703125 c 2
 306.411132812 634.353515625 l 2
 306.411132812 621.537109375 295.698242188 610.82421875 282.881835938 610.82421875 c 0
128.529296875 610.82421875 m 0
 115.712890625 610.82421875 105 621.537109375 105 634.353515625 c 2
 105 776.470703125 l 2
 105 789.287109375 115.712890625 800 128.529296875 800 c 0
 141.345703125 800 152.05859375 789.287109375 152.05859375 776.470703125 c 2
 152.05859375 634.353515625 l 2
 152.05859375 621.537109375 141.345703125 610.82421875 128.529296875 610.82421875 c 0
EndSplineSet
Validated: 1
EndChar

StartChar: quotesingle
Encoding: 39 39 49
Width: 257
VWidth: 23
Flags: W
HStem: 610.824 189.176<105.07 151.989>
VStem: 105 47.0586<610.894 799.93>
LayerCount: 2
Back
Fore
SplineSet
128.529296875 610.82421875 m 0
 115.712890625 610.82421875 105 621.537109375 105 634.353515625 c 2
 105 776.470703125 l 2
 105 789.287109375 115.712890625 800 128.529296875 800 c 0
 141.345703125 800 152.05859375 789.287109375 152.05859375 776.470703125 c 2
 152.05859375 634.353515625 l 2
 152.05859375 621.537109375 141.345703125 610.82421875 128.529296875 610.82421875 c 0
EndSplineSet
Validated: 1
EndChar

StartChar: numbersign
Encoding: 35 35 50
Width: 797
VWidth: 23
Flags: W
HStem: 0.0292969 21G<157.782 163.931 421.311 427.46> 0.0292969 21G<157.782 163.931 421.311 427.46> 247.529 47.0586<105.07 205.822 270.214 469.352 533.743 629.166> 456.471 47.0586<177.54 272.422 336.813 535.951 600.343 692.224> 779.971 20G<394.305 400.454 657.834 663.983> 779.971 20G<394.305 400.454 657.834 663.983>
VStem: 135.617 45.9189<1.26396 38.3445> 376.699 45.9189<761.655 798.736> 399.146 45.9189<1.26396 38.3445> 640.229 45.9189<761.655 798.736>
LayerCount: 2
Back
Fore
SplineSet
484.3515625 294.587890625 m 1x3240
 535.951171875 456.470703125 l 1
 321.813476562 456.470703125 l 1
 270.213867188 294.587890625 l 1
 484.3515625 294.587890625 l 1x3240
406.263671875 798.888671875 m 0
 416.170898438 795.73046875 422.618164062 786.272460938 422.618164062 776.293945312 c 0xbb40
 422.618164062 773.974609375 422.26953125 771.627929688 421.536132812 769.325195312 c 2
 336.813476562 503.529296875 l 1
 550.951171875 503.529296875 l 1
 640.228515625 783.616210938 l 2
 643.38671875 793.524414062 652.844726562 799.970703125 662.823242188 799.970703125 c 0
 665.142578125 799.970703125 667.490234375 799.623046875 669.79296875 798.888671875 c 0
 679.701171875 795.73046875 686.147460938 786.272460938 686.147460938 776.293945312 c 0
 686.147460938 773.974609375 685.798828125 771.627929688 685.065429688 769.325195312 c 2
 600.342773438 503.529296875 l 1
 668.764648438 503.529296875 l 2
 681.581054688 503.529296875 692.293945312 492.81640625 692.293945312 480 c 0
 692.293945312 467.18359375 681.581054688 456.470703125 668.764648438 456.470703125 c 2
 585.342773438 456.470703125 l 1
 533.743164062 294.587890625 l 1
 605.706054688 294.587890625 l 2
 618.522460938 294.587890625 629.235351562 283.875 629.235351562 271.05859375 c 0
 629.235351562 258.243164062 618.522460938 247.529296875 605.706054688 247.529296875 c 2
 518.743164062 247.529296875 l 1
 445.065429688 16.3837890625 l 2
 441.907226562 6.4755859375 432.44921875 0.029296875 422.470703125 0.029296875 c 0
 420.151367188 0.029296875 417.803710938 0.376953125 415.500976562 1.111328125 c 0
 405.59375 4.26953125 399.146484375 13.7275390625 399.146484375 23.7060546875 c 0xbac0
 399.146484375 26.025390625 399.495117188 28.3720703125 400.228515625 30.6748046875 c 2
 469.3515625 247.529296875 l 1
 255.213867188 247.529296875 l 1
 181.536132812 16.3837890625 l 2
 178.377929688 6.4755859375 168.919921875 0.029296875 158.94140625 0.029296875 c 0
 156.622070312 0.029296875 154.274414062 0.376953125 151.971679688 1.111328125 c 0
 142.064453125 4.26953125 135.6171875 13.7275390625 135.6171875 23.7060546875 c 0
 135.6171875 26.025390625 135.965820312 28.3720703125 136.69921875 30.6748046875 c 2
 205.822265625 247.529296875 l 1
 128.529296875 247.529296875 l 2
 115.712890625 247.529296875 105 258.243164062 105 271.05859375 c 0
 105 283.875 115.712890625 294.587890625 128.529296875 294.587890625 c 2
 220.822265625 294.587890625 l 1
 272.421875 456.470703125 l 1
 201 456.470703125 l 2
 188.18359375 456.470703125 177.470703125 467.18359375 177.470703125 480 c 0
 177.470703125 492.81640625 188.18359375 503.529296875 201 503.529296875 c 2
 287.421875 503.529296875 l 1
 376.69921875 783.616210938 l 2
 379.857421875 793.524414062 389.315429688 799.970703125 399.293945312 799.970703125 c 0xbb40
 401.61328125 799.970703125 403.9609375 799.623046875 406.263671875 798.888671875 c 0
EndSplineSet
Validated: 1
EndChar

StartChar: dollar
Encoding: 36 36 51
Width: 614
VWidth: 23
Flags: W
HStem: 0.34375 45.7734<218.982 277.235 324.294 380.236> 752.941 112.941<274.744 320.957> 752.941 45.5059<228.254 274.412 321.471 369.689>
VStem: 121.941 47.0586<558.514 695.152> 274.412 47.0586<-66.3379 2.53411 794.624 865.813> 462.647 47.0586<128.11 289.744>
LayerCount: 2
Back
Fore
SplineSet
119.479492188 158.190429688 m 0xdc
 122.356445312 159.388671875 125.36328125 159.955078125 128.3359375 159.955078125 c 0
 137.586914062 159.955078125 146.518554688 154.473632812 150.249023438 145.520507812 c 0
 158.53125 125.643554688 169.927734375 108.583007812 184.696289062 93.814453125 c 0
 214.274414062 64.236328125 255.340820312 46.1171875 300.764648438 46.1171875 c 0
 390.217773438 46.1171875 462.647460938 119.21484375 462.647460938 208.94140625 c 0
 462.647460938 254.044921875 445.041992188 299.736328125 405.341796875 330.272460938 c 2
 194.671875 483.572265625 l 2
 153.147460938 513.874023438 121.94140625 572.666992188 121.94140625 624 c 0
 121.94140625 712.78125 187.915039062 786.928710938 274.412109375 798.447265625 c 1xbc
 274.412109375 842.352539062 l 2
 274.412109375 855.168945312 285.125 865.8828125 297.94140625 865.8828125 c 0
 310.756835938 865.8828125 321.470703125 855.168945312 321.470703125 842.352539062 c 2
 321.470703125 798.395507812 l 1
 360.240234375 793.091796875 395.4609375 774.97265625 421.577148438 749.169921875 c 0
 438.801757812 732.877929688 451.018554688 715.310546875 459.862304688 694.307617188 c 0
 461.083007812 691.40625 461.66015625 688.372070312 461.66015625 685.370117188 c 0
 461.66015625 676.150390625 456.217773438 667.243164062 447.307617188 663.491210938 c 0
 444.40625 662.26953125 441.372070312 661.693359375 438.370117188 661.693359375 c 0
 429.150390625 661.693359375 420.243164062 667.134765625 416.491210938 676.045898438 c 0
 410.201171875 690.983398438 401.28125 703.740234375 388.883789062 715.310546875 c 0
 365.369140625 738.826171875 333.038085938 752.94140625 297.94140625 752.94140625 c 0
 226.30078125 752.94140625 169 694.853515625 169 624 c 0
 169 590.624023438 194.251953125 542.134765625 222.399414062 521.594726562 c 2
 433.395507812 368.057617188 l 2
 487.65625 326.819335938 509.706054688 265.692382812 509.706054688 208.94140625 c 0
 509.706054688 101.4296875 428.866210938 12.14453125 324.293945312 0.3740234375 c 1
 324.293945312 -43.2939453125 l 2
 324.293945312 -56.1103515625 313.581054688 -66.8232421875 300.764648438 -66.8232421875 c 0
 287.948242188 -66.8232421875 277.235351562 -56.1103515625 277.235351562 -43.2939453125 c 2
 277.235351562 0.34375 l 1
 228.427734375 5.7080078125 184.385742188 27.57421875 151.420898438 60.5390625 c 0
 132.307617188 79.65234375 117.3515625 102.12109375 106.809570312 127.420898438 c 0
 105.611328125 130.297851562 105.044921875 133.303710938 105.044921875 136.27734375 c 0
 105.044921875 145.528320312 110.526367188 154.459960938 119.479492188 158.190429688 c 0xdc
EndSplineSet
Validated: 1
EndChar

StartChar: percent
Encoding: 37 37 52
Width: 746
VWidth: 23
Flags: W
HStem: 0 47.0586<434.983 556.194> 0.078125 21G<126.188 132.256> 244.706 47.0586<434.983 556.194> 508.235 47.0586<190.277 311.488> 752.941 47.0586<190.277 311.488> 779.922 20G<614.215 620.283>
VStem: 105 47.0586<593.512 714.723> 349.706 47.0586<85.2769 206.488 593.512 714.723> 594.412 47.0586<85.277 206.488>
CounterMasks: 1 0380
LayerCount: 2
Back
Fore
SplineSet
396.764648438 145.8828125 m 0xb380
 396.764648438 91.0859375 440.7890625 47.05859375 495.587890625 47.05859375 c 0
 550.384765625 47.05859375 594.412109375 91.0830078125 594.412109375 145.8828125 c 0
 594.412109375 200.678710938 550.387695312 244.706054688 495.587890625 244.706054688 c 0
 440.791015625 244.706054688 396.764648438 200.681640625 396.764648438 145.8828125 c 0xb380
349.706054688 145.8828125 m 0
 349.706054688 226.612304688 414.85546875 291.764648438 495.587890625 291.764648438 c 0
 576.318359375 291.764648438 641.470703125 226.615234375 641.470703125 145.8828125 c 0
 641.470703125 65.15234375 576.321289062 0 495.587890625 0 c 0
 414.858398438 0 349.706054688 65.1494140625 349.706054688 145.8828125 c 0
152.05859375 654.1171875 m 0
 152.05859375 599.321289062 196.083007812 555.293945312 250.8828125 555.293945312 c 0
 305.678710938 555.293945312 349.706054688 599.318359375 349.706054688 654.1171875 c 0
 349.706054688 708.9140625 305.681640625 752.94140625 250.8828125 752.94140625 c 0x3b80
 196.0859375 752.94140625 152.05859375 708.916992188 152.05859375 654.1171875 c 0
105 654.1171875 m 0
 105 734.84765625 170.149414062 800 250.8828125 800 c 0
 331.612304688 800 396.764648438 734.850585938 396.764648438 654.1171875 c 0
 396.764648438 573.387695312 331.615234375 508.235351562 250.8828125 508.235351562 c 0
 170.15234375 508.235351562 105 573.384765625 105 654.1171875 c 0
630.764648438 796.198242188 m 0
 637.629882812 791.736328125 641.392578125 784.07421875 641.392578125 776.3203125 c 0
 641.392578125 771.938476562 640.19140625 767.52734375 637.668945312 763.647460938 c 2
 148.2578125 10.7060546875 l 2
 143.794921875 3.8408203125 136.1328125 0.078125 128.37890625 0.078125 c 0
 123.997070312 0.078125 119.5859375 1.279296875 115.706054688 3.8017578125 c 0
 108.840820312 8.263671875 105.078125 15.92578125 105.078125 23.6796875 c 0
 105.078125 28.0615234375 106.279296875 32.47265625 108.801757812 36.3525390625 c 2
 598.212890625 789.293945312 l 2
 602.67578125 796.159179688 610.337890625 799.921875 618.091796875 799.921875 c 0x7780
 622.473632812 799.921875 626.884765625 798.720703125 630.764648438 796.198242188 c 0
EndSplineSet
Validated: 1
EndChar

StartChar: ampersand
Encoding: 38 38 53
Width: 805
VWidth: 23
Flags: W
HStem: -0.941406 47.0586<263.502 427.159> 752.941 47.0586<275.783 414.217>
VStem: 133.235 47.0586<127.712 289.554> 169 47.0586<562.91 694.11> 473.941 47.0586<558.513 694.11>
LayerCount: 2
Back
Fore
SplineSet
593.037109375 222.600585938 m 1xd8
 641.344726562 271.995117188 682.782226562 315.518554688 682.782226562 315.518554688 c 2
 687.345703125 320.311523438 693.591796875 322.728515625 699.84375 322.728515625 c 0
 705.69921875 322.728515625 711.559570312 320.609375 716.047851562 316.334960938 c 0
 720.840820312 311.771484375 723.258789062 305.525390625 723.258789062 299.2734375 c 0
 723.258789062 293.418945312 721.138671875 287.55859375 716.864257812 283.069335938 c 0
 716.822265625 283.025390625 675.732421875 239.868164062 627.6015625 190.639648438 c 1
 721.4453125 103.864257812 l 2
 726.395507812 99.2861328125 728.90625 92.92578125 728.90625 86.5556640625 c 0
 728.90625 80.818359375 726.869140625 75.0732421875 722.74609375 70.61328125 c 0
 718.16796875 65.6630859375 711.80859375 63.1533203125 705.438476562 63.1533203125 c 0
 699.701171875 63.1533203125 693.955078125 65.189453125 689.49609375 69.3125 c 2
 594.587890625 157.073242188 l 1
 544.650390625 106.635742188 500.109375 61.298828125 478.380859375 48.4267578125 c 1
 440.705078125 12.80859375 396.595703125 -0.94140625 342.176757812 -0.94140625 c 0
 226.452148438 -0.94140625 133.235351562 93.4921875 133.235351562 208.94140625 c 0xe8
 133.235351562 265.6953125 155.279296875 326.814453125 209.545898438 368.057617188 c 2
 297.333984375 431.939453125 l 1
 239.61328125 485.3125 l 2
 204.901367188 517.411132812 169 571.060546875 169 624 c 0
 169 720.67578125 247.228515625 800 345 800 c 0
 442.771484375 800 521 720.67578125 521 624 c 0
 521 572.638671875 489.768554688 513.85546875 448.268554688 483.572265625 c 2
 371.345703125 427.596679688 l 1
 593.037109375 222.600585938 l 1xd8
336.123046875 460.166015625 m 1
 420.567382812 521.61328125 l 2
 448.692382812 542.137695312 473.94140625 590.658203125 473.94140625 624 c 0
 473.94140625 694.853515625 416.640625 752.94140625 345 752.94140625 c 0
 273.359375 752.94140625 216.05859375 694.853515625 216.05859375 624 c 0xd8
 216.05859375 592.233398438 243.18359375 546.106445312 271.563476562 519.86328125 c 2
 336.123046875 460.166015625 l 1
332.555664062 399.370117188 m 1
 237.598632812 330.272460938 l 2
 196.993164062 299.040039062 180.293945312 253.765625 180.293945312 208.94140625 c 0xe8
 180.293945312 119.213867188 252.723632812 46.1171875 342.176757812 46.1171875 c 0
 390.17578125 46.1171875 418.866210938 55.8427734375 448.026367188 84.5361328125 c 0
 450.016601562 86.494140625 452.831054688 88.2900390625 454.96875 89.265625 c 0
 464.913085938 95.7548828125 513.384765625 141.983398438 560.015625 189.041015625 c 1
 332.555664062 399.370117188 l 1
EndSplineSet
Validated: 1
EndChar

StartChar: semicolon
Encoding: 59 59 54
Width: 257
VWidth: 23
Flags: W
HStem: 408.471 47.0586<105.069 151.99>
VStem: 102.177 47.0586<-142.047 46.9889 408.949 455.051>
LayerCount: 2
Back
Fore
SplineSet
105 432 m 0
 105 444.98828125 115.541015625 455.529296875 128.529296875 455.529296875 c 0
 141.517578125 455.529296875 152.05859375 444.98828125 152.05859375 432 c 0
 152.05859375 419.01171875 141.517578125 408.470703125 128.529296875 408.470703125 c 0
 115.541015625 408.470703125 105 419.01171875 105 432 c 0
125.706054688 -142.1171875 m 0
 112.889648438 -142.1171875 102.176757812 -131.404296875 102.176757812 -118.587890625 c 2
 102.176757812 23.529296875 l 2
 102.176757812 36.345703125 112.889648438 47.05859375 125.706054688 47.05859375 c 0
 138.522460938 47.05859375 149.235351562 36.345703125 149.235351562 23.529296875 c 2
 149.235351562 -118.587890625 l 2
 149.235351562 -131.404296875 138.522460938 -142.1171875 125.706054688 -142.1171875 c 0
EndSplineSet
Validated: 1
EndChar

StartChar: at
Encoding: 64 64 55
Width: 1009
VWidth: 23
Flags: W
HStem: 0.335938 47.0596<386.878 625.354> 205.205 47.0586<704.385 813.484> 216.104 47.0596<433.598 568.027> 535.517 47.0586<440.187 574.083> 752.794 47.0586<386.824 622.946>
VStem: 105 47.0586<281.97 517.993> 330.819 47.0586<320.758 470.693> 629.795 47.0586<328.157 478.349> 858.271 47.0586<296.63 517.086>
LayerCount: 2
Back
Fore
SplineSet
475.685546875 265.782226562 m 0xbf80
 483.87109375 264.010742188 492.020507812 263.163085938 500.08203125 263.163085938 c 0
 557.625 263.163085938 612.55859375 307.12109375 626.526367188 373.265625 c 0
 626.543945312 373.350585938 626.5625 373.435546875 626.580078125 373.520507812 c 0
 628.758789062 383.92578125 629.794921875 394.212890625 629.794921875 404.26171875 c 0
 629.794921875 467.302734375 589.403320312 520.431640625 531.987304688 532.861328125 c 0
 523.693359375 534.658203125 515.442382812 535.516601562 507.278320312 535.516601562 c 0
 449.659179688 535.516601562 394.94140625 492.046875 381.096679688 425.969726562 c 0
 378.916015625 415.563476562 377.877929688 405.25390625 377.877929688 395.16796875 c 0
 377.877929688 331.859375 418.401367188 278.184570312 475.685546875 265.782226562 c 0xbf80
465.728515625 219.7890625 m 0
 384.495117188 237.375976562 330.819335938 312.174804688 330.819335938 395.16796875 c 0
 330.819335938 408.486328125 332.192382812 422.0390625 335.038085938 435.620117188 c 0
 353.12890625 521.963867188 425.754882812 582.575195312 507.278320312 582.575195312 c 0
 518.75 582.575195312 530.369140625 581.362304688 541.944335938 578.85546875 c 0
 623.046875 561.297851562 676.853515625 487.184570312 676.853515625 404.26171875 c 0
 676.853515625 390.965820312 675.479492188 377.4296875 672.634765625 363.852539062 c 0
 672.616210938 363.763671875 672.59765625 363.67578125 672.579101562 363.587890625 c 0
 671.044921875 356.25 670.319335938 349.001953125 670.319335938 341.967773438 c 0
 670.319335938 305.353515625 706.21484375 260.818359375 739.38671875 253.631835938 c 0
 743.665039062 252.705078125 747.899414062 252.263671875 752.112304688 252.263671875 c 0
 790.609375 252.263671875 841.180664062 281.341796875 850.765625 326.713867188 c 0
 855.826171875 351 858.270507812 375.331054688 858.270507812 399.216796875 c 0
 858.270507812 562.647460938 744.350585938 709.575195312 578.069335938 744.986328125 c 0
 553.287109375 750.264648438 528.602539062 752.793945312 504.297851562 752.793945312 c 0
 341.438476562 752.793945312 195.189453125 639.080078125 159.866210938 473.216796875 c 0
 154.588867188 448.434570312 152.05859375 423.748046875 152.05859375 399.444335938 c 0
 152.05859375 236.588867188 265.80859375 90.328125 431.59375 55.0224609375 c 0
 456.161132812 49.8857421875 480.815429688 47.3955078125 504.989257812 47.3955078125 c 0
 560.65625 47.3955078125 614.413085938 60.5126953125 662.631835938 84.4970703125 c 0
 665.915039062 86.130859375 669.435546875 86.9013671875 672.920898438 86.9013671875 c 0
 681.618164062 86.9013671875 690.103515625 82.1005859375 694.178710938 73.9091796875 c 0
 695.811523438 70.6259765625 696.583007812 67.1064453125 696.583007812 63.6201171875 c 0
 696.583007812 54.923828125 691.782226562 46.4375 683.58984375 42.36328125 c 0
 629.01171875 15.2158203125 568.069335938 0.3359375 504.989257812 0.3359375 c 0
 477.572265625 0.3359375 449.759765625 3.1474609375 421.919921875 8.96875 c 0
 233.836914062 49.0234375 105 214.684570312 105 399.444335938 c 0
 105 427.016601562 107.874023438 455.002929688 113.83984375 483.018554688 c 0
 153.861328125 670.9453125 319.54296875 799.852539062 504.297851562 799.852539062 c 0
 531.870117188 799.852539062 559.856445312 796.979492188 587.872070312 791.013671875 c 0
 776.2890625 750.887695312 905.329101562 584.473632812 905.329101562 399.216796875 c 0
 905.329101562 372.112304688 902.564453125 344.612304688 896.829101562 317.083007812 c 0
 881.283203125 243.499023438 808.197265625 205.205078125 752.112304688 205.205078125 c 0xdf80
 744.590820312 205.205078125 736.987304688 206.000976562 729.42578125 207.638671875 c 0
 690.17578125 216.142578125 655.181640625 247.509765625 636.827148438 285.58203125 c 1
 603.854492188 242.727539062 553.940429688 216.103515625 500.08203125 216.103515625 c 0
 488.7109375 216.103515625 477.202148438 217.305664062 465.728515625 219.7890625 c 0
EndSplineSet
Validated: 1
EndChar

StartChar: equal
Encoding: 61 61 56
Width: 504
VWidth: 23
Flags: W
HStem: 208.941 47.0586<105.07 399.518> 408.471 47.0586<105.07 399.518>
VStem: 105 294.588<209.011 255.93 408.54 455.46>
LayerCount: 2
Back
Fore
SplineSet
399.587890625 232.470703125 m 0
 399.587890625 219.654296875 388.875 208.94140625 376.05859375 208.94140625 c 2
 128.529296875 208.94140625 l 2
 115.712890625 208.94140625 105 219.654296875 105 232.470703125 c 0
 105 245.287109375 115.712890625 256 128.529296875 256 c 2
 376.05859375 256 l 2
 388.875 256 399.587890625 245.287109375 399.587890625 232.470703125 c 0
399.587890625 432 m 0
 399.587890625 419.18359375 388.875 408.470703125 376.05859375 408.470703125 c 2
 128.529296875 408.470703125 l 2
 115.712890625 408.470703125 105 419.18359375 105 432 c 0
 105 444.81640625 115.712890625 455.529296875 128.529296875 455.529296875 c 2
 376.05859375 455.529296875 l 2
 388.875 455.529296875 399.587890625 444.81640625 399.587890625 432 c 0
EndSplineSet
Validated: 1
EndChar

StartChar: less
Encoding: 60 60 57
Width: 497
VWidth: 23
Flags: W
VStem: 103.543 289.365
LayerCount: 2
Back
Fore
SplineSet
387.384765625 6.3916015625 m 0
 382.786132812 0.9921875 376.107421875 -1.7900390625 369.40625 -1.7900390625 c 0
 363.997070312 -1.7900390625 358.573242188 0.0224609375 354.215820312 3.732421875 c 2
 113.274414062 208.909179688 l 2
 109.927734375 211.759765625 103.54296875 218.59375 103.54296875 227.177734375 c 0
 103.54296875 232.53125 106.025390625 238.564453125 113.274414062 244.737304688 c 2
 354.215820312 449.9140625 l 2
 358.573242188 453.625 363.997070312 455.4375 369.40625 455.4375 c 0
 376.107421875 455.4375 382.786132812 452.655273438 387.384765625 447.254882812 c 0
 391.095703125 442.897460938 392.908203125 437.473632812 392.908203125 432.064453125 c 0
 392.908203125 425.362304688 390.125 418.684570312 384.725585938 414.0859375 c 2
 164.821289062 226.823242188 l 1
 384.725585938 39.5615234375 l 2
 390.125 34.962890625 392.908203125 28.2841796875 392.908203125 21.58203125 c 0
 392.908203125 16.173828125 391.095703125 10.75 387.384765625 6.3916015625 c 0
EndSplineSet
Validated: 1
EndChar

StartChar: greater
Encoding: 62 62 58
Width: 497
VWidth: 23
Flags: W
VStem: 105.092 289.365
LayerCount: 2
Back
Fore
SplineSet
110.615234375 6.3916015625 m 0
 106.904296875 10.75 105.091796875 16.173828125 105.091796875 21.58203125 c 0
 105.091796875 28.2841796875 107.875 34.962890625 113.274414062 39.5615234375 c 2
 333.178710938 226.823242188 l 1
 113.274414062 414.0859375 l 2
 107.875 418.684570312 105.091796875 425.362304688 105.091796875 432.064453125 c 0
 105.091796875 437.473632812 106.904296875 442.897460938 110.615234375 447.254882812 c 0
 115.213867188 452.655273438 121.892578125 455.4375 128.59375 455.4375 c 0
 134.002929688 455.4375 139.426757812 453.625 143.784179688 449.9140625 c 2
 384.725585938 244.737304688 l 2
 391.974609375 238.564453125 394.45703125 232.53125 394.45703125 227.177734375 c 0
 394.45703125 218.59375 388.072265625 211.759765625 384.725585938 208.909179688 c 2
 143.784179688 3.732421875 l 2
 139.426757812 0.0224609375 134.002929688 -1.7900390625 128.59375 -1.7900390625 c 0
 121.892578125 -1.7900390625 115.213867188 0.9921875 110.615234375 6.3916015625 c 0
EndSplineSet
Validated: 1
EndChar

StartChar: bracketleft
Encoding: 91 91 59
Width: 325
VWidth: 23
Flags: W
HStem: 0 47.0586<152.088 219.754> 752.941 47.0586<152.971 220.695>
VStem: 105 114.823<0.0697305 46.9889 752.949 799.808> 105 47.0879<47.0586 752.941>
LayerCount: 2
Back
Fore
SplineSet
219.823242188 23.529296875 m 0xe0
 219.823242188 10.712890625 209.110351562 0 196.293945312 0 c 2
 128.529296875 0 l 2
 115.725585938 0 104.984375 10.6884765625 105 23.55859375 c 2xe0
 105.94140625 776.5 l 2
 105.958007812 789.876953125 117.737304688 800 129.470703125 800 c 2
 197.235351562 800 l 2
 210.051757812 800 220.764648438 789.287109375 220.764648438 776.470703125 c 0
 220.764648438 763.654296875 210.051757812 752.94140625 197.235351562 752.94140625 c 2
 152.970703125 752.94140625 l 1
 152.087890625 47.05859375 l 1xd0
 196.293945312 47.05859375 l 2
 209.110351562 47.05859375 219.823242188 36.345703125 219.823242188 23.529296875 c 0xe0
EndSplineSet
Validated: 33
EndChar

StartChar: backslash
Encoding: 92 92 60
Width: 497
VWidth: 23
Flags: W
HStem: 0.0292969 21G<364.663 370.811> 0.0292969 21G<364.663 370.811> 779.971 20G<127.189 133.337> 779.971 20G<127.189 133.337>
VStem: 105.029 287.941
LayerCount: 2
Back
Fore
SplineSet
121.358398438 798.880859375 m 0xa8
 123.668945312 799.620117188 126.025390625 799.970703125 128.352539062 799.970703125 c 0
 138.321289062 799.970703125 147.772460938 793.537109375 150.939453125 783.641601562 c 2
 391.880859375 30.7001953125 l 2
 392.620117188 28.3896484375 392.970703125 26.0341796875 392.970703125 23.7060546875 c 0
 392.970703125 13.7373046875 386.537109375 4.2861328125 376.641601562 1.119140625 c 0
 374.331054688 0.3798828125 371.974609375 0.029296875 369.647460938 0.029296875 c 0
 359.678710938 0.029296875 350.227539062 6.462890625 347.060546875 16.3583984375 c 2
 106.119140625 769.299804688 l 2
 105.379882812 771.610351562 105.029296875 773.965820312 105.029296875 776.293945312 c 0
 105.029296875 786.262695312 111.462890625 795.713867188 121.358398438 798.880859375 c 0xa8
EndSplineSet
Validated: 1
EndChar

StartChar: bracketright
Encoding: 93 93 61
Width: 325
VWidth: 23
Flags: W
HStem: 0 47.0586<106.011 173.677> 752.941 47.0586<105.07 172.794>
VStem: 105.941 114.823<0.0697305 46.9889 752.949 799.808> 173.677 47.0879<47.0586 752.941>
LayerCount: 2
Back
Fore
SplineSet
105.94140625 23.529296875 m 0xe0
 105.94140625 36.345703125 116.654296875 47.05859375 129.470703125 47.05859375 c 2
 173.676757812 47.05859375 l 1xd0
 172.793945312 752.94140625 l 1
 128.529296875 752.94140625 l 2
 115.712890625 752.94140625 105 763.654296875 105 776.470703125 c 0
 105 789.287109375 115.712890625 800 128.529296875 800 c 2
 196.293945312 800 l 2
 208.02734375 800 219.806640625 789.876953125 219.823242188 776.5 c 2
 220.764648438 23.55859375 l 2
 220.78125 10.6884765625 210.0390625 0 197.235351562 0 c 2
 129.470703125 0 l 2
 116.654296875 0 105.94140625 10.712890625 105.94140625 23.529296875 c 0xe0
EndSplineSet
Validated: 33
EndChar

StartChar: asciicircum
Encoding: 94 94 62
Width: 545
VWidth: 23
Flags: W
LayerCount: 2
Back
Fore
SplineSet
109.252929688 823.212890625 m 0
 106.43359375 827.241210938 105.083007812 831.921875 105.083007812 836.57421875 c 0
 105.083007812 844.047851562 108.565429688 851.452148438 115.036132812 855.982421875 c 2
 259.036132812 956.78125 l 2
 267.0546875 962.39453125 278.022460938 962.381835938 286.022460938 956.78125 c 2
 430.022460938 855.982421875 l 2
 436.493164062 851.452148438 439.975585938 844.047851562 439.975585938 836.57421875 c 0
 439.975585938 831.921875 438.625976562 827.241210938 435.805664062 823.212890625 c 0
 431.276367188 816.7421875 423.87109375 813.259765625 416.3984375 813.259765625 c 0
 411.745117188 813.259765625 407.065429688 814.609375 403.036132812 817.4296875 c 2
 272.529296875 908.784179688 l 1
 142.022460938 817.4296875 l 2
 137.994140625 814.609375 133.313476562 813.259765625 128.66015625 813.259765625 c 0
 121.1875 813.259765625 113.782226562 816.7421875 109.252929688 823.212890625 c 0
EndSplineSet
Validated: 1
EndChar

StartChar: a
Encoding: 97 97 63
Width: 630
VWidth: 23
Flags: W
HStem: 0.0332031 21G<51.7944 57.9307 572.783 578.918> 0.0332031 21G<51.7944 57.9307 572.783 578.918> 256 47.0586<175.281 454.986>
VStem: 29.7393 45.7217<1.46484 15.8057> 555.258 45.708<1.47807 73.6096>
LayerCount: 2
Back
Fore
SplineSet
175.28125 303.05859375 m 1x38
 454.986328125 303.05859375 l 1
 398.861328125 463.970703125 344.280273438 620.586914062 314.911132812 704.872070312 c 1
 175.28125 303.05859375 l 1x38
585.23046875 1.31640625 m 0
 582.739257812 0.4462890625 580.181640625 0.0341796875 577.655273438 0.0341796875 c 0
 567.91015625 0.0341796875 558.614257812 6.162109375 555.2578125 15.76953125 c 0
 529.7421875 88.8056640625 500.674804688 172.086914062 471.40234375 256 c 1
 158.928710938 256 l 1
 75.4609375 15.8056640625 l 2
 72.1162109375 6.1806640625 62.8095703125 0.033203125 53.0517578125 0.033203125 c 0xb8
 50.537109375 0.033203125 47.9921875 0.44140625 45.51171875 1.3037109375 c 0
 35.8857421875 4.6484375 29.7392578125 13.955078125 29.7392578125 23.712890625 c 0
 29.7392578125 26.2275390625 30.1474609375 28.7724609375 31.009765625 31.2529296875 c 2
 292.65625 784.194335938 l 2
 293.852539062 787.635742188 295.810546875 790.631835938 298.278320312 793.061523438 c 0
 300.706054688 795.532226562 303.701171875 797.4921875 307.141601562 798.690429688 c 0
 309.685546875 799.576171875 312.295898438 799.985351562 314.874023438 799.965820312 c 0
 317.451171875 799.987304688 320.0625 799.580078125 322.60546875 798.696289062 c 0
 326.046875 797.5 329.043945312 795.54296875 331.473632812 793.07421875 c 0
 333.943359375 790.646484375 335.903320312 787.651367188 337.102539062 784.2109375 c 2
 337.102539062 784.2109375 497.100585938 324.921875 599.68359375 31.2900390625 c 0
 600.553710938 28.7978515625 600.965820312 26.2412109375 600.965820312 23.7138671875 c 0
 600.965820312 13.9697265625 594.837890625 4.6728515625 585.23046875 1.31640625 c 0
EndSplineSet
Validated: 1
EndChar

StartChar: b
Encoding: 98 98 64
Width: 652
VWidth: 23
Flags: W
HStem: 0.941406 46.9609<152.053 445.765> 451.765 47.0586<152.053 351.135> 752.941 47.0586<152.053 347.396>
VStem: 104.993 47.0596<47.9023 451.765 498.823 752.941> 406.18 47.0596<555.324 694.914> 556.765 47.0596<159.425 339.215>
LayerCount: 2
Back
Fore
SplineSet
152.052734375 498.823242188 m 1
 294.67578125 498.823242188 l 2
 307.713867188 500.443359375 320.193359375 504.014648438 331.59765625 509.211914062 c 0
 375.478515625 529.2109375 406.1796875 573.46875 406.1796875 625.731445312 c 0
 406.1796875 695.630859375 349.196289062 752.154296875 279.918945312 752.94140625 c 2
 152.052734375 752.94140625 l 1
 152.052734375 498.823242188 l 1
297.311523438 451.764648438 m 2
 291.321289062 451.157226562 285.099609375 450.823242188 279.111328125 450.823242188 c 0
 277.139648438 450.823242188 274.643554688 451.20703125 272.47265625 451.764648438 c 2
 152.052734375 451.764648438 l 1
 152.052734375 47.90234375 l 1
 354.454101562 47.05859375 l 2
 466.052734375 47.05859375 556.764648438 136.888671875 556.764648438 249.295898438 c 0
 556.764648438 360.822265625 467.681640625 450.926757812 356.19921875 451.764648438 c 2
 297.311523438 451.764648438 l 2
395.458007812 495.513671875 m 1
 514.192382812 475.89453125 603.82421875 373.1171875 603.82421875 249.296875 c 0
 603.82421875 110.784179688 491.975585938 0 354.356445312 0 c 2
 128.424804688 0.94140625 l 2
 115.022460938 0.9970703125 104.993164062 12.86328125 104.993164062 24.470703125 c 2
 104.993164062 776.470703125 l 2
 104.993164062 790.712890625 118.423828125 800 128.5234375 800 c 2
 280.186523438 800 l 2
 375.405273438 798.91796875 453.239257812 721.774414062 453.239257812 625.754882812 c 0
 453.239257812 573.84375 430.725585938 527.6015625 395.458007812 495.513671875 c 1
EndSplineSet
Validated: 1
EndChar

StartChar: c
Encoding: 99 99 65
Width: 715
VWidth: 23
Flags: W
HStem: 0 47.0586<305.488 519.902> 752.941 47.0586<305.488 519.902>
VStem: 86.1768 47.0586<220.434 579.566>
LayerCount: 2
Back
Fore
SplineSet
641.166992188 128.637695312 m 0
 645.698242188 124.106445312 647.963867188 118.053710938 647.963867188 112 c 0
 647.963867188 105.946289062 645.698242188 99.8935546875 641.166992188 95.3623046875 c 0
 582.465820312 36.66015625 502.073242188 0 411.823242188 0 c 0
 232.328125 0 86.1767578125 145.041015625 86.1767578125 324.706054688 c 2
 86.1767578125 475.293945312 l 2
 86.1767578125 654.958984375 232.328125 800 411.823242188 800 c 0
 502.073242188 800 582.465820312 763.33984375 641.166992188 704.637695312 c 0
 645.698242188 700.106445312 647.963867188 694.053710938 647.963867188 688 c 0
 647.963867188 681.946289062 645.698242188 675.893554688 641.166992188 671.362304688 c 0
 636.635742188 666.831054688 630.583007812 664.565429688 624.529296875 664.565429688 c 0
 618.4765625 664.565429688 612.422851562 666.831054688 607.891601562 671.362304688 c 0
 557.416992188 721.836914062 489.103515625 752.94140625 411.823242188 752.94140625 c 0
 258.142578125 752.94140625 133.235351562 628.806640625 133.235351562 475.293945312 c 2
 133.235351562 324.706054688 l 2
 133.235351562 171.194335938 258.142578125 47.05859375 411.823242188 47.05859375 c 0
 489.103515625 47.05859375 557.416992188 78.1630859375 607.891601562 128.637695312 c 0
 612.422851562 133.168945312 618.4765625 135.434570312 624.529296875 135.434570312 c 0
 630.583007812 135.434570312 636.635742188 133.168945312 641.166992188 128.637695312 c 0
EndSplineSet
Validated: 1
EndChar

StartChar: d
Encoding: 100 100 66
Width: 783
VWidth: 23
Flags: W
HStem: 0 47.0586<152.059 433.816> 752.941 47.0586<152.059 434.887>
VStem: 105 47.0586<47.0586 752.941> 668.757 47.0742<280.205 519.795>
LayerCount: 2
Back
Fore
SplineSet
152.05859375 47.05859375 m 1
 315.823242188 47.05859375 l 2
 404.916992188 47.05859375 496.784179688 81.5302734375 565.5390625 150.28515625 c 0
 634.350585938 219.09765625 668.756835938 309.548828125 668.756835938 400 c 0
 668.756835938 490.451171875 634.350585938 580.90234375 565.5390625 649.71484375 c 0
 496.668945312 718.584960938 406.784179688 752.94140625 316.764648438 752.94140625 c 2
 152.05859375 752.94140625 l 1
 152.05859375 47.05859375 l 1
105 23.529296875 m 2
 105 776.470703125 l 2
 105 790.712890625 118.430664062 800 128.529296875 800 c 2
 316.764648438 800 l 2
 418.745117188 800 520.860351562 760.944335938 598.814453125 682.991210938 c 0
 676.825195312 604.979492188 715.831054688 502.490234375 715.831054688 400 c 0
 715.831054688 297.509765625 676.825195312 195.020507812 598.814453125 117.008789062 c 0
 520.745117188 38.9404296875 416.84765625 0 315.823242188 0 c 2
 128.529296875 0 l 2
 114.287109375 0 105 13.4306640625 105 23.529296875 c 2
EndSplineSet
Validated: 1
EndChar

StartChar: e
Encoding: 101 101 67
Width: 624
VWidth: 23
Flags: W
HStem: 0 47.0586<152.059 566.107> 376.471 47.0586<152.059 490.813> 752.941 47.0586<152.059 566.107>
VStem: 105 47.0586<47.0586 376.471 423.529 752.941>
CounterMasks: 1 e0
LayerCount: 2
Back
Fore
SplineSet
566.176757812 776.470703125 m 0
 566.176757812 763.654296875 555.462890625 752.94140625 542.647460938 752.94140625 c 2
 152.05859375 752.94140625 l 1
 152.05859375 423.529296875 l 1
 467.352539062 423.529296875 l 2
 480.168945312 423.529296875 490.8828125 412.81640625 490.8828125 400 c 0
 490.8828125 387.18359375 480.168945312 376.470703125 467.352539062 376.470703125 c 2
 152.05859375 376.470703125 l 1
 152.05859375 47.05859375 l 1
 542.647460938 47.05859375 l 2
 555.462890625 47.05859375 566.176757812 36.345703125 566.176757812 23.529296875 c 0
 566.176757812 10.712890625 555.462890625 0 542.647460938 0 c 2
 128.529296875 0 l 2
 118.430664062 0 105 9.287109375 105 23.529296875 c 2
 105 400 l 1
 105 776.470703125 l 2
 105 786.569335938 114.287109375 800 128.529296875 800 c 2
 542.647460938 800 l 2
 555.462890625 800 566.176757812 789.287109375 566.176757812 776.470703125 c 0
EndSplineSet
Validated: 1
EndChar

StartChar: f
Encoding: 102 102 68
Width: 577
VWidth: 23
Flags: W
HStem: 0 21G<122.121 134.938> 0 21G<122.121 134.938> 376.471 47.0586<152.059 490.813> 752.941 47.0586<152.059 566.107>
VStem: 105 47.0586<0.0697305 376.471 423.529 752.941>
LayerCount: 2
Back
Fore
SplineSet
566.176757812 776.470703125 m 0xb8
 566.176757812 763.654296875 555.462890625 752.94140625 542.647460938 752.94140625 c 2
 152.05859375 752.94140625 l 1
 152.05859375 423.529296875 l 1
 467.352539062 423.529296875 l 2
 480.168945312 423.529296875 490.8828125 412.81640625 490.8828125 400 c 0
 490.8828125 387.18359375 480.168945312 376.470703125 467.352539062 376.470703125 c 2
 152.05859375 376.470703125 l 1
 152.05859375 23.529296875 l 2
 152.05859375 10.712890625 141.345703125 0 128.529296875 0 c 0
 115.712890625 0 105 10.712890625 105 23.529296875 c 2
 105 400 l 1
 105 776.470703125 l 2
 105 786.569335938 114.287109375 800 128.529296875 800 c 2
 542.647460938 800 l 2
 555.462890625 800 566.176757812 789.287109375 566.176757812 776.470703125 c 0xb8
EndSplineSet
Validated: 1
EndChar

StartChar: g
Encoding: 103 103 69
Width: 843
VWidth: 23
Flags: W
HStem: 0 47.0586<347.757 589.231> 352.941 47.0586<502.246 710.177> 752.941 47.0586<347.179 588.321>
VStem: 67.3525 47.0596<280.404 519.596> 710.177 47.0586<126.288 352.941>
LayerCount: 2
Back
Fore
SplineSet
502.176757812 376.470703125 m 0
 502.176757812 389.287109375 512.889648438 400 525.706054688 400 c 2
 733.706054688 400 l 2
 747.948242188 400 757.235351562 386.569335938 757.235351562 376.470703125 c 2
 757.235351562 133.647460938 l 2
 757.235351562 127.2890625 754.008789062 120.673828125 750.34375 117.008789062 c 0
 672.327148438 38.9931640625 569.302734375 0 467.352539062 0 c 0
 365.403320312 0 262.37890625 38.9931640625 184.362304688 117.008789062 c 0
 106.345703125 195.025390625 67.3525390625 298.05078125 67.3525390625 400 c 0
 67.3525390625 501.94921875 106.345703125 604.974609375 184.362304688 682.991210938 c 0
 262.31640625 760.944335938 364.431640625 800 466.412109375 800 c 0
 568.197265625 800 671.293945312 762.041015625 749.40234375 683.931640625 c 0
 753.93359375 679.400390625 756.19921875 673.34765625 756.19921875 667.293945312 c 0
 756.19921875 661.241210938 753.93359375 655.1875 749.40234375 650.65625 c 0
 744.87109375 646.125 738.818359375 643.859375 732.764648438 643.859375 c 0
 726.7109375 643.859375 720.658203125 646.125 716.126953125 650.65625 c 0
 647.412109375 719.37109375 556.626953125 752.94140625 466.412109375 752.94140625 c 0
 376.392578125 752.94140625 286.5078125 718.584960938 217.637695312 649.71484375 c 0
 148.830078125 580.908203125 114.412109375 490.05078125 114.412109375 400 c 0
 114.412109375 309.94921875 148.830078125 219.091796875 217.637695312 150.28515625 c 0
 286.4453125 81.4775390625 377.302734375 47.05859375 467.352539062 47.05859375 c 0
 554.426757812 47.05859375 641.983398438 79.056640625 710.176757812 143.577148438 c 1
 710.176757812 352.94140625 l 1
 525.706054688 352.94140625 l 2
 512.889648438 352.94140625 502.176757812 363.654296875 502.176757812 376.470703125 c 0
EndSplineSet
Validated: 1
EndChar

StartChar: h
Encoding: 104 104 70
Width: 708
VWidth: 23
Flags: W
HStem: 0 21G<122.121 134.938 573.886 586.702> 0 21G<122.121 134.938 573.886 586.702> 376.471 47.0586<152.059 556.765> 780 20G<122.121 134.938 573.886 586.702> 780 20G<122.121 134.938 573.886 586.702>
VStem: 105 47.0586<0.0697305 376.471 423.529 799.93> 556.765 47.0586<0.0697305 376.471 423.529 799.93>
LayerCount: 2
Back
Fore
SplineSet
128.529296875 0 m 0xb6
 115.712890625 0 105 10.712890625 105 23.529296875 c 2
 105 400 l 1
 105 776.470703125 l 2
 105 789.287109375 115.712890625 800 128.529296875 800 c 0
 141.345703125 800 152.05859375 789.287109375 152.05859375 776.470703125 c 2
 152.05859375 423.529296875 l 1
 556.764648438 423.529296875 l 1
 556.764648438 776.470703125 l 2
 556.764648438 789.287109375 567.477539062 800 580.293945312 800 c 0
 593.110351562 800 603.823242188 789.287109375 603.823242188 776.470703125 c 2
 603.823242188 23.529296875 l 2
 603.823242188 10.712890625 593.110351562 0 580.293945312 0 c 0
 567.477539062 0 556.764648438 10.712890625 556.764648438 23.529296875 c 2
 556.764648438 376.470703125 l 1
 152.05859375 376.470703125 l 1
 152.05859375 23.529296875 l 2
 152.05859375 10.712890625 141.345703125 0 128.529296875 0 c 0xb6
EndSplineSet
Validated: 1
EndChar

StartChar: i
Encoding: 105 105 71
Width: 279
VWidth: 23
Flags: W
HStem: 0 21G<133.416 146.231> 0 21G<133.416 146.231> 780 20G<133.416 146.231> 780 20G<133.416 146.231>
VStem: 116.294 47.0586<0.0697305 799.93>
LayerCount: 2
Back
Fore
SplineSet
139.823242188 800 m 0xa8
 152.639648438 800 163.352539062 789.287109375 163.352539062 776.470703125 c 2
 163.352539062 23.529296875 l 2
 163.352539062 10.712890625 152.639648438 0 139.823242188 0 c 0
 127.0078125 0 116.293945312 10.712890625 116.293945312 23.529296875 c 2
 116.293945312 776.470703125 l 2
 116.293945312 789.287109375 127.0078125 800 139.823242188 800 c 0xa8
EndSplineSet
Validated: 1
EndChar

StartChar: j
Encoding: 106 106 72
Width: 455
VWidth: 23
Flags: W
HStem: 0 47.0586<121.89 263.986> 780 20G<339.533 352.349> 780 20G<339.533 352.349>
VStem: 322.412 47.0586<107.307 799.93>
LayerCount: 2
Back
Fore
SplineSet
44.1044921875 136.508789062 m 0xd0
 47.0048828125 137.73046875 50.0400390625 138.306640625 53.041015625 138.306640625 c 0
 62.26171875 138.306640625 71.1689453125 132.865234375 74.9208984375 123.954101562 c 0
 81.20703125 109.024414062 90.1396484375 96.2509765625 102.52734375 84.689453125 c 0
 126.043945312 61.1728515625 158.372070312 47.05859375 193.470703125 47.05859375 c 0
 265.239257812 47.05859375 322.412109375 104.23046875 322.412109375 176 c 2
 322.412109375 776.470703125 l 2
 322.412109375 789.287109375 333.125 800 345.94140625 800 c 0
 358.756835938 800 369.470703125 789.287109375 369.470703125 776.470703125 c 2
 369.470703125 176 l 2
 369.470703125 78.357421875 291.11328125 0 193.470703125 0 c 0
 145.815429688 0 102.288085938 18.7666015625 69.833984375 50.830078125 c 0
 54.025390625 65.783203125 40.3564453125 84.77734375 31.5498046875 105.692382812 c 0
 30.328125 108.59375 29.751953125 111.627929688 29.751953125 114.629882812 c 0
 29.751953125 123.849609375 35.193359375 132.756835938 44.1044921875 136.508789062 c 0xd0
EndSplineSet
Validated: 1
EndChar

StartChar: k
Encoding: 107 107 73
Width: 633
VWidth: 23
Flags: W
HStem: 0 21G<122.121 134.938 558.46 564.513> 0 21G<122.121 134.938 558.46 564.513> 780 20G<122.121 134.938 558.46 564.513> 780 20G<122.121 134.938 558.46 564.513>
VStem: 105 47.0586<0.0697305 799.93>
LayerCount: 2
Back
Fore
SplineSet
128.529296875 800 m 0xa8
 141.345703125 800 152.05859375 789.287109375 152.05859375 776.470703125 c 2
 152.05859375 23.529296875 l 2
 152.05859375 10.712890625 141.345703125 0 128.529296875 0 c 0
 115.712890625 0 105 10.712890625 105 23.529296875 c 2
 105 776.470703125 l 2
 105 789.287109375 115.712890625 800 128.529296875 800 c 0xa8
578.19140625 793.025390625 m 0
 582.669921875 788.501953125 584.905273438 782.487304688 584.905273438 776.474609375 c 0
 584.905273438 770.380859375 582.609375 764.2890625 578.025390625 759.75 c 2
 214.677734375 400 l 1
 578.025390625 40.25 l 2
 582.609375 35.7109375 584.905273438 29.619140625 584.905273438 23.525390625 c 0
 584.905273438 17.5126953125 582.669921875 11.498046875 578.19140625 6.974609375 c 0
 573.65234375 2.390625 567.559570312 0.0947265625 561.466796875 0.0947265625 c 0
 555.453125 0.0947265625 549.439453125 2.330078125 544.916015625 6.80859375 c 2
 164.680664062 383.279296875 l 2
 160.022460938 387.891601562 157.760742188 393.938476562 157.760742188 399.954101562 c 0
 157.760742188 406.092773438 160.115234375 412.201171875 164.680664062 416.720703125 c 2
 544.916015625 793.19140625 l 2
 549.439453125 797.669921875 555.453125 799.905273438 561.466796875 799.905273438 c 0
 567.559570312 799.905273438 573.65234375 797.609375 578.19140625 793.025390625 c 0
EndSplineSet
Validated: 1
EndChar

StartChar: l
Encoding: 108 108 74
Width: 633
VWidth: 23
Flags: W
HStem: 0 47.0586<152.059 603.754> 780 20G<122.121 134.938> 780 20G<122.121 134.938>
VStem: 105 47.0586<47.0586 799.93>
LayerCount: 2
Back
Fore
SplineSet
128.529296875 800 m 0xd0
 141.345703125 800 152.05859375 789.287109375 152.05859375 776.470703125 c 2
 152.05859375 47.05859375 l 1
 580.293945312 47.05859375 l 2
 593.110351562 47.05859375 603.823242188 36.345703125 603.823242188 23.529296875 c 0
 603.823242188 10.712890625 593.110351562 0 580.293945312 0 c 2
 128.529296875 0 l 2
 118.430664062 0 105 9.287109375 105 23.529296875 c 2
 105 776.470703125 l 2
 105 789.287109375 115.712890625 800 128.529296875 800 c 0xd0
EndSplineSet
Validated: 1
EndChar

StartChar: m
Encoding: 109 109 75
Width: 1011
VWidth: 23
Flags: W
HStem: 0 21G<122.121 134.938 876.945 889.761> 0 21G<122.121 134.938 876.945 889.761> 780 20G<122.035 133.192 881.106 884.279> 780 20G<122.035 133.192 881.106 884.279>
VStem: 105 47.0586<0.0697305 677.242 786.694 799.931> 859.823 47.0596<0.0697305 676.799>
LayerCount: 2
Back
Fore
SplineSet
105 776.470703125 m 2xac
 105 789.458984375 115.541015625 800 128.529296875 800 c 0
 137.854492188 800 145.91796875 794.56640625 149.724609375 786.694335938 c 2
 506.830078125 76.0380859375 l 1
 862.307617188 786.993164062 l 2
 864.31640625 791.010742188 867.38671875 794.208984375 871.021484375 796.421875 c 0
 874.626953125 798.68359375 878.860351562 800 883.352539062 800 c 0
 885.206054688 800 887.015625 799.776367188 888.754882812 799.353515625 c 0
 890.499023438 798.953125 892.217773438 798.344726562 893.875976562 797.515625 c 0
 897.893554688 795.506835938 901.091796875 792.436523438 903.3046875 788.801757812 c 0
 905.56640625 785.197265625 906.8828125 780.962890625 906.8828125 776.470703125 c 2
 906.8828125 23.529296875 l 2
 906.8828125 10.712890625 896.168945312 0 883.352539062 0 c 0
 870.537109375 0 859.823242188 10.712890625 859.823242188 23.529296875 c 2
 859.823242188 676.798828125 l 1
 527.927734375 13.0068359375 l 2
 526.774414062 10.701171875 525.272460938 8.6650390625 523.514648438 6.9306640625 c 0
 521.783203125 5.1689453125 519.750976562 3.6630859375 517.447265625 2.5048828125 c 0
 514.087890625 0.8173828125 510.477539062 0.0341796875 506.905273438 0.0595703125 c 0
 503.333984375 0.02734375 499.721679688 0.802734375 496.359375 2.484375 c 0
 494.053710938 3.63671875 492.018554688 5.1396484375 490.284179688 6.8974609375 c 0
 488.522460938 8.6279296875 487.015625 10.6611328125 485.858398438 12.96484375 c 2
 152.05859375 677.2421875 l 1
 152.05859375 23.529296875 l 2
 152.05859375 10.712890625 141.345703125 0 128.529296875 0 c 0
 115.712890625 0 105 10.712890625 105 23.529296875 c 2
 105 776.470703125 l 2xac
EndSplineSet
Validated: 1
EndChar

StartChar: n
Encoding: 110 110 76
Width: 784
VWidth: 23
Flags: W
HStem: 0 21G<122.121 134.938 653.645 656.814> 0 21G<122.121 134.938 653.645 656.814> 780 20G<127.303 130.472 649.18 661.996> 780 20G<127.303 130.472 649.18 661.996>
VStem: 105 47.0586<0.0697305 701.827> 632.059 47.0586<98.1729 799.93>
LayerCount: 2
Back
Fore
SplineSet
655.587890625 800 m 0xac
 668.404296875 800 679.1171875 789.287109375 679.1171875 776.470703125 c 2
 679.1171875 23.529296875 l 2
 679.1171875 19.6435546875 678.1328125 15.951171875 676.403320312 12.6923828125 c 0
 674.724609375 9.40625 672.264648438 6.4814453125 669.081054688 4.2529296875 c 0
 667.072265625 2.84765625 664.90234375 1.806640625 662.653320312 1.1162109375 c 0
 660.416015625 0.392578125 658.040039062 0 655.587890625 0 c 0
 651.702148438 0 648.009765625 0.984375 644.750976562 2.71484375 c 0
 641.46484375 4.392578125 638.540039062 6.8525390625 636.3125 10.0361328125 c 2
 152.05859375 701.827148438 l 1
 152.05859375 23.529296875 l 2
 152.05859375 10.712890625 141.345703125 0 128.529296875 0 c 0
 115.712890625 0 105 10.712890625 105 23.529296875 c 2
 105 776.470703125 l 2
 105 780.356445312 105.984375 784.048828125 107.71484375 787.307617188 c 0
 109.392578125 790.59375 111.852539062 793.518554688 115.036132812 795.747070312 c 0
 117.044921875 797.15234375 119.215820312 798.193359375 121.463867188 798.883789062 c 0
 123.702148438 799.607421875 126.077148438 800 128.529296875 800 c 0
 132.415039062 800 136.107421875 799.015625 139.3671875 797.28515625 c 0
 142.653320312 795.607421875 145.577148438 793.147460938 147.805664062 789.963867188 c 2
 632.05859375 98.1728515625 l 1
 632.05859375 776.470703125 l 2
 632.05859375 789.287109375 642.772460938 800 655.587890625 800 c 0xac
EndSplineSet
Validated: 1
EndChar

StartChar: o
Encoding: 111 111 77
Width: 934
VWidth: 23
Flags: W
HStem: 0 47.0586<347.171 587.535> 752.941 47.0586<347.171 587.535>
VStem: 67.3525 47.0596<279.818 520.182> 820.294 47.0586<279.818 520.182>
LayerCount: 2
Back
Fore
SplineSet
467.352539062 47.05859375 m 0
 662.365234375 47.05859375 820.293945312 204.98828125 820.293945312 400 c 0
 820.293945312 595.01171875 662.365234375 752.94140625 467.352539062 752.94140625 c 0
 272.340820312 752.94140625 114.412109375 595.01171875 114.412109375 400 c 0
 114.412109375 204.98828125 272.340820312 47.05859375 467.352539062 47.05859375 c 0
467.352539062 0 m 0
 246.365234375 0 67.3525390625 179.01171875 67.3525390625 400 c 0
 67.3525390625 620.98828125 246.365234375 800 467.352539062 800 c 0
 688.340820312 800 867.352539062 620.98828125 867.352539062 400 c 0
 867.352539062 179.01171875 688.340820312 0 467.352539062 0 c 0
EndSplineSet
Validated: 1
EndChar

StartChar: p
Encoding: 112 112 78
Width: 650
VWidth: 23
Flags: W
HStem: 0 21G<122.121 134.938> 0 21G<122.121 134.938> 301.177 47.0586<152.059 443.894> 752.941 47.0586<152.059 439.995>
VStem: 105 47.0586<0.0697305 301.177 348.235 752.941> 554.889 47.0596<460.596 641.968>
LayerCount: 2
Back
Fore
SplineSet
152.05859375 301.176757812 m 1xbc
 152.05859375 23.529296875 l 2
 152.05859375 10.712890625 141.345703125 0 128.529296875 0 c 0
 115.712890625 0 105 10.712890625 105 23.529296875 c 2
 105 776.470703125 l 2
 105 786.569335938 114.287109375 800 128.529296875 800 c 2
 354.5 800 l 2
 492.194335938 798.96484375 601.948242188 687.669921875 601.948242188 550.46484375 c 0
 601.948242188 411.956054688 490.05859375 301.176757812 352.529296875 301.176757812 c 2
 152.05859375 301.176757812 l 1xbc
152.05859375 348.235351562 m 1
 352.529296875 348.235351562 l 2
 464.215820312 348.235351562 554.888671875 438.0625 554.888671875 550.458984375 c 0
 554.888671875 661.994140625 465.810546875 752.102539062 354.323242188 752.94140625 c 2
 152.05859375 752.94140625 l 1
 152.05859375 348.235351562 l 1
EndSplineSet
Validated: 1
EndChar

StartChar: q
Encoding: 113 113 79
Width: 938
VWidth: 23
Flags: W
HStem: 0 47.0586<348.85 590.006> 0.0947266 21G<842.679 848.732> 752.941 47.0586<348.85 589.621>
VStem: 67.3525 47.0596<279.821 520.179> 824.059 47.0586<280.719 520.179>
LayerCount: 2
Back
Fore
SplineSet
469.235351562 0 m 0xb8
 248.359375 0 67.3525390625 178.854492188 67.3525390625 400 c 0
 67.3525390625 621.145507812 248.359375 800 469.235351562 800 c 0
 690.111328125 800 871.1171875 621.145507812 871.1171875 400 c 0
 871.1171875 297.663085938 832.356445312 204.3828125 768.819335938 133.69140625 c 1
 862.34375 40.1669921875 l 2
 866.875 35.6357421875 869.140625 29.5830078125 869.140625 23.529296875 c 0
 869.140625 17.4765625 866.875 11.4228515625 862.34375 6.8916015625 c 0
 857.8125 2.3603515625 851.758789062 0.0947265625 845.706054688 0.0947265625 c 0x78
 839.65234375 0.0947265625 833.599609375 2.3603515625 829.068359375 6.8916015625 c 2
 735.37890625 100.580078125 l 1
 664.338867188 37.9814453125 571.020507812 0 469.235351562 0 c 0xb8
608.833007812 260.40234375 m 0
 613.364257812 264.93359375 619.416992188 267.19921875 625.470703125 267.19921875 c 0
 631.5234375 267.19921875 637.577148438 264.93359375 642.108398438 260.40234375 c 2
 735.475585938 167.03515625 l 1
 790.549804688 229.201171875 824.05859375 310.743164062 824.05859375 400 c 0
 824.05859375 594.854492188 664.359375 752.94140625 469.235351562 752.94140625 c 0
 274.111328125 752.94140625 114.412109375 594.854492188 114.412109375 400 c 0
 114.412109375 205.145507812 274.111328125 47.05859375 469.235351562 47.05859375 c 0xb8
 558.0859375 47.05859375 639.591796875 79.837890625 702.018554688 133.94140625 c 1
 608.833007812 227.126953125 l 2
 604.301757812 231.658203125 602.036132812 237.7109375 602.036132812 243.764648438 c 0
 602.036132812 249.818359375 604.301757812 255.87109375 608.833007812 260.40234375 c 0
EndSplineSet
Validated: 1
EndChar

StartChar: r
Encoding: 114 114 80
Width: 595
VWidth: 23
Flags: W
HStem: 0 21G<122.113 134.929 482.026 488.116> 0 21G<122.113 134.929 482.026 488.116> 376.471 47.0586<152.051 282.482> 752.941 47.0586<152.051 396.105>
VStem: 104.992 47.0586<0.0697305 376.471 423.529 752.941> 465.144 44.4951<2.69991 12.9648> 481.471 47.0586<507.577 670.233>
LayerCount: 2
Back
Fore
SplineSet
152.05078125 423.529296875 m 1x3a
 316.756835938 423.529296875 l 2
 407.765625 423.529296875 481.470703125 496.426757812 481.470703125 588.131835938 c 0
 481.470703125 679.133789062 409.249023438 752.94140625 318.638671875 752.94140625 c 2
 152.05078125 752.94140625 l 1
 152.05078125 423.529296875 l 1x3a
152.05078125 376.470703125 m 1
 152.05078125 23.529296875 l 2
 152.05078125 10.712890625 141.336914062 0 128.521484375 0 c 0
 115.705078125 0 104.9921875 10.712890625 104.9921875 23.529296875 c 2
 104.9921875 776.470703125 l 2
 104.9921875 790.712890625 118.422851562 800 128.521484375 800 c 2
 318.638671875 800 l 2
 435.783203125 800 528.529296875 704.453125 528.529296875 588.129882812 c 0xba
 528.529296875 476.383789062 443.140625 386.290039062 334.771484375 377.220703125 c 1
 507.192382812 34.09375 l 2
 508.854492188 30.787109375 509.638671875 27.236328125 509.638671875 23.71875 c 0
 509.638671875 15.0556640625 504.877929688 6.59765625 496.732421875 2.5048828125 c 0
 493.42578125 0.84375 489.875 0.05859375 486.357421875 0.05859375 c 0
 477.694335938 0.05859375 469.236328125 4.8193359375 465.143554688 12.96484375 c 2xbc
 282.482421875 376.470703125 l 1
 152.05078125 376.470703125 l 1
EndSplineSet
Validated: 1
EndChar

StartChar: s
Encoding: 115 115 81
Width: 539
VWidth: 23
Flags: W
HStem: 0 47.0586<181.155 341.792> 752.941 47.0586<191.077 332.147>
VStem: 84.2939 47.0586<558.514 694.11> 425 47.0586<128.654 290.533>
LayerCount: 2
Back
Fore
SplineSet
81.8330078125 159.130859375 m 0
 84.7099609375 160.330078125 87.7158203125 160.896484375 90.6884765625 160.896484375 c 0
 99.9404296875 160.896484375 108.87109375 155.415039062 112.6015625 146.461914062 c 0
 120.883789062 126.584960938 132.280273438 109.524414062 147.049804688 94.755859375 c 0
 176.626953125 65.177734375 217.693359375 47.05859375 263.1171875 47.05859375 c 0
 352.571289062 47.05859375 425 120.15625 425 209.8828125 c 0
 425 255.114257812 408.284179688 300.736328125 367.861328125 330.151367188 c 2
 157.025390625 483.572265625 l 2
 115.500976562 513.874023438 84.2939453125 572.666992188 84.2939453125 624 c 0
 84.2939453125 720.67578125 162.522460938 800 260.293945312 800 c 0
 308.211914062 800 352.615234375 780.108398438 383.930664062 749.169921875 c 0
 401.154296875 732.877929688 413.37109375 715.310546875 422.21484375 694.307617188 c 0
 423.436523438 691.40625 424.012695312 688.372070312 424.012695312 685.370117188 c 0
 424.012695312 676.150390625 418.571289062 667.243164062 409.66015625 663.491210938 c 0
 406.759765625 662.26953125 403.724609375 661.693359375 400.723632812 661.693359375 c 0
 391.502929688 661.693359375 382.595703125 667.134765625 378.84375 676.045898438 c 0
 372.553710938 690.983398438 363.634765625 703.740234375 351.237304688 715.310546875 c 0
 327.721679688 738.826171875 295.391601562 752.94140625 260.293945312 752.94140625 c 0
 188.654296875 752.94140625 131.352539062 694.853515625 131.352539062 624 c 0
 131.352539062 590.624023438 156.60546875 542.134765625 184.751953125 521.594726562 c 2
 395.549804688 368.202148438 l 2
 450.692382812 328.076171875 472.05859375 266.297851562 472.05859375 209.8828125 c 0
 472.05859375 94.4326171875 378.840820312 0 263.1171875 0 c 0
 205.01171875 0 151.9609375 23.29296875 113.774414062 61.4794921875 c 0
 94.66015625 80.59375 79.7041015625 103.0625 69.1630859375 128.362304688 c 0
 67.9638671875 131.239257812 67.3984375 134.245117188 67.3984375 137.217773438 c 0
 67.3984375 146.469726562 72.8798828125 155.400390625 81.8330078125 159.130859375 c 0
EndSplineSet
Validated: 1
EndChar

StartChar: t
Encoding: 116 116 82
Width: 633
VWidth: 23
Flags: W
HStem: 0 21G<310.356 323.173> 0 21G<310.356 323.173> 752.941 47.0586<-7.87167 293.235 340.294 641.401>
VStem: 293.235 47.0586<0.0697305 752.941>
LayerCount: 2
Back
Fore
SplineSet
-7.94140625 776.470703125 m 0xb0
 -7.94140625 789.287109375 2.7724609375 800 15.587890625 800 c 2
 316.764648438 800 l 1
 617.94140625 800 l 2
 630.756835938 800 641.470703125 789.287109375 641.470703125 776.470703125 c 0
 641.470703125 763.654296875 630.756835938 752.94140625 617.94140625 752.94140625 c 2
 340.293945312 752.94140625 l 1
 340.293945312 23.529296875 l 2
 340.293945312 10.712890625 329.581054688 0 316.764648438 0 c 0
 303.948242188 0 293.235351562 10.712890625 293.235351562 23.529296875 c 2
 293.235351562 752.94140625 l 1
 15.587890625 752.94140625 l 2
 2.7724609375 752.94140625 -7.94140625 763.654296875 -7.94140625 776.470703125 c 0xb0
EndSplineSet
Validated: 1
EndChar

StartChar: u
Encoding: 117 117 83
Width: 821
VWidth: 23
Flags: W
HStem: 0 47.0586<304.672 517.093> 780 20G<103.298 116.114 705.651 718.467> 780 20G<103.298 116.114 705.651 718.467>
VStem: 86.1768 47.0586<220.51 799.93> 688.529 47.0586<220.472 799.93>
LayerCount: 2
Back
Fore
SplineSet
712.05859375 800 m 0xd8
 724.875 800 735.587890625 789.287109375 735.587890625 776.470703125 c 2
 735.587890625 324.706054688 l 2
 735.587890625 145.140625 590.448242188 0 410.8828125 0 c 0
 231.309570312 0 86.1767578125 145.23828125 86.1767578125 324.706054688 c 2
 86.1767578125 776.470703125 l 2
 86.1767578125 789.287109375 96.8896484375 800 109.706054688 800 c 0
 122.522460938 800 133.235351562 789.287109375 133.235351562 776.470703125 c 2
 133.235351562 324.706054688 l 2
 133.235351562 171.190429688 257.278320312 47.05859375 410.8828125 47.05859375 c 0
 564.493164062 47.05859375 688.529296875 171.094726562 688.529296875 324.706054688 c 2
 688.529296875 776.470703125 l 2
 688.529296875 789.287109375 699.243164062 800 712.05859375 800 c 0xd8
EndSplineSet
Validated: 1
EndChar

StartChar: v
Encoding: 118 118 84
Width: 671
VWidth: 23
Flags: W
HStem: 779.962 20G<51.6968 57.8228 613.354 619.48> 779.962 20G<51.6968 57.8228 613.354 619.48>
VStem: 29.7441 45.5225<784.732 798.333> 595.91 45.5225<784.732 798.333>
LayerCount: 2
Back
Fore
SplineSet
44.9736328125 798.501953125 m 0xb0
 47.6171875 799.493164062 50.34765625 799.961914062 53.0458984375 799.961914062 c 0
 62.599609375 799.961914062 71.7578125 794.088867188 75.2666015625 784.732421875 c 2
 335.587890625 90.541015625 l 1
 595.91015625 784.732421875 l 2
 599.418945312 794.088867188 608.577148438 799.961914062 618.130859375 799.961914062 c 0
 620.829101562 799.961914062 623.559570312 799.493164062 626.203125 798.501953125 c 0
 635.559570312 794.993164062 641.432617188 785.834960938 641.432617188 776.28125 c 0
 641.432617188 773.583007812 640.963867188 770.852539062 639.97265625 768.208984375 c 2
 357.619140625 15.267578125 l 2
 352.296875 1.0751953125 345.626953125 -3.65625 339.099609375 -3.65625 c 0
 326.043945312 -3.65625 313.556640625 15.267578125 313.556640625 15.267578125 c 1
 31.2041015625 768.208984375 l 2
 30.212890625 770.852539062 29.744140625 773.583007812 29.744140625 776.28125 c 0
 29.744140625 785.834960938 35.6171875 794.993164062 44.9736328125 798.501953125 c 0xb0
EndSplineSet
Validated: 1
EndChar

StartChar: w
Encoding: 119 119 85
Width: 1023
VWidth: 23
Flags: W
HStem: 779.974 20G<51.9556 58.1113 965.07 971.226> 779.974 20G<51.9556 58.1113 965.07 971.226>
VStem: 29.7324 46.0166<760.264 798.836> 947.436 46.0078<760.384 798.828>
LayerCount: 2
Back
Fore
SplineSet
504.75 798.984375 m 0xb0
 507.018554688 799.673828125 509.325195312 799.991210938 511.6015625 799.97265625 c 0
 513.877929688 799.98828125 516.184570312 799.66796875 518.452148438 798.9765625 c 0
 522.247070312 797.819335938 525.549804688 795.73828125 528.190429688 793.053710938 c 0
 530.872070312 790.41015625 532.94921875 787.10546875 534.1015625 783.309570312 c 2
 740.340820312 104.334960938 l 1
 947.435546875 783.334960938 l 2
 950.498046875 793.377929688 960.02734375 799.973632812 970.11328125 799.973632812 c 0
 972.337890625 799.973632812 974.58984375 799.65234375 976.805664062 798.9765625 c 0
 986.848632812 795.913085938 993.443359375 786.383789062 993.443359375 776.298828125 c 0
 993.443359375 774.07421875 993.123046875 771.822265625 992.447265625 769.606445312 c 2
 762.799804688 16.6650390625 l 2
 761.642578125 12.8701171875 759.561523438 9.5673828125 756.876953125 6.9267578125 c 0
 754.233398438 4.2451171875 750.928710938 2.1689453125 747.1328125 1.015625 c 0
 744.86328125 0.326171875 742.556640625 0.0087890625 740.280273438 0.02734375 c 0
 738.00390625 0.01171875 735.698242188 0.33203125 733.4296875 1.0234375 c 0
 729.634765625 2.1806640625 726.33203125 4.26171875 723.692382812 6.9462890625 c 0
 721.009765625 9.58984375 718.93359375 12.89453125 717.780273438 16.6904296875 c 2
 511.541992188 695.665039062 l 1
 304.447265625 16.6650390625 l 2
 303.290039062 12.8701171875 301.208984375 9.5673828125 298.524414062 6.9267578125 c 0
 295.880859375 4.2451171875 292.576171875 2.1689453125 288.779296875 1.015625 c 0
 286.510742188 0.326171875 284.204101562 0.0087890625 281.927734375 0.02734375 c 0
 279.651367188 0.01171875 277.344726562 0.33203125 275.077148438 1.0234375 c 0
 271.282226562 2.1806640625 267.979492188 4.26171875 265.338867188 6.9462890625 c 0
 262.657226562 9.58984375 260.580078125 12.89453125 259.427734375 16.6904296875 c 2
 30.7216796875 769.631835938 l 2
 30.05078125 771.83984375 29.732421875 774.083007812 29.732421875 776.298828125 c 0
 29.732421875 786.39453125 36.341796875 795.9296875 46.396484375 798.984375 c 0
 48.6044921875 799.655273438 50.84765625 799.973632812 53.0634765625 799.973632812 c 0
 63.1591796875 799.973632812 72.6943359375 793.364257812 75.7490234375 783.309570312 c 2
 281.987304688 104.334960938 l 1
 489.08203125 783.334960938 l 2
 490.240234375 787.129882812 492.3203125 790.432617188 495.005859375 793.073242188 c 0
 497.6484375 795.754882812 500.954101562 797.831054688 504.75 798.984375 c 0xb0
EndSplineSet
Validated: 1
EndChar

StartChar: x
Encoding: 120 120 86
Width: 716
VWidth: 23
Flags: W
HStem: 0.0791016 21G<107.34 113.407 602.946 609.012> 0.0791016 21G<107.34 113.407 602.946 609.012> 779.921 20G<107.34 113.407 602.946 609.012> 779.921 20G<107.34 113.407 602.946 609.012>
LayerCount: 2
Back
Fore
SplineSet
96.7451171875 3.8916015625 m 0xa0
 89.9599609375 8.3701171875 86.255859375 15.9794921875 86.255859375 23.67578125 c 0
 86.255859375 28.11328125 87.486328125 32.5791015625 90.068359375 36.490234375 c 2
 329.984375 400 l 1
 90.068359375 763.509765625 l 2
 87.486328125 767.420898438 86.255859375 771.88671875 86.255859375 776.32421875 c 0
 86.255859375 784.020507812 89.9599609375 791.629882812 96.7451171875 796.108398438 c 0
 100.65625 798.690429688 105.122070312 799.920898438 109.55859375 799.920898438 c 0
 117.255859375 799.920898438 124.865234375 796.216796875 129.34375 789.431640625 c 2
 358.176757812 442.715820312 l 1
 587.008789062 789.431640625 l 2
 591.487304688 796.216796875 599.09765625 799.920898438 606.793945312 799.920898438 c 0
 611.23046875 799.920898438 615.696289062 798.690429688 619.608398438 796.108398438 c 0
 626.393554688 791.629882812 630.09765625 784.020507812 630.09765625 776.32421875 c 0
 630.09765625 771.88671875 628.866210938 767.420898438 626.28515625 763.509765625 c 2
 386.368164062 400 l 1
 626.28515625 36.490234375 l 2
 628.866210938 32.5791015625 630.09765625 28.11328125 630.09765625 23.67578125 c 0
 630.09765625 15.9794921875 626.393554688 8.3701171875 619.608398438 3.8916015625 c 0
 615.696289062 1.3095703125 611.23046875 0.0791015625 606.793945312 0.0791015625 c 0
 599.09765625 0.0791015625 591.487304688 3.783203125 587.008789062 10.568359375 c 2
 358.176757812 357.284179688 l 1
 129.34375 10.568359375 l 2
 124.865234375 3.783203125 117.255859375 0.0791015625 109.55859375 0.0791015625 c 0
 105.122070312 0.0791015625 100.65625 1.3095703125 96.7451171875 3.8916015625 c 0xa0
EndSplineSet
Validated: 1
EndChar

StartChar: y
Encoding: 121 121 87
Width: 651
VWidth: 23
Flags: W
HStem: 0 21G<318.827 331.644> 0 21G<318.827 331.644> 779.915 20G<50.7275 56.7891 594.628 600.689> 779.915 20G<50.7275 56.7891 594.628 600.689>
VStem: 301.706 47.0586<0.0697305 392.368>
LayerCount: 2
Back
Fore
SplineSet
39.455078125 795.54296875 m 0xa8
 43.544921875 798.497070312 48.341796875 799.915039062 53.11328125 799.915039062 c 0
 60.46484375 799.915039062 67.755859375 796.549804688 72.3076171875 790.25 c 2
 325.268554688 440.131835938 l 1
 579.126953125 790.28125 l 2
 583.680664062 796.5625 590.958984375 799.915039062 598.296875 799.915039062 c 0
 603.08203125 799.915039062 607.891601562 798.489257812 611.987304688 795.520507812 c 0
 618.268554688 790.966796875 621.62109375 783.6875 621.62109375 776.349609375 c 0
 621.62109375 771.564453125 620.1953125 766.754882812 617.2265625 762.659179688 c 2
 348.764648438 392.368164062 l 1
 348.764648438 23.529296875 l 2
 348.764648438 10.712890625 338.051757812 0 325.235351562 0 c 0
 312.418945312 0 301.706054688 10.712890625 301.706054688 23.529296875 c 2
 301.706054688 392.389648438 l 1
 34.1630859375 762.690429688 l 2
 31.208984375 766.780273438 29.791015625 771.577148438 29.791015625 776.348632812 c 0
 29.791015625 783.700195312 33.15625 790.991210938 39.455078125 795.54296875 c 0xa8
EndSplineSet
Validated: 1
EndChar

StartChar: z
Encoding: 122 122 88
Width: 671
VWidth: 23
Flags: W
HStem: 0 47.0586<151.264 584.93> 752.941 47.0586<86.2465 519.913>
LayerCount: 2
Back
Fore
SplineSet
86.1767578125 776.470703125 m 0
 86.1767578125 789.287109375 96.8896484375 800 109.706054688 800 c 2
 561.470703125 800 l 2
 563.635742188 800 565.741210938 799.694335938 567.745117188 799.124023438 c 0
 569.756835938 798.58203125 571.719726562 797.760742188 573.576171875 796.646484375 c 0
 577.157226562 794.499023438 579.9609375 791.490234375 581.885742188 788.029296875 c 0
 583.86328125 784.598632812 585 780.646484375 585 776.470703125 c 0
 585 774.3046875 584.694335938 772.19921875 584.124023438 770.1953125 c 0
 583.58203125 768.184570312 582.760742188 766.221679688 581.646484375 764.365234375 c 2
 151.263671875 47.05859375 l 1
 561.470703125 47.05859375 l 2
 574.287109375 47.05859375 585 36.345703125 585 23.529296875 c 0
 585 10.712890625 574.287109375 0 561.470703125 0 c 2
 109.706054688 0 l 2
 88.486328125 0 82.953125 8.15625 82.953125 16.6650390625 c 0
 82.953125 25.94140625 89.529296875 35.634765625 89.529296875 35.634765625 c 1
 519.913085938 752.94140625 l 1
 109.706054688 752.94140625 l 2
 96.8896484375 752.94140625 86.1767578125 763.654296875 86.1767578125 776.470703125 c 0
EndSplineSet
Validated: 5
EndChar

StartChar: underscore
Encoding: 95 95 89
Width: 647
VWidth: 23
Flags: W
HStem: -188.235 47.0586<105.07 542.578>
LayerCount: 2
Back
Fore
SplineSet
105 -164.706054688 m 0
 105 -151.889648438 115.712890625 -141.176757812 128.529296875 -141.176757812 c 2
 519.1171875 -141.176757812 l 2
 531.93359375 -141.176757812 542.647460938 -151.889648438 542.647460938 -164.706054688 c 0
 542.647460938 -177.522460938 531.93359375 -188.235351562 519.1171875 -188.235351562 c 2
 128.529296875 -188.235351562 l 2
 115.712890625 -188.235351562 105 -177.522460938 105 -164.706054688 c 0
EndSplineSet
Validated: 1
EndChar

StartChar: grave
Encoding: 96 96 90
Width: 401
VWidth: 23
Flags: W
HStem: 813.26 147.692
VStem: 105.083 190.893
LayerCount: 2
Back
Fore
SplineSet
109.252929688 950.999023438 m 0
 113.782226562 957.46875 121.1875 960.952148438 128.66015625 960.952148438 c 0
 133.313476562 960.952148438 137.994140625 959.6015625 142.022460938 956.78125 c 2
 286.022460938 855.982421875 l 2
 292.493164062 851.452148438 295.975585938 844.047851562 295.975585938 836.57421875 c 0
 295.975585938 831.921875 294.625976562 827.241210938 291.805664062 823.212890625 c 0
 287.276367188 816.7421875 279.87109375 813.259765625 272.3984375 813.259765625 c 0
 267.745117188 813.259765625 263.065429688 814.609375 259.036132812 817.4296875 c 2
 115.036132812 918.229492188 l 2
 108.565429688 922.758789062 105.083007812 930.163085938 105.083007812 937.63671875 c 0
 105.083007812 942.290039062 106.43359375 946.969726562 109.252929688 950.999023438 c 0
EndSplineSet
Validated: 1
EndChar

StartChar: bar
Encoding: 124 124 91
Width: 257
VWidth: 23
Flags: W
HStem: 780 20G<122.121 134.938> 780 20G<122.121 134.938>
VStem: 105 47.0586<-188.166 799.93>
LayerCount: 2
Back
Fore
SplineSet
128.529296875 800 m 0xa0
 141.345703125 800 152.05859375 789.287109375 152.05859375 776.470703125 c 2
 152.05859375 -164.706054688 l 2
 152.05859375 -177.522460938 141.345703125 -188.235351562 128.529296875 -188.235351562 c 0
 115.712890625 -188.235351562 105 -177.522460938 105 -164.706054688 c 2
 105 776.470703125 l 2
 105 789.287109375 115.712890625 800 128.529296875 800 c 0xa0
EndSplineSet
Validated: 1
EndChar

StartChar: braceleft
Encoding: 123 123 92
Width: 420
VWidth: 23
Flags: W
HStem: 0 47.0586<247.331 315.941> 376.471 47.0586<105.07 173.678> 752.941 47.0586<247.333 315.941>
VStem: 186.977 47.0586<60.3566 362.878 437.121 739.646>
CounterMasks: 1 e0
LayerCount: 2
Back
Fore
SplineSet
316.010742188 23.529296875 m 0
 316.010742188 10.712890625 305.297851562 0 292.481445312 0 c 0
 234.114257812 0 186.9765625 47.130859375 186.9765625 105.505859375 c 2
 186.9765625 318.0234375 l 2
 186.9765625 350.459960938 160.958007812 376.470703125 128.529296875 376.470703125 c 0
 115.712890625 376.470703125 105 387.18359375 105 400 c 0
 105 412.81640625 115.712890625 423.529296875 128.529296875 423.529296875 c 0
 160.965820312 423.529296875 186.9765625 449.546875 186.9765625 481.9765625 c 2
 186.9765625 694.494140625 l 2
 186.9765625 752.861328125 234.107421875 800 292.481445312 800 c 0
 305.297851562 800 316.010742188 789.287109375 316.010742188 776.470703125 c 0
 316.010742188 763.654296875 305.297851562 752.94140625 292.481445312 752.94140625 c 0
 260.052734375 752.94140625 234.03515625 726.930664062 234.03515625 694.494140625 c 2
 234.03515625 481.9765625 l 2
 234.03515625 448.83984375 218.845703125 419.326171875 195.03515625 400 c 1
 218.846679688 380.672851562 234.03515625 351.157226562 234.03515625 318.0234375 c 2
 234.03515625 105.505859375 l 2
 234.03515625 73.076171875 260.044921875 47.05859375 292.481445312 47.05859375 c 0
 305.297851562 47.05859375 316.010742188 36.345703125 316.010742188 23.529296875 c 0
EndSplineSet
Validated: 1
EndChar

StartChar: braceright
Encoding: 125 125 93
Width: 420
VWidth: 23
Flags: W
HStem: 0 47.0586<105.07 171.893> 376.471 47.0586<247.284 315.754> 752.941 47.0586<105.07 171.895>
VStem: 186.883 47.0586<62.0462 362.888 437.111 737.952>
CounterMasks: 1 e0
LayerCount: 2
Back
Fore
SplineSet
105 23.529296875 m 0
 105 36.345703125 115.712890625 47.05859375 128.529296875 47.05859375 c 0
 160.705078125 47.05859375 186.8828125 73.2412109375 186.8828125 105.412109375 c 2
 186.8828125 318.1171875 l 2
 186.8828125 351.15625 202.114257812 380.666015625 225.934570312 400 c 1
 202.115234375 419.333007812 186.8828125 448.841796875 186.8828125 481.8828125 c 2
 186.8828125 694.587890625 l 2
 186.8828125 726.763671875 160.700195312 752.94140625 128.529296875 752.94140625 c 0
 115.712890625 752.94140625 105 763.654296875 105 776.470703125 c 0
 105 789.287109375 115.712890625 800 128.529296875 800 c 0
 186.711914062 800 233.94140625 752.765625 233.94140625 694.587890625 c 2
 233.94140625 481.8828125 l 2
 233.94140625 449.711914062 260.118164062 423.529296875 292.293945312 423.529296875 c 0
 305.110351562 423.529296875 315.823242188 412.81640625 315.823242188 400 c 0
 315.823242188 387.18359375 305.110351562 376.470703125 292.293945312 376.470703125 c 0
 260.123046875 376.470703125 233.94140625 350.29296875 233.94140625 318.1171875 c 2
 233.94140625 105.412109375 l 2
 233.94140625 47.2294921875 186.70703125 0 128.529296875 0 c 0
 115.712890625 0 105 10.712890625 105 23.529296875 c 0
EndSplineSet
Validated: 1
EndChar

StartChar: asciitilde
Encoding: 126 126 94
Width: 488
VWidth: 23
Flags: W
HStem: 318.648 47.0596<256.357 350.405> 366.566 47.0586<138.253 232.302>
VStem: 105.095 278.469
LayerCount: 2
Back
Fore
SplineSet
376.766601562 382.774414062 m 0
 381.297851562 378.243164062 383.563476562 372.190429688 383.563476562 366.13671875 c 0
 383.563476562 360.083984375 381.297851562 354.030273438 376.766601562 349.499023438 c 0
 356.225585938 328.958007812 329.142578125 318.6484375 302.228515625 318.6484375 c 0
 275.311523438 318.6484375 248.236328125 328.954101562 227.69140625 349.499023438 c 0
 216.287109375 360.903320312 201.443359375 366.56640625 186.4296875 366.56640625 c 0
 171.418945312 366.56640625 156.56640625 360.8984375 145.166992188 349.499023438 c 0
 140.635742188 344.967773438 134.583007812 342.702148438 128.529296875 342.702148438 c 0
 122.4765625 342.702148438 116.422851562 344.967773438 111.891601562 349.499023438 c 0
 107.360351562 354.030273438 105.094726562 360.083984375 105.094726562 366.13671875 c 0
 105.094726562 372.190429688 107.360351562 378.243164062 111.891601562 382.774414062 c 0
 132.436523438 403.3203125 159.51171875 413.625 186.4296875 413.625 c 0
 213.342773438 413.625 240.42578125 403.315429688 260.966796875 382.774414062 c 0
 272.366210938 371.375 287.21875 365.708007812 302.228515625 365.708007812 c 0
 317.243164062 365.708007812 332.086914062 371.37109375 343.491210938 382.774414062 c 0
 348.022460938 387.305664062 354.075195312 389.571289062 360.12890625 389.571289062 c 0
 366.181640625 389.571289062 372.235351562 387.305664062 376.766601562 382.774414062 c 0
EndSplineSet
Validated: 1
EndChar

StartChar: acute
Encoding: 180 180 95
Width: 400
VWidth: 23
Flags: W
HStem: 813.26 147.599
VStem: 105.083 189.951
LayerCount: 2
Back
Fore
SplineSet
290.828125 950.956054688 m 0
 293.671875 946.916015625 295.034179688 942.215820312 295.034179688 937.541015625 c 0
 295.034179688 930.08984375 291.572265625 922.705078125 285.1328125 918.171875 c 2
 142.073242188 817.465820312 l 2
 138.034179688 814.622070312 133.333007812 813.259765625 128.659179688 813.259765625 c 0
 121.20703125 813.259765625 113.822265625 816.721679688 109.2890625 823.162109375 c 0
 106.4453125 827.201171875 105.083007812 831.90234375 105.083007812 836.576171875 c 0
 105.083007812 844.028320312 108.544921875 851.413085938 114.985351562 855.946289062 c 2
 258.043945312 956.65234375 l 2
 262.083984375 959.49609375 266.784179688 960.858398438 271.458984375 960.858398438 c 0
 278.91015625 960.858398438 286.294921875 957.396484375 290.828125 950.956054688 c 0
EndSplineSet
Validated: 1
EndChar

StartChar: exclamdown
Encoding: 161 161 97
Width: 257
VWidth: 23
Flags: W
HStem: 705.883 47.0586<105.068 151.989>
VStem: 104.999 47.0586<-46.9889 575.93 705.951 752.873>
LayerCount: 2
Back
Fore
SplineSet
128.528320312 576 m 0
 141.344726562 576 152.057617188 565.287109375 152.057617188 552.470703125 c 2
 152.057617188 -23.529296875 l 2
 152.057617188 -36.345703125 141.344726562 -47.05859375 128.528320312 -47.05859375 c 0
 115.711914062 -47.05859375 104.999023438 -36.345703125 104.999023438 -23.529296875 c 2
 104.999023438 552.470703125 l 2
 104.999023438 565.287109375 115.711914062 576 128.528320312 576 c 0
152.057617188 729.412109375 m 0
 152.057617188 716.423828125 141.516601562 705.8828125 128.528320312 705.8828125 c 0
 115.540039062 705.8828125 104.999023438 716.423828125 104.999023438 729.412109375 c 0
 104.999023438 742.400390625 115.540039062 752.94140625 128.528320312 752.94140625 c 0
 141.516601562 752.94140625 152.057617188 742.400390625 152.057617188 729.412109375 c 0
EndSplineSet
Validated: 1
EndChar

StartChar: questiondown
Encoding: 191 191 98
Width: 549
VWidth: 23
Flags: W
HStem: -46.1182 47.0586<211.783 352.581> 705.882 47.0586<285.774 332.696>
VStem: 105 47.0586<59.772 194.648> 285.705 47.0596<441.779 575.929 705.95 752.872>
LayerCount: 2
Back
Fore
SplineSet
430.365234375 91.33203125 m 0
 439.276367188 87.580078125 444.71875 78.6728515625 444.71875 69.453125 c 0
 444.71875 66.451171875 444.141601562 63.4169921875 442.920898438 60.515625 c 0
 434.235351562 39.888671875 420.841796875 20.0751953125 404.626953125 4.703125 c 0
 372.19140625 -27.341796875 328.651367188 -46.1181640625 281 -46.1181640625 c 0
 183.228515625 -46.1181640625 105 33.2060546875 105 129.881835938 c 0
 105 156.064453125 113.889648438 183.435546875 126.4921875 207.588867188 c 0
 126.692382812 207.974609375 126.994140625 208.505859375 127.159179688 208.783203125 c 2
 244.806640625 405.48828125 l 2
 279.807617188 464.010742188 285.705078125 503.157226562 285.705078125 552.469726562 c 0
 285.705078125 565.286132812 296.418945312 575.999023438 309.235351562 575.999023438 c 0
 322.05078125 575.999023438 332.764648438 565.286132812 332.764648438 552.469726562 c 0
 332.764648438 498.252929688 324.259765625 446.654296875 285.193359375 381.333984375 c 2
 167.907226562 185.232421875 l 2
 158.520507812 167.016601562 152.05859375 145.03515625 152.05859375 129.881835938 c 0
 152.05859375 59.0283203125 209.359375 0.9404296875 281 0.9404296875 c 0
 316.09765625 0.9404296875 348.42578125 15.0546875 371.942382812 38.5712890625 c 0
 383.93359375 49.7626953125 393.1328125 63.5380859375 399.549804688 78.77734375 c 0
 403.301757812 87.6884765625 412.208984375 93.1298828125 421.428710938 93.1298828125 c 0
 424.430664062 93.1298828125 427.46484375 92.5537109375 430.365234375 91.33203125 c 0
332.764648438 729.411132812 m 0
 332.764648438 716.422851562 322.223632812 705.881835938 309.235351562 705.881835938 c 0
 296.247070312 705.881835938 285.705078125 716.422851562 285.705078125 729.411132812 c 0
 285.705078125 742.399414062 296.247070312 752.940429688 309.235351562 752.940429688 c 0
 322.223632812 752.940429688 332.764648438 742.399414062 332.764648438 729.411132812 c 0
EndSplineSet
Validated: 1
EndChar

StartChar: dieresis
Encoding: 168 168 99
Width: 401
VWidth: 23
Flags: W
HStem: 813.177 48<105.07 151.989 249.07 295.989>
VStem: 105 47.0586<813.245 861.107> 249 47.0586<813.246 861.107>
LayerCount: 2
Back
Fore
SplineSet
272.529296875 861.176757812 m 0
 285.345703125 861.176757812 296.05859375 850.462890625 296.05859375 837.647460938 c 2
 296.05859375 836.706054688 l 2
 296.05859375 823.889648438 285.345703125 813.176757812 272.529296875 813.176757812 c 0
 259.712890625 813.176757812 249 823.889648438 249 836.706054688 c 2
 249 837.647460938 l 2
 249 850.462890625 259.712890625 861.176757812 272.529296875 861.176757812 c 0
128.529296875 861.176757812 m 0
 141.345703125 861.176757812 152.05859375 850.462890625 152.05859375 837.647460938 c 2
 152.05859375 836.706054688 l 2
 152.05859375 823.717773438 141.517578125 813.176757812 128.529296875 813.176757812 c 0
 115.541015625 813.176757812 105 823.717773438 105 836.706054688 c 2
 105 837.647460938 l 2
 105 850.462890625 115.712890625 861.176757812 128.529296875 861.176757812 c 0
EndSplineSet
Validated: 1
EndChar

StartChar: guillemotleft
Encoding: 171 171 100
Width: 592
VWidth: 23
Flags: W
LayerCount: 2
Back
Fore
SplineSet
477.842773438 2.9267578125 m 0
 473.659179688 -0.2587890625 468.665039062 -1.794921875 463.693359375 -1.794921875 c 0
 456.546875 -1.794921875 449.447265625 1.37890625 444.868164062 7.392578125 c 2
 288.6328125 212.569335938 l 2
 285.463867188 216.73046875 283.880859375 221.77734375 283.880859375 226.822265625 c 0
 283.880859375 231.87109375 285.465820312 236.918945312 288.6328125 241.078125 c 2
 444.868164062 446.254882812 l 2
 449.447265625 452.267578125 456.546875 455.44140625 463.693359375 455.44140625 c 0
 468.665039062 455.44140625 473.659179688 453.905273438 477.842773438 450.719726562 c 0
 483.856445312 446.141601562 487.030273438 439.041015625 487.030273438 431.89453125 c 0
 487.030273438 426.922851562 485.494140625 421.928710938 482.30859375 417.745117188 c 2
 336.927734375 226.823242188 l 1
 482.30859375 35.9013671875 l 2
 485.494140625 31.71875 487.030273438 26.7236328125 487.030273438 21.751953125 c 0
 487.030273438 14.60546875 483.856445312 7.505859375 477.842773438 2.9267578125 c 0
299.01953125 2.9267578125 m 0
 294.8359375 -0.2587890625 289.841796875 -1.794921875 284.870117188 -1.794921875 c 0
 277.723632812 -1.794921875 270.623046875 1.37890625 266.044921875 7.392578125 c 2
 109.809570312 212.569335938 l 2
 106.640625 216.73046875 105.056640625 221.77734375 105.056640625 226.822265625 c 0
 105.056640625 231.87109375 106.642578125 236.918945312 109.809570312 241.078125 c 2
 266.044921875 446.254882812 l 2
 270.623046875 452.267578125 277.723632812 455.44140625 284.870117188 455.44140625 c 0
 289.841796875 455.44140625 294.8359375 453.905273438 299.01953125 450.719726562 c 0
 305.032226562 446.141601562 308.20703125 439.041015625 308.20703125 431.89453125 c 0
 308.20703125 426.922851562 306.669921875 421.928710938 303.484375 417.745117188 c 2
 158.103515625 226.823242188 l 1
 303.484375 35.9013671875 l 2
 306.669921875 31.71875 308.20703125 26.7236328125 308.20703125 21.751953125 c 0
 308.20703125 14.60546875 305.032226562 7.505859375 299.01953125 2.9267578125 c 0
EndSplineSet
Validated: 1
EndChar

StartChar: guillemotright
Encoding: 187 187 101
Width: 592
VWidth: 23
Flags: W
LayerCount: 2
Back
Fore
SplineSet
114.274414062 2.927734375 m 0
 108.260742188 7.505859375 105.086914062 14.60546875 105.086914062 21.751953125 c 0
 105.086914062 26.724609375 106.623046875 31.71875 109.80859375 35.9013671875 c 2
 255.190429688 226.823242188 l 1
 109.80859375 417.745117188 l 2
 106.623046875 421.928710938 105.086914062 426.922851562 105.086914062 431.895507812 c 0
 105.086914062 439.041015625 108.260742188 446.141601562 114.274414062 450.719726562 c 0
 118.458007812 453.905273438 123.452148438 455.442382812 128.423828125 455.442382812 c 0
 135.5703125 455.442382812 142.669921875 452.267578125 147.249023438 446.254882812 c 2
 303.484375 241.078125 l 2
 306.651367188 236.918945312 308.237304688 231.87109375 308.237304688 226.822265625 c 0
 308.237304688 221.77734375 306.653320312 216.73046875 303.484375 212.569335938 c 2
 147.249023438 7.392578125 l 2
 142.669921875 1.3798828125 135.5703125 -1.794921875 128.423828125 -1.794921875 c 0
 123.452148438 -1.794921875 118.458007812 -0.2578125 114.274414062 2.927734375 c 0
293.098632812 2.927734375 m 0
 287.084960938 7.505859375 283.911132812 14.60546875 283.911132812 21.751953125 c 0
 283.911132812 26.724609375 285.446289062 31.71875 288.6328125 35.9013671875 c 2
 434.013671875 226.823242188 l 1
 288.6328125 417.745117188 l 2
 285.446289062 421.928710938 283.911132812 426.922851562 283.911132812 431.895507812 c 0
 283.911132812 439.041015625 287.084960938 446.141601562 293.098632812 450.719726562 c 0
 297.28125 453.905273438 302.275390625 455.442382812 307.247070312 455.442382812 c 0
 314.393554688 455.442382812 321.493164062 452.267578125 326.072265625 446.254882812 c 2
 482.307617188 241.078125 l 2
 485.475585938 236.918945312 487.060546875 231.87109375 487.060546875 226.822265625 c 0
 487.060546875 221.77734375 485.4765625 216.73046875 482.307617188 212.569335938 c 2
 326.072265625 7.392578125 l 2
 321.493164062 1.3798828125 314.393554688 -1.794921875 307.247070312 -1.794921875 c 0
 302.275390625 -1.794921875 297.28125 -0.2578125 293.098632812 2.927734375 c 0
EndSplineSet
Validated: 1
EndChar

StartChar: uni00AD
Encoding: 173 173 102
Width: 504
VWidth: 23
Flags: W
HStem: 308.706 47.0586<105.07 399.518>
VStem: 105 294.588<308.776 355.695>
LayerCount: 2
Back
Fore
SplineSet
105 332.235351562 m 0
 105 345.051757812 115.712890625 355.764648438 128.529296875 355.764648438 c 2
 376.05859375 355.764648438 l 2
 388.875 355.764648438 399.587890625 345.051757812 399.587890625 332.235351562 c 0
 399.587890625 319.418945312 388.875 308.706054688 376.05859375 308.706054688 c 2
 128.529296875 308.706054688 l 2
 115.712890625 308.706054688 105 319.418945312 105 332.235351562 c 0
EndSplineSet
Validated: 1
EndChar

StartChar: degree
Encoding: 176 176 103
Width: 501
VWidth: 23
Flags: W
HStem: 508.235 47.0586<190.277 311.488> 752.941 47.0586<190.277 311.488>
VStem: 105 47.0586<593.512 714.723> 349.706 47.0586<593.512 714.723>
LayerCount: 2
Back
Fore
SplineSet
152.05859375 654.1171875 m 0
 152.05859375 599.321289062 196.083007812 555.293945312 250.8828125 555.293945312 c 0
 305.678710938 555.293945312 349.706054688 599.318359375 349.706054688 654.1171875 c 0
 349.706054688 708.9140625 305.681640625 752.94140625 250.8828125 752.94140625 c 0
 196.0859375 752.94140625 152.05859375 708.916992188 152.05859375 654.1171875 c 0
105 654.1171875 m 0
 105 734.84765625 170.149414062 800 250.8828125 800 c 0
 331.612304688 800 396.764648438 734.850585938 396.764648438 654.1171875 c 0
 396.764648438 573.387695312 331.615234375 508.235351562 250.8828125 508.235351562 c 0
 170.15234375 508.235351562 105 573.384765625 105 654.1171875 c 0
EndSplineSet
Validated: 1
EndChar

StartChar: periodcentered
Encoding: 183 183 104
Width: 257
VWidth: 23
Flags: W
HStem: 376.471 47.0586<105.069 151.99>
VStem: 105 47.0586<376.539 423.461>
LayerCount: 2
Back
Fore
SplineSet
105 400 m 0
 105 412.98828125 115.541015625 423.529296875 128.529296875 423.529296875 c 0
 141.517578125 423.529296875 152.05859375 412.98828125 152.05859375 400 c 0
 152.05859375 387.01171875 141.517578125 376.470703125 128.529296875 376.470703125 c 0
 115.541015625 376.470703125 105 387.01171875 105 400 c 0
EndSplineSet
Validated: 1
EndChar

StartChar: cedilla
Encoding: 184 184 105
Width: 257
VWidth: 23
Flags: W
HStem: -142.117 189.176<105.07 151.989>
VStem: 105 47.0586<-142.047 46.9889>
LayerCount: 2
Back
Fore
SplineSet
128.529296875 -142.1171875 m 0
 115.712890625 -142.1171875 105 -131.404296875 105 -118.587890625 c 2
 105 23.529296875 l 2
 105 36.345703125 115.712890625 47.05859375 128.529296875 47.05859375 c 0
 141.345703125 47.05859375 152.05859375 36.345703125 152.05859375 23.529296875 c 2
 152.05859375 -118.587890625 l 2
 152.05859375 -131.404296875 141.345703125 -142.1171875 128.529296875 -142.1171875 c 0
EndSplineSet
Validated: 1
EndChar

StartChar: Agrave
Encoding: 192 192 106
Width: 630
VWidth: 23
Flags: W
HStem: 0.0332031 21G<51.7944 57.9307 572.783 578.918> 0.0332031 21G<51.7944 57.9307 572.783 578.918> 256 47.0586<175.281 454.986>
VStem: 29.7393 45.7217<1.46484 15.8057> 555.258 45.708<1.47807 73.6096>
LayerCount: 2
Back
Fore
SplineSet
220.311523438 950.999023438 m 0x38
 224.840820312 957.46875 232.24609375 960.952148438 239.71875 960.952148438 c 0
 244.372070312 960.952148438 249.052734375 959.6015625 253.081054688 956.78125 c 2
 397.081054688 855.982421875 l 2
 403.551757812 851.452148438 407.034179688 844.047851562 407.034179688 836.57421875 c 0
 407.034179688 831.921875 405.684570312 827.241210938 402.864257812 823.212890625 c 0
 398.334960938 816.7421875 390.9296875 813.259765625 383.45703125 813.259765625 c 0
 378.803710938 813.259765625 374.124023438 814.609375 370.094726562 817.4296875 c 2
 226.094726562 918.229492188 l 2
 219.624023438 922.758789062 216.141601562 930.163085938 216.141601562 937.63671875 c 0
 216.141601562 942.290039062 217.4921875 946.969726562 220.311523438 950.999023438 c 0x38
175.28125 303.05859375 m 1
 454.986328125 303.05859375 l 1
 398.861328125 463.970703125 344.280273438 620.586914062 314.911132812 704.872070312 c 1
 175.28125 303.05859375 l 1
585.23046875 1.31640625 m 0
 582.739257812 0.4462890625 580.181640625 0.0341796875 577.655273438 0.0341796875 c 0
 567.91015625 0.0341796875 558.614257812 6.162109375 555.2578125 15.76953125 c 0
 529.7421875 88.8056640625 500.674804688 172.086914062 471.40234375 256 c 1
 158.928710938 256 l 1
 75.4609375 15.8056640625 l 2
 72.1162109375 6.1806640625 62.8095703125 0.033203125 53.0517578125 0.033203125 c 0xb8
 50.537109375 0.033203125 47.9921875 0.44140625 45.51171875 1.3037109375 c 0
 35.8857421875 4.6484375 29.7392578125 13.955078125 29.7392578125 23.712890625 c 0
 29.7392578125 26.2275390625 30.1474609375 28.7724609375 31.009765625 31.2529296875 c 2
 292.65625 784.194335938 l 2
 293.852539062 787.635742188 295.810546875 790.631835938 298.278320312 793.061523438 c 0
 300.706054688 795.532226562 303.701171875 797.4921875 307.141601562 798.690429688 c 0
 309.685546875 799.576171875 312.295898438 799.985351562 314.874023438 799.965820312 c 0
 317.451171875 799.987304688 320.0625 799.580078125 322.60546875 798.696289062 c 0
 326.046875 797.5 329.043945312 795.54296875 331.473632812 793.07421875 c 0
 333.943359375 790.646484375 335.903320312 787.651367188 337.102539062 784.2109375 c 2
 337.102539062 784.2109375 497.100585938 324.921875 599.68359375 31.2900390625 c 0
 600.553710938 28.7978515625 600.965820312 26.2412109375 600.965820312 23.7138671875 c 0
 600.965820312 13.9697265625 594.837890625 4.6728515625 585.23046875 1.31640625 c 0
EndSplineSet
Validated: 1
EndChar

StartChar: Aacute
Encoding: 193 193 107
Width: 630
VWidth: 23
Flags: W
HStem: 0.0332031 21G<51.7944 57.9307 572.783 578.918> 0.0332031 21G<51.7944 57.9307 572.783 578.918> 256 47.0586<175.281 454.986>
VStem: 29.7393 45.7217<1.46484 15.8057> 555.258 45.708<1.47807 73.6096>
LayerCount: 2
Back
Fore
SplineSet
400.00390625 950.956054688 m 0x38
 402.84765625 946.916015625 404.209960938 942.215820312 404.209960938 937.541015625 c 0
 404.209960938 930.08984375 400.748046875 922.705078125 394.30859375 918.171875 c 2
 251.249023438 817.465820312 l 2
 247.209960938 814.622070312 242.508789062 813.259765625 237.834960938 813.259765625 c 0
 230.3828125 813.259765625 222.998046875 816.721679688 218.46484375 823.162109375 c 0
 215.62109375 827.201171875 214.258789062 831.90234375 214.258789062 836.576171875 c 0
 214.258789062 844.028320312 217.720703125 851.413085938 224.161132812 855.946289062 c 2
 367.219726562 956.65234375 l 2
 371.259765625 959.49609375 375.959960938 960.858398438 380.634765625 960.858398438 c 0
 388.0859375 960.858398438 395.470703125 957.396484375 400.00390625 950.956054688 c 0x38
175.28125 303.05859375 m 1
 454.986328125 303.05859375 l 1
 398.861328125 463.970703125 344.280273438 620.586914062 314.911132812 704.872070312 c 1
 175.28125 303.05859375 l 1
585.23046875 1.31640625 m 0
 582.739257812 0.4462890625 580.181640625 0.0341796875 577.655273438 0.0341796875 c 0
 567.91015625 0.0341796875 558.614257812 6.162109375 555.2578125 15.76953125 c 0
 529.7421875 88.8056640625 500.674804688 172.086914062 471.40234375 256 c 1
 158.928710938 256 l 1
 75.4609375 15.8056640625 l 2
 72.1162109375 6.1806640625 62.8095703125 0.033203125 53.0517578125 0.033203125 c 0xb8
 50.537109375 0.033203125 47.9921875 0.44140625 45.51171875 1.3037109375 c 0
 35.8857421875 4.6484375 29.7392578125 13.955078125 29.7392578125 23.712890625 c 0
 29.7392578125 26.2275390625 30.1474609375 28.7724609375 31.009765625 31.2529296875 c 2
 292.65625 784.194335938 l 2
 293.852539062 787.635742188 295.810546875 790.631835938 298.278320312 793.061523438 c 0
 300.706054688 795.532226562 303.701171875 797.4921875 307.141601562 798.690429688 c 0
 309.685546875 799.576171875 312.295898438 799.985351562 314.874023438 799.965820312 c 0
 317.451171875 799.987304688 320.0625 799.580078125 322.60546875 798.696289062 c 0
 326.046875 797.5 329.043945312 795.54296875 331.473632812 793.07421875 c 0
 333.943359375 790.646484375 335.903320312 787.651367188 337.102539062 784.2109375 c 2
 337.102539062 784.2109375 497.100585938 324.921875 599.68359375 31.2900390625 c 0
 600.553710938 28.7978515625 600.965820312 26.2412109375 600.965820312 23.7138671875 c 0
 600.965820312 13.9697265625 594.837890625 4.6728515625 585.23046875 1.31640625 c 0
EndSplineSet
Validated: 1
EndChar

StartChar: Acircumflex
Encoding: 194 194 108
Width: 630
VWidth: 23
Flags: W
HStem: 0.0332031 21G<51.7944 57.9307 572.783 578.918> 0.0332031 21G<51.7944 57.9307 572.783 578.918> 256 47.0586<175.281 454.986>
VStem: 29.7393 45.7217<1.46484 15.8057> 555.258 45.708<1.47807 73.6096>
LayerCount: 2
Back
Fore
SplineSet
148.782226562 823.212890625 m 0x38
 145.962890625 827.241210938 144.612304688 831.921875 144.612304688 836.57421875 c 0
 144.612304688 844.047851562 148.094726562 851.452148438 154.565429688 855.982421875 c 2
 298.565429688 956.78125 l 2
 306.583984375 962.39453125 317.551757812 962.381835938 325.551757812 956.78125 c 2
 469.551757812 855.982421875 l 2
 476.022460938 851.452148438 479.504882812 844.047851562 479.504882812 836.57421875 c 0
 479.504882812 831.921875 478.155273438 827.241210938 475.334960938 823.212890625 c 0
 470.805664062 816.7421875 463.400390625 813.259765625 455.927734375 813.259765625 c 0
 451.274414062 813.259765625 446.594726562 814.609375 442.565429688 817.4296875 c 2
 312.05859375 908.784179688 l 1
 181.551757812 817.4296875 l 2
 177.5234375 814.609375 172.842773438 813.259765625 168.189453125 813.259765625 c 0
 160.716796875 813.259765625 153.311523438 816.7421875 148.782226562 823.212890625 c 0x38
175.28125 303.05859375 m 1
 454.986328125 303.05859375 l 1
 398.861328125 463.970703125 344.280273438 620.586914062 314.911132812 704.872070312 c 1
 175.28125 303.05859375 l 1
585.23046875 1.31640625 m 0
 582.739257812 0.4462890625 580.181640625 0.0341796875 577.655273438 0.0341796875 c 0
 567.91015625 0.0341796875 558.614257812 6.162109375 555.2578125 15.76953125 c 0
 529.7421875 88.8056640625 500.674804688 172.086914062 471.40234375 256 c 1
 158.928710938 256 l 1
 75.4609375 15.8056640625 l 2
 72.1162109375 6.1806640625 62.8095703125 0.033203125 53.0517578125 0.033203125 c 0xb8
 50.537109375 0.033203125 47.9921875 0.44140625 45.51171875 1.3037109375 c 0
 35.8857421875 4.6484375 29.7392578125 13.955078125 29.7392578125 23.712890625 c 0
 29.7392578125 26.2275390625 30.1474609375 28.7724609375 31.009765625 31.2529296875 c 2
 292.65625 784.194335938 l 2
 293.852539062 787.635742188 295.810546875 790.631835938 298.278320312 793.061523438 c 0
 300.706054688 795.532226562 303.701171875 797.4921875 307.141601562 798.690429688 c 0
 309.685546875 799.576171875 312.295898438 799.985351562 314.874023438 799.965820312 c 0
 317.451171875 799.987304688 320.0625 799.580078125 322.60546875 798.696289062 c 0
 326.046875 797.5 329.043945312 795.54296875 331.473632812 793.07421875 c 0
 333.943359375 790.646484375 335.903320312 787.651367188 337.102539062 784.2109375 c 2
 337.102539062 784.2109375 497.100585938 324.921875 599.68359375 31.2900390625 c 0
 600.553710938 28.7978515625 600.965820312 26.2412109375 600.965820312 23.7138671875 c 0
 600.965820312 13.9697265625 594.837890625 4.6728515625 585.23046875 1.31640625 c 0
EndSplineSet
Validated: 1
EndChar

StartChar: Atilde
Encoding: 195 195 109
Width: 630
VWidth: 23
Flags: W
HStem: 0.0332031 21G<51.7944 57.9307 572.783 578.918> 0.0332031 21G<51.7944 57.9307 572.783 578.918> 256 47.0586<175.281 454.986> 811.824 47.0596<329.768 423.816> 859.742 47.0586<211.665 305.713>
VStem: 29.7393 45.7217<1.46484 15.8057> 555.258 45.708<1.47807 73.6096>
LayerCount: 2
Back
Fore
SplineSet
450.177734375 875.950195312 m 0x3e
 454.708984375 871.418945312 456.974609375 865.366210938 456.974609375 859.3125 c 0
 456.974609375 853.259765625 454.708984375 847.206054688 450.177734375 842.674804688 c 0
 429.63671875 822.133789062 402.553710938 811.82421875 375.639648438 811.82421875 c 0
 348.72265625 811.82421875 321.647460938 822.129882812 301.102539062 842.674804688 c 0
 289.698242188 854.079101562 274.854492188 859.7421875 259.840820312 859.7421875 c 0
 244.830078125 859.7421875 229.977539062 854.07421875 218.578125 842.674804688 c 0
 214.046875 838.143554688 207.994140625 835.877929688 201.940429688 835.877929688 c 0
 195.887695312 835.877929688 189.833984375 838.143554688 185.302734375 842.674804688 c 0
 180.771484375 847.206054688 178.505859375 853.259765625 178.505859375 859.3125 c 0
 178.505859375 865.366210938 180.771484375 871.418945312 185.302734375 875.950195312 c 0
 205.84765625 896.49609375 232.922851562 906.80078125 259.840820312 906.80078125 c 0
 286.75390625 906.80078125 313.836914062 896.491210938 334.377929688 875.950195312 c 0
 345.77734375 864.55078125 360.629882812 858.883789062 375.639648438 858.883789062 c 0
 390.654296875 858.883789062 405.498046875 864.546875 416.90234375 875.950195312 c 0
 421.43359375 880.481445312 427.486328125 882.747070312 433.540039062 882.747070312 c 0
 439.592773438 882.747070312 445.646484375 880.481445312 450.177734375 875.950195312 c 0x3e
175.28125 303.05859375 m 1
 454.986328125 303.05859375 l 1
 398.861328125 463.970703125 344.280273438 620.586914062 314.911132812 704.872070312 c 1
 175.28125 303.05859375 l 1
585.23046875 1.31640625 m 0
 582.739257812 0.4462890625 580.181640625 0.0341796875 577.655273438 0.0341796875 c 0
 567.91015625 0.0341796875 558.614257812 6.162109375 555.2578125 15.76953125 c 0
 529.7421875 88.8056640625 500.674804688 172.086914062 471.40234375 256 c 1
 158.928710938 256 l 1
 75.4609375 15.8056640625 l 2
 72.1162109375 6.1806640625 62.8095703125 0.033203125 53.0517578125 0.033203125 c 0xbe
 50.537109375 0.033203125 47.9921875 0.44140625 45.51171875 1.3037109375 c 0
 35.8857421875 4.6484375 29.7392578125 13.955078125 29.7392578125 23.712890625 c 0
 29.7392578125 26.2275390625 30.1474609375 28.7724609375 31.009765625 31.2529296875 c 2
 292.65625 784.194335938 l 2
 293.852539062 787.635742188 295.810546875 790.631835938 298.278320312 793.061523438 c 0
 300.706054688 795.532226562 303.701171875 797.4921875 307.141601562 798.690429688 c 0
 309.685546875 799.576171875 312.295898438 799.985351562 314.874023438 799.965820312 c 0
 317.451171875 799.987304688 320.0625 799.580078125 322.60546875 798.696289062 c 0
 326.046875 797.5 329.043945312 795.54296875 331.473632812 793.07421875 c 0
 333.943359375 790.646484375 335.903320312 787.651367188 337.102539062 784.2109375 c 2
 337.102539062 784.2109375 497.100585938 324.921875 599.68359375 31.2900390625 c 0
 600.553710938 28.7978515625 600.965820312 26.2412109375 600.965820312 23.7138671875 c 0
 600.965820312 13.9697265625 594.837890625 4.6728515625 585.23046875 1.31640625 c 0
EndSplineSet
Validated: 1
EndChar

StartChar: Adieresis
Encoding: 196 196 110
Width: 630
VWidth: 23
Flags: W
HStem: 0.0332031 21G<51.7944 57.9307 572.783 578.918> 0.0332031 21G<51.7944 57.9307 572.783 578.918> 256 47.0586<175.281 454.986> 813.177 48<215.187 262.106 359.187 406.106>
VStem: 29.7393 45.7217<1.46484 15.8057> 215.117 47.0586<813.245 861.107> 359.117 47.0586<813.246 861.107> 555.258 45.708<1.47807 73.6096>
LayerCount: 2
Back
Fore
SplineSet
382.646484375 861.176757812 m 0x3f
 395.462890625 861.176757812 406.17578125 850.462890625 406.17578125 837.647460938 c 2
 406.17578125 836.706054688 l 2
 406.17578125 823.889648438 395.462890625 813.176757812 382.646484375 813.176757812 c 0
 369.830078125 813.176757812 359.1171875 823.889648438 359.1171875 836.706054688 c 2
 359.1171875 837.647460938 l 2
 359.1171875 850.462890625 369.830078125 861.176757812 382.646484375 861.176757812 c 0x3f
238.646484375 861.176757812 m 0
 251.462890625 861.176757812 262.17578125 850.462890625 262.17578125 837.647460938 c 2
 262.17578125 836.706054688 l 2
 262.17578125 823.717773438 251.634765625 813.176757812 238.646484375 813.176757812 c 0
 225.658203125 813.176757812 215.1171875 823.717773438 215.1171875 836.706054688 c 2
 215.1171875 837.647460938 l 2
 215.1171875 850.462890625 225.830078125 861.176757812 238.646484375 861.176757812 c 0
175.28125 303.05859375 m 1
 454.986328125 303.05859375 l 1
 398.861328125 463.970703125 344.280273438 620.586914062 314.911132812 704.872070312 c 1
 175.28125 303.05859375 l 1
585.23046875 1.31640625 m 0
 582.739257812 0.4462890625 580.181640625 0.0341796875 577.655273438 0.0341796875 c 0
 567.91015625 0.0341796875 558.614257812 6.162109375 555.2578125 15.76953125 c 0
 529.7421875 88.8056640625 500.674804688 172.086914062 471.40234375 256 c 1
 158.928710938 256 l 1
 75.4609375 15.8056640625 l 2
 72.1162109375 6.1806640625 62.8095703125 0.033203125 53.0517578125 0.033203125 c 0xbf
 50.537109375 0.033203125 47.9921875 0.44140625 45.51171875 1.3037109375 c 0
 35.8857421875 4.6484375 29.7392578125 13.955078125 29.7392578125 23.712890625 c 0
 29.7392578125 26.2275390625 30.1474609375 28.7724609375 31.009765625 31.2529296875 c 2
 292.65625 784.194335938 l 2
 293.852539062 787.635742188 295.810546875 790.631835938 298.278320312 793.061523438 c 0
 300.706054688 795.532226562 303.701171875 797.4921875 307.141601562 798.690429688 c 0
 309.685546875 799.576171875 312.295898438 799.985351562 314.874023438 799.965820312 c 0
 317.451171875 799.987304688 320.0625 799.580078125 322.60546875 798.696289062 c 0
 326.046875 797.5 329.043945312 795.54296875 331.473632812 793.07421875 c 0
 333.943359375 790.646484375 335.903320312 787.651367188 337.102539062 784.2109375 c 2
 337.102539062 784.2109375 497.100585938 324.921875 599.68359375 31.2900390625 c 0
 600.553710938 28.7978515625 600.965820312 26.2412109375 600.965820312 23.7138671875 c 0
 600.965820312 13.9697265625 594.837890625 4.6728515625 585.23046875 1.31640625 c 0
EndSplineSet
Validated: 1
EndChar

StartChar: Aring
Encoding: 197 197 111
Width: 630
VWidth: 23
Flags: W
HStem: 0.0332031 21G<51.7944 57.9307 572.783 578.918> 0.0332031 21G<51.7944 57.9307 572.783 578.918> 256 47.0586<175.281 454.986> 995.765 47.0586<256.159 377.37>
VStem: 29.7393 45.7217<1.46484 15.8057> 170.883 47.0586<835.991 957.547> 415.588 47.0596<835.871 957.547> 555.258 45.708<1.47807 67.0195>
LayerCount: 2
Back
Fore
SplineSet
170.8828125 896.94140625 m 0xbf
 170.8828125 977.670898438 236.032226562 1042.82324219 316.764648438 1042.82324219 c 0
 397.495117188 1042.82324219 462.647460938 977.673828125 462.647460938 896.94140625 c 0
 462.647460938 826.768554688 413.422851562 768.365234375 347.526367188 754.290039062 c 1
 384.641601562 647.765625 512.76953125 280.0703125 599.68359375 31.2900390625 c 0
 600.553710938 28.7978515625 600.965820312 26.2412109375 600.965820312 23.7138671875 c 0
 600.965820312 13.9697265625 594.837890625 4.6728515625 585.23046875 1.31640625 c 0
 582.739257812 0.4462890625 580.181640625 0.0341796875 577.655273438 0.0341796875 c 0
 567.91015625 0.0341796875 558.614257812 6.162109375 555.2578125 15.76953125 c 0
 529.7421875 88.8056640625 500.674804688 172.086914062 471.40234375 256 c 1
 158.928710938 256 l 1
 75.4609375 15.8056640625 l 2
 72.1162109375 6.1806640625 62.8095703125 0.033203125 53.0517578125 0.033203125 c 0
 50.537109375 0.033203125 47.9921875 0.44140625 45.51171875 1.3037109375 c 0
 35.8857421875 4.6484375 29.7392578125 13.955078125 29.7392578125 23.712890625 c 0
 29.7392578125 26.2275390625 30.1474609375 28.7724609375 31.009765625 31.2529296875 c 2
 282.537109375 755.075195312 l 1
 218.389648438 770.42578125 170.8828125 828.001953125 170.8828125 896.94140625 c 0xbf
175.28125 303.05859375 m 1
 454.986328125 303.05859375 l 1
 398.861328125 463.970703125 344.280273438 620.586914062 314.911132812 704.872070312 c 1
 175.28125 303.05859375 l 1
323.551757812 798.34375 m 0
 375.15234375 801.802734375 415.587890625 844.423828125 415.587890625 896.94140625 c 0
 415.587890625 951.73828125 371.564453125 995.764648438 316.764648438 995.764648438 c 0
 261.967773438 995.764648438 217.94140625 951.740234375 217.94140625 896.94140625 c 0
 217.94140625 845.48046875 256.76953125 803.517578125 306.884765625 798.599609375 c 0
 306.969726562 798.629882812 307.055664062 798.66015625 307.141601562 798.690429688 c 0
 309.685546875 799.576171875 312.295898438 799.985351562 314.874023438 799.965820312 c 0
 317.451171875 799.987304688 320.0625 799.580078125 322.60546875 798.696289062 c 0
 322.924804688 798.584960938 323.240234375 798.467773438 323.551757812 798.34375 c 0
EndSplineSet
Validated: 1
EndChar

StartChar: Ccedilla
Encoding: 199 199 112
Width: 715
VWidth: 23
Flags: W
HStem: 0.835938 46.2227<304.981 388.294 435.353 518.391> 752.941 47.0586<305.488 519.902>
VStem: 86.1768 47.0586<217.549 579.566> 388.294 47.0586<-142.047 2.33482>
LayerCount: 2
Back
Fore
SplineSet
411.823242188 -142.1171875 m 0
 399.006835938 -142.1171875 388.293945312 -131.404296875 388.293945312 -118.587890625 c 2
 388.293945312 0.8359375 l 1
 219.729492188 12.8525390625 86.1767578125 152.959960938 86.1767578125 324.706054688 c 2
 86.1767578125 475.293945312 l 2
 86.1767578125 654.958984375 232.328125 800 411.823242188 800 c 0
 502.073242188 800 582.465820312 763.33984375 641.166992188 704.637695312 c 0
 645.698242188 700.106445312 647.963867188 694.053710938 647.963867188 688 c 0
 647.963867188 681.946289062 645.698242188 675.893554688 641.166992188 671.362304688 c 0
 636.635742188 666.831054688 630.583007812 664.565429688 624.529296875 664.565429688 c 0
 618.4765625 664.565429688 612.422851562 666.831054688 607.891601562 671.362304688 c 0
 557.416992188 721.836914062 489.103515625 752.94140625 411.823242188 752.94140625 c 0
 258.142578125 752.94140625 133.235351562 628.806640625 133.235351562 475.293945312 c 2
 133.235351562 324.706054688 l 2
 133.235351562 171.194335938 258.142578125 47.05859375 411.823242188 47.05859375 c 0
 489.103515625 47.05859375 557.416992188 78.1630859375 607.891601562 128.637695312 c 0
 612.422851562 133.168945312 618.4765625 135.434570312 624.529296875 135.434570312 c 0
 630.583007812 135.434570312 636.635742188 133.168945312 641.166992188 128.637695312 c 0
 645.698242188 124.106445312 647.963867188 118.053710938 647.963867188 112 c 0
 647.963867188 105.946289062 645.698242188 99.8935546875 641.166992188 95.3623046875 c 0
 587.618164062 41.8125 516.01953125 6.60546875 435.352539062 0.837890625 c 1
 435.352539062 -118.587890625 l 2
 435.352539062 -131.404296875 424.639648438 -142.1171875 411.823242188 -142.1171875 c 0
EndSplineSet
Validated: 1
EndChar

StartChar: Egrave
Encoding: 200 200 113
Width: 624
VWidth: 23
Flags: W
HStem: 0 47.0586<152.059 566.107> 376.471 47.0586<152.059 490.813> 752.941 47.0586<152.059 566.107>
VStem: 105 47.0586<47.0586 376.471 423.529 752.941>
CounterMasks: 1 e0
LayerCount: 2
Back
Fore
SplineSet
242.665039062 950.999023438 m 0
 247.194335938 957.46875 254.599609375 960.952148438 262.072265625 960.952148438 c 0
 266.725585938 960.952148438 271.40625 959.6015625 275.434570312 956.78125 c 2
 419.434570312 855.982421875 l 2
 425.905273438 851.452148438 429.387695312 844.047851562 429.387695312 836.57421875 c 0
 429.387695312 831.921875 428.038085938 827.241210938 425.217773438 823.212890625 c 0
 420.688476562 816.7421875 413.283203125 813.259765625 405.810546875 813.259765625 c 0
 401.157226562 813.259765625 396.477539062 814.609375 392.448242188 817.4296875 c 2
 248.448242188 918.229492188 l 2
 241.977539062 922.758789062 238.495117188 930.163085938 238.495117188 937.63671875 c 0
 238.495117188 942.290039062 239.845703125 946.969726562 242.665039062 950.999023438 c 0
566.176757812 776.470703125 m 0
 566.176757812 763.654296875 555.462890625 752.94140625 542.647460938 752.94140625 c 2
 152.05859375 752.94140625 l 1
 152.05859375 423.529296875 l 1
 467.352539062 423.529296875 l 2
 480.168945312 423.529296875 490.8828125 412.81640625 490.8828125 400 c 0
 490.8828125 387.18359375 480.168945312 376.470703125 467.352539062 376.470703125 c 2
 152.05859375 376.470703125 l 1
 152.05859375 47.05859375 l 1
 542.647460938 47.05859375 l 2
 555.462890625 47.05859375 566.176757812 36.345703125 566.176757812 23.529296875 c 0
 566.176757812 10.712890625 555.462890625 0 542.647460938 0 c 2
 128.529296875 0 l 2
 118.430664062 0 105 9.287109375 105 23.529296875 c 2
 105 400 l 1
 105 776.470703125 l 2
 105 786.569335938 114.287109375 800 128.529296875 800 c 2
 542.647460938 800 l 2
 555.462890625 800 566.176757812 789.287109375 566.176757812 776.470703125 c 0
EndSplineSet
Validated: 1
EndChar

StartChar: Eacute
Encoding: 201 201 114
Width: 624
VWidth: 23
Flags: W
HStem: 0 47.0586<152.059 566.107> 376.471 47.0586<152.059 490.813> 752.941 47.0586<152.059 566.107>
VStem: 105 47.0586<47.0586 376.471 423.529 752.941>
CounterMasks: 1 e0
LayerCount: 2
Back
Fore
SplineSet
434.592773438 950.956054688 m 0
 437.436523438 946.916015625 438.798828125 942.215820312 438.798828125 937.541015625 c 0
 438.798828125 930.08984375 435.336914062 922.705078125 428.897460938 918.171875 c 2
 285.837890625 817.465820312 l 2
 281.798828125 814.622070312 277.09765625 813.259765625 272.423828125 813.259765625 c 0
 264.971679688 813.259765625 257.586914062 816.721679688 253.053710938 823.162109375 c 0
 250.209960938 827.201171875 248.84765625 831.90234375 248.84765625 836.576171875 c 0
 248.84765625 844.028320312 252.309570312 851.413085938 258.75 855.946289062 c 2
 401.80859375 956.65234375 l 2
 405.848632812 959.49609375 410.548828125 960.858398438 415.223632812 960.858398438 c 0
 422.674804688 960.858398438 430.059570312 957.396484375 434.592773438 950.956054688 c 0
566.176757812 776.470703125 m 0
 566.176757812 763.654296875 555.462890625 752.94140625 542.647460938 752.94140625 c 2
 152.05859375 752.94140625 l 1
 152.05859375 423.529296875 l 1
 467.352539062 423.529296875 l 2
 480.168945312 423.529296875 490.8828125 412.81640625 490.8828125 400 c 0
 490.8828125 387.18359375 480.168945312 376.470703125 467.352539062 376.470703125 c 2
 152.05859375 376.470703125 l 1
 152.05859375 47.05859375 l 1
 542.647460938 47.05859375 l 2
 555.462890625 47.05859375 566.176757812 36.345703125 566.176757812 23.529296875 c 0
 566.176757812 10.712890625 555.462890625 0 542.647460938 0 c 2
 128.529296875 0 l 2
 118.430664062 0 105 9.287109375 105 23.529296875 c 2
 105 400 l 1
 105 776.470703125 l 2
 105 786.569335938 114.287109375 800 128.529296875 800 c 2
 542.647460938 800 l 2
 555.462890625 800 566.176757812 789.287109375 566.176757812 776.470703125 c 0
EndSplineSet
Validated: 1
EndChar

StartChar: Ecircumflex
Encoding: 202 202 115
Width: 624
VWidth: 23
Flags: W
HStem: 0 47.0586<152.059 566.107> 376.471 47.0586<152.059 490.813> 752.941 47.0586<152.059 566.107>
VStem: 105 47.0586<47.0586 376.471 423.529 752.941>
CounterMasks: 1 e0
LayerCount: 2
Back
Fore
SplineSet
177.723632812 823.212890625 m 0
 174.904296875 827.241210938 173.553710938 831.921875 173.553710938 836.57421875 c 0
 173.553710938 844.047851562 177.036132812 851.452148438 183.506835938 855.982421875 c 2
 327.506835938 956.78125 l 2
 335.525390625 962.39453125 346.493164062 962.381835938 354.493164062 956.78125 c 2
 498.493164062 855.982421875 l 2
 504.963867188 851.452148438 508.446289062 844.047851562 508.446289062 836.57421875 c 0
 508.446289062 831.921875 507.096679688 827.241210938 504.276367188 823.212890625 c 0
 499.747070312 816.7421875 492.341796875 813.259765625 484.869140625 813.259765625 c 0
 480.215820312 813.259765625 475.536132812 814.609375 471.506835938 817.4296875 c 2
 341 908.784179688 l 1
 210.493164062 817.4296875 l 2
 206.46484375 814.609375 201.784179688 813.259765625 197.130859375 813.259765625 c 0
 189.658203125 813.259765625 182.252929688 816.7421875 177.723632812 823.212890625 c 0
566.176757812 776.470703125 m 0
 566.176757812 763.654296875 555.462890625 752.94140625 542.647460938 752.94140625 c 2
 152.05859375 752.94140625 l 1
 152.05859375 423.529296875 l 1
 467.352539062 423.529296875 l 2
 480.168945312 423.529296875 490.8828125 412.81640625 490.8828125 400 c 0
 490.8828125 387.18359375 480.168945312 376.470703125 467.352539062 376.470703125 c 2
 152.05859375 376.470703125 l 1
 152.05859375 47.05859375 l 1
 542.647460938 47.05859375 l 2
 555.462890625 47.05859375 566.176757812 36.345703125 566.176757812 23.529296875 c 0
 566.176757812 10.712890625 555.462890625 0 542.647460938 0 c 2
 128.529296875 0 l 2
 118.430664062 0 105 9.287109375 105 23.529296875 c 2
 105 400 l 1
 105 776.470703125 l 2
 105 786.569335938 114.287109375 800 128.529296875 800 c 2
 542.647460938 800 l 2
 555.462890625 800 566.176757812 789.287109375 566.176757812 776.470703125 c 0
EndSplineSet
Validated: 1
EndChar

StartChar: Edieresis
Encoding: 203 203 116
Width: 624
VWidth: 23
Flags: W
HStem: 0 47.0586<152.059 566.107> 376.471 47.0586<152.059 490.813> 752.941 47.0586<152.059 566.107> 811.294 48<239.422 286.341 383.422 430.341>
VStem: 105 47.0586<47.0586 376.471 423.529 752.941> 239.353 47.0586<811.363 859.224> 383.353 47.0586<811.364 859.224>
LayerCount: 2
Back
Fore
SplineSet
406.881835938 859.293945312 m 0
 419.698242188 859.293945312 430.411132812 848.580078125 430.411132812 835.764648438 c 2
 430.411132812 834.823242188 l 2
 430.411132812 822.006835938 419.698242188 811.293945312 406.881835938 811.293945312 c 0
 394.065429688 811.293945312 383.352539062 822.006835938 383.352539062 834.823242188 c 2
 383.352539062 835.764648438 l 2
 383.352539062 848.580078125 394.065429688 859.293945312 406.881835938 859.293945312 c 0
262.881835938 859.293945312 m 0
 275.698242188 859.293945312 286.411132812 848.580078125 286.411132812 835.764648438 c 2
 286.411132812 834.823242188 l 2
 286.411132812 821.834960938 275.870117188 811.293945312 262.881835938 811.293945312 c 0
 249.893554688 811.293945312 239.352539062 821.834960938 239.352539062 834.823242188 c 2
 239.352539062 835.764648438 l 2
 239.352539062 848.580078125 250.065429688 859.293945312 262.881835938 859.293945312 c 0
566.176757812 776.470703125 m 0
 566.176757812 763.654296875 555.462890625 752.94140625 542.647460938 752.94140625 c 2
 152.05859375 752.94140625 l 1
 152.05859375 423.529296875 l 1
 467.352539062 423.529296875 l 2
 480.168945312 423.529296875 490.8828125 412.81640625 490.8828125 400 c 0
 490.8828125 387.18359375 480.168945312 376.470703125 467.352539062 376.470703125 c 2
 152.05859375 376.470703125 l 1
 152.05859375 47.05859375 l 1
 542.647460938 47.05859375 l 2
 555.462890625 47.05859375 566.176757812 36.345703125 566.176757812 23.529296875 c 0
 566.176757812 10.712890625 555.462890625 0 542.647460938 0 c 2
 128.529296875 0 l 2
 118.430664062 0 105 9.287109375 105 23.529296875 c 2
 105 400 l 1
 105 776.470703125 l 2
 105 786.569335938 114.287109375 800 128.529296875 800 c 2
 542.647460938 800 l 2
 555.462890625 800 566.176757812 789.287109375 566.176757812 776.470703125 c 0
EndSplineSet
Validated: 1
EndChar

StartChar: Igrave
Encoding: 204 204 117
Width: 279
VWidth: 23
Flags: W
HStem: 0 21G<134.827 147.643> 0 21G<134.827 147.643> 780 20G<134.827 147.643> 780 20G<134.827 147.643>
VStem: 117.705 47.0586<0.0697305 799.93>
LayerCount: 2
Back
Fore
SplineSet
48.546875 950.999023438 m 0x08
 53.076171875 957.46875 60.4814453125 960.952148438 67.9541015625 960.952148438 c 0
 72.607421875 960.952148438 77.2880859375 959.6015625 81.31640625 956.78125 c 2
 225.31640625 855.982421875 l 2
 231.787109375 851.452148438 235.26953125 844.047851562 235.26953125 836.57421875 c 0
 235.26953125 831.921875 233.919921875 827.241210938 231.099609375 823.212890625 c 0
 226.5703125 816.7421875 219.165039062 813.259765625 211.692382812 813.259765625 c 0
 207.0390625 813.259765625 202.359375 814.609375 198.330078125 817.4296875 c 2
 54.330078125 918.229492188 l 2
 47.859375 922.758789062 44.376953125 930.163085938 44.376953125 937.63671875 c 0
 44.376953125 942.290039062 45.7275390625 946.969726562 48.546875 950.999023438 c 0x08
141.234375 800 m 0xa8
 154.05078125 800 164.763671875 789.287109375 164.763671875 776.470703125 c 2
 164.763671875 23.529296875 l 2
 164.763671875 10.712890625 154.05078125 0 141.234375 0 c 0
 128.418945312 0 117.705078125 10.712890625 117.705078125 23.529296875 c 2
 117.705078125 776.470703125 l 2
 117.705078125 789.287109375 128.418945312 800 141.234375 800 c 0xa8
EndSplineSet
Validated: 1
EndChar

StartChar: Iacute
Encoding: 205 205 118
Width: 279
VWidth: 23
Flags: W
HStem: 0 21G<137.18 149.996> 0 21G<137.18 149.996> 780 20G<137.18 149.996> 780 20G<137.18 149.996>
VStem: 120.059 47.0586<0.0697305 799.93>
LayerCount: 2
Back
Fore
SplineSet
230.592773438 950.956054688 m 0x08
 233.436523438 946.916015625 234.798828125 942.215820312 234.798828125 937.541015625 c 0
 234.798828125 930.08984375 231.336914062 922.705078125 224.897460938 918.171875 c 2
 81.837890625 817.465820312 l 2
 77.798828125 814.622070312 73.09765625 813.259765625 68.423828125 813.259765625 c 0
 60.9716796875 813.259765625 53.5869140625 816.721679688 49.0537109375 823.162109375 c 0
 46.2099609375 827.201171875 44.84765625 831.90234375 44.84765625 836.576171875 c 0
 44.84765625 844.028320312 48.3095703125 851.413085938 54.75 855.946289062 c 2
 197.80859375 956.65234375 l 2
 201.848632812 959.49609375 206.548828125 960.858398438 211.223632812 960.858398438 c 0
 218.674804688 960.858398438 226.059570312 957.396484375 230.592773438 950.956054688 c 0x08
143.587890625 800 m 0xa8
 156.404296875 800 167.1171875 789.287109375 167.1171875 776.470703125 c 2
 167.1171875 23.529296875 l 2
 167.1171875 10.712890625 156.404296875 0 143.587890625 0 c 0
 130.772460938 0 120.05859375 10.712890625 120.05859375 23.529296875 c 2
 120.05859375 776.470703125 l 2
 120.05859375 789.287109375 130.772460938 800 143.587890625 800 c 0xa8
EndSplineSet
Validated: 1
EndChar

StartChar: Icircumflex
Encoding: 206 206 119
Width: 279
VWidth: 23
Flags: W
HStem: 0 21G<130.591 143.407> 0 21G<130.591 143.407> 780 20G<130.591 143.407> 780 20G<130.591 143.407>
VStem: 113.47 47.0586<0.0697305 799.93>
LayerCount: 2
Back
Fore
SplineSet
-23.453125 823.212890625 m 0x08
 -26.2724609375 827.241210938 -27.623046875 831.921875 -27.623046875 836.57421875 c 0
 -27.623046875 844.047851562 -24.140625 851.452148438 -17.669921875 855.982421875 c 2
 126.330078125 956.78125 l 2
 134.348632812 962.39453125 145.31640625 962.381835938 153.31640625 956.78125 c 2
 297.31640625 855.982421875 l 2
 303.787109375 851.452148438 307.26953125 844.047851562 307.26953125 836.57421875 c 0
 307.26953125 831.921875 305.919921875 827.241210938 303.099609375 823.212890625 c 0
 298.5703125 816.7421875 291.165039062 813.259765625 283.692382812 813.259765625 c 0
 279.0390625 813.259765625 274.359375 814.609375 270.330078125 817.4296875 c 2
 139.823242188 908.784179688 l 1
 9.31640625 817.4296875 l 2
 5.2880859375 814.609375 0.607421875 813.259765625 -4.0458984375 813.259765625 c 0
 -11.5185546875 813.259765625 -18.923828125 816.7421875 -23.453125 823.212890625 c 0x08
136.999023438 800 m 0xa8
 149.815429688 800 160.528320312 789.287109375 160.528320312 776.470703125 c 2
 160.528320312 23.529296875 l 2
 160.528320312 10.712890625 149.815429688 0 136.999023438 0 c 0
 124.18359375 0 113.469726562 10.712890625 113.469726562 23.529296875 c 2
 113.469726562 776.470703125 l 2
 113.469726562 789.287109375 124.18359375 800 136.999023438 800 c 0xa8
EndSplineSet
Validated: 1
EndChar

StartChar: Idieresis
Encoding: 207 207 120
Width: 279
VWidth: 23
Flags: W
HStem: 0 21G<143.769 156.585> 0 21G<143.769 156.585> 780 20G<143.769 156.585> 780 20G<143.769 156.585> 815.059 48<43.893 90.8121 187.893 234.812>
VStem: 43.8232 47.0586<815.127 862.989> 126.647 47.0586<0.0697305 799.93> 187.823 47.0586<815.128 862.989>
LayerCount: 2
Back
Fore
SplineSet
211.352539062 863.05859375 m 0x0f
 224.168945312 863.05859375 234.881835938 852.344726562 234.881835938 839.529296875 c 2
 234.881835938 838.587890625 l 2
 234.881835938 825.771484375 224.168945312 815.05859375 211.352539062 815.05859375 c 0
 198.536132812 815.05859375 187.823242188 825.771484375 187.823242188 838.587890625 c 2
 187.823242188 839.529296875 l 2
 187.823242188 852.344726562 198.536132812 863.05859375 211.352539062 863.05859375 c 0x0f
67.3525390625 863.05859375 m 0
 80.1689453125 863.05859375 90.8818359375 852.344726562 90.8818359375 839.529296875 c 2
 90.8818359375 838.587890625 l 2
 90.8818359375 825.599609375 80.3408203125 815.05859375 67.3525390625 815.05859375 c 0
 54.3642578125 815.05859375 43.8232421875 825.599609375 43.8232421875 838.587890625 c 2
 43.8232421875 839.529296875 l 2
 43.8232421875 852.344726562 54.5361328125 863.05859375 67.3525390625 863.05859375 c 0
150.176757812 800 m 0xaf
 162.993164062 800 173.706054688 789.287109375 173.706054688 776.470703125 c 2
 173.706054688 23.529296875 l 2
 173.706054688 10.712890625 162.993164062 0 150.176757812 0 c 0
 137.361328125 0 126.647460938 10.712890625 126.647460938 23.529296875 c 2
 126.647460938 776.470703125 l 2
 126.647460938 789.287109375 137.361328125 800 150.176757812 800 c 0xaf
EndSplineSet
Validated: 1
EndChar

StartChar: Ntilde
Encoding: 209 209 121
Width: 784
VWidth: 23
Flags: W
HStem: 0 21G<122.121 134.938 653.645 656.814> 0 21G<122.121 134.938 653.645 656.814> 780 20G<127.303 130.472 649.18 661.996> 780 20G<127.303 130.472 649.18 661.996> 811.824 47.0596<403.887 497.935> 859.742 47.0586<285.784 379.832>
VStem: 105 47.0586<0.0697305 701.827> 632.059 47.0586<98.1729 799.93>
LayerCount: 2
Back
Fore
SplineSet
524.296875 875.950195312 m 0x0f
 528.828125 871.418945312 531.09375 865.366210938 531.09375 859.3125 c 0
 531.09375 853.259765625 528.828125 847.206054688 524.296875 842.674804688 c 0
 503.755859375 822.133789062 476.672851562 811.82421875 449.758789062 811.82421875 c 0
 422.841796875 811.82421875 395.766601562 822.129882812 375.221679688 842.674804688 c 0
 363.817382812 854.079101562 348.973632812 859.7421875 333.959960938 859.7421875 c 0
 318.94921875 859.7421875 304.096679688 854.07421875 292.697265625 842.674804688 c 0
 288.166015625 838.143554688 282.11328125 835.877929688 276.059570312 835.877929688 c 0
 270.006835938 835.877929688 263.953125 838.143554688 259.421875 842.674804688 c 0
 254.890625 847.206054688 252.625 853.259765625 252.625 859.3125 c 0
 252.625 865.366210938 254.890625 871.418945312 259.421875 875.950195312 c 0
 279.966796875 896.49609375 307.041992188 906.80078125 333.959960938 906.80078125 c 0
 360.873046875 906.80078125 387.956054688 896.491210938 408.497070312 875.950195312 c 0
 419.896484375 864.55078125 434.749023438 858.883789062 449.758789062 858.883789062 c 0
 464.7734375 858.883789062 479.6171875 864.546875 491.021484375 875.950195312 c 0
 495.552734375 880.481445312 501.60546875 882.747070312 507.659179688 882.747070312 c 0
 513.711914062 882.747070312 519.765625 880.481445312 524.296875 875.950195312 c 0x0f
655.587890625 800 m 0xaf
 668.404296875 800 679.1171875 789.287109375 679.1171875 776.470703125 c 2
 679.1171875 23.529296875 l 2
 679.1171875 19.6435546875 678.1328125 15.951171875 676.403320312 12.6923828125 c 0
 674.724609375 9.40625 672.264648438 6.4814453125 669.081054688 4.2529296875 c 0
 667.072265625 2.84765625 664.90234375 1.806640625 662.653320312 1.1162109375 c 0
 660.416015625 0.392578125 658.040039062 0 655.587890625 0 c 0
 651.702148438 0 648.009765625 0.984375 644.750976562 2.71484375 c 0
 641.46484375 4.392578125 638.540039062 6.8525390625 636.3125 10.0361328125 c 2
 152.05859375 701.827148438 l 1
 152.05859375 23.529296875 l 2
 152.05859375 10.712890625 141.345703125 0 128.529296875 0 c 0
 115.712890625 0 105 10.712890625 105 23.529296875 c 2
 105 776.470703125 l 2
 105 780.356445312 105.984375 784.048828125 107.71484375 787.307617188 c 0
 109.392578125 790.59375 111.852539062 793.518554688 115.036132812 795.747070312 c 0
 117.044921875 797.15234375 119.215820312 798.193359375 121.463867188 798.883789062 c 0
 123.702148438 799.607421875 126.077148438 800 128.529296875 800 c 0
 132.415039062 800 136.107421875 799.015625 139.3671875 797.28515625 c 0
 142.653320312 795.607421875 145.577148438 793.147460938 147.805664062 789.963867188 c 2
 632.05859375 98.1728515625 l 1
 632.05859375 776.470703125 l 2
 632.05859375 789.287109375 642.772460938 800 655.587890625 800 c 0xaf
EndSplineSet
Validated: 1
EndChar

StartChar: Ograve
Encoding: 210 210 122
Width: 934
VWidth: 23
Flags: W
HStem: 0 47.0586<347.171 587.535> 752.941 47.0586<347.171 587.535>
VStem: 67.3525 47.0596<279.818 520.182> 820.294 47.0586<279.818 520.182>
LayerCount: 2
Back
Fore
SplineSet
374.665039062 950.999023438 m 0
 379.194335938 957.46875 386.599609375 960.952148438 394.072265625 960.952148438 c 0
 398.725585938 960.952148438 403.40625 959.6015625 407.434570312 956.78125 c 2
 551.434570312 855.982421875 l 2
 557.905273438 851.452148438 561.387695312 844.047851562 561.387695312 836.57421875 c 0
 561.387695312 831.921875 560.038085938 827.241210938 557.217773438 823.212890625 c 0
 552.688476562 816.7421875 545.283203125 813.259765625 537.810546875 813.259765625 c 0
 533.157226562 813.259765625 528.477539062 814.609375 524.448242188 817.4296875 c 2
 380.448242188 918.229492188 l 2
 373.977539062 922.758789062 370.495117188 930.163085938 370.495117188 937.63671875 c 0
 370.495117188 942.290039062 371.845703125 946.969726562 374.665039062 950.999023438 c 0
467.352539062 47.05859375 m 0
 662.365234375 47.05859375 820.293945312 204.98828125 820.293945312 400 c 0
 820.293945312 595.01171875 662.365234375 752.94140625 467.352539062 752.94140625 c 0
 272.340820312 752.94140625 114.412109375 595.01171875 114.412109375 400 c 0
 114.412109375 204.98828125 272.340820312 47.05859375 467.352539062 47.05859375 c 0
467.352539062 0 m 0
 246.365234375 0 67.3525390625 179.01171875 67.3525390625 400 c 0
 67.3525390625 620.98828125 246.365234375 800 467.352539062 800 c 0
 688.340820312 800 867.352539062 620.98828125 867.352539062 400 c 0
 867.352539062 179.01171875 688.340820312 0 467.352539062 0 c 0
EndSplineSet
Validated: 1
EndChar

StartChar: Oacute
Encoding: 211 211 123
Width: 934
VWidth: 23
Flags: W
HStem: 0 47.0586<347.171 587.535> 752.941 47.0586<347.171 587.535>
VStem: 67.3525 47.0596<279.818 520.182> 820.294 47.0586<279.818 520.182>
LayerCount: 2
Back
Fore
SplineSet
554.357421875 950.956054688 m 0
 557.201171875 946.916015625 558.563476562 942.215820312 558.563476562 937.541015625 c 0
 558.563476562 930.08984375 555.1015625 922.705078125 548.662109375 918.171875 c 2
 405.602539062 817.465820312 l 2
 401.563476562 814.622070312 396.862304688 813.259765625 392.188476562 813.259765625 c 0
 384.736328125 813.259765625 377.3515625 816.721679688 372.818359375 823.162109375 c 0
 369.974609375 827.201171875 368.612304688 831.90234375 368.612304688 836.576171875 c 0
 368.612304688 844.028320312 372.07421875 851.413085938 378.514648438 855.946289062 c 2
 521.573242188 956.65234375 l 2
 525.61328125 959.49609375 530.313476562 960.858398438 534.98828125 960.858398438 c 0
 542.439453125 960.858398438 549.82421875 957.396484375 554.357421875 950.956054688 c 0
467.352539062 47.05859375 m 0
 662.365234375 47.05859375 820.293945312 204.98828125 820.293945312 400 c 0
 820.293945312 595.01171875 662.365234375 752.94140625 467.352539062 752.94140625 c 0
 272.340820312 752.94140625 114.412109375 595.01171875 114.412109375 400 c 0
 114.412109375 204.98828125 272.340820312 47.05859375 467.352539062 47.05859375 c 0
467.352539062 0 m 0
 246.365234375 0 67.3525390625 179.01171875 67.3525390625 400 c 0
 67.3525390625 620.98828125 246.365234375 800 467.352539062 800 c 0
 688.340820312 800 867.352539062 620.98828125 867.352539062 400 c 0
 867.352539062 179.01171875 688.340820312 0 467.352539062 0 c 0
EndSplineSet
Validated: 1
EndChar

StartChar: Ocircumflex
Encoding: 212 212 124
Width: 934
VWidth: 23
Flags: W
HStem: 0 47.0586<347.171 587.535> 752.941 47.0586<347.171 587.535>
VStem: 67.3525 47.0596<279.818 520.182> 820.294 47.0586<279.818 520.182>
LayerCount: 2
Back
Fore
SplineSet
305.017578125 823.212890625 m 0
 302.198242188 827.241210938 300.84765625 831.921875 300.84765625 836.57421875 c 0
 300.84765625 844.047851562 304.330078125 851.452148438 310.80078125 855.982421875 c 2
 454.80078125 956.78125 l 2
 462.819335938 962.39453125 473.787109375 962.381835938 481.787109375 956.78125 c 2
 625.787109375 855.982421875 l 2
 632.2578125 851.452148438 635.740234375 844.047851562 635.740234375 836.57421875 c 0
 635.740234375 831.921875 634.390625 827.241210938 631.5703125 823.212890625 c 0
 627.041015625 816.7421875 619.635742188 813.259765625 612.163085938 813.259765625 c 0
 607.509765625 813.259765625 602.830078125 814.609375 598.80078125 817.4296875 c 2
 468.293945312 908.784179688 l 1
 337.787109375 817.4296875 l 2
 333.758789062 814.609375 329.078125 813.259765625 324.424804688 813.259765625 c 0
 316.952148438 813.259765625 309.546875 816.7421875 305.017578125 823.212890625 c 0
467.352539062 47.05859375 m 0
 662.365234375 47.05859375 820.293945312 204.98828125 820.293945312 400 c 0
 820.293945312 595.01171875 662.365234375 752.94140625 467.352539062 752.94140625 c 0
 272.340820312 752.94140625 114.412109375 595.01171875 114.412109375 400 c 0
 114.412109375 204.98828125 272.340820312 47.05859375 467.352539062 47.05859375 c 0
467.352539062 0 m 0
 246.365234375 0 67.3525390625 179.01171875 67.3525390625 400 c 0
 67.3525390625 620.98828125 246.365234375 800 467.352539062 800 c 0
 688.340820312 800 867.352539062 620.98828125 867.352539062 400 c 0
 867.352539062 179.01171875 688.340820312 0 467.352539062 0 c 0
EndSplineSet
Validated: 1
EndChar

StartChar: Otilde
Encoding: 213 213 125
Width: 934
VWidth: 23
Flags: W
HStem: 0 47.0586<347.171 587.535> 752.941 47.0586<347.171 587.535> 811.824 47.0596<482.239 576.287> 859.742 47.0586<364.135 458.184>
VStem: 67.3525 47.0596<279.818 520.182> 820.294 47.0586<279.818 520.182>
LayerCount: 2
Back
Fore
SplineSet
602.6484375 875.950195312 m 0
 607.1796875 871.418945312 609.4453125 865.366210938 609.4453125 859.3125 c 0
 609.4453125 853.259765625 607.1796875 847.206054688 602.6484375 842.674804688 c 0
 582.107421875 822.133789062 555.024414062 811.82421875 528.110351562 811.82421875 c 0
 501.193359375 811.82421875 474.118164062 822.129882812 453.573242188 842.674804688 c 0
 442.168945312 854.079101562 427.325195312 859.7421875 412.311523438 859.7421875 c 0
 397.30078125 859.7421875 382.448242188 854.07421875 371.048828125 842.674804688 c 0
 366.517578125 838.143554688 360.46484375 835.877929688 354.411132812 835.877929688 c 0
 348.358398438 835.877929688 342.3046875 838.143554688 337.7734375 842.674804688 c 0
 333.2421875 847.206054688 330.9765625 853.259765625 330.9765625 859.3125 c 0
 330.9765625 865.366210938 333.2421875 871.418945312 337.7734375 875.950195312 c 0
 358.318359375 896.49609375 385.393554688 906.80078125 412.311523438 906.80078125 c 0
 439.224609375 906.80078125 466.307617188 896.491210938 486.848632812 875.950195312 c 0
 498.248046875 864.55078125 513.100585938 858.883789062 528.110351562 858.883789062 c 0
 543.125 858.883789062 557.96875 864.546875 569.373046875 875.950195312 c 0
 573.904296875 880.481445312 579.95703125 882.747070312 586.010742188 882.747070312 c 0
 592.063476562 882.747070312 598.1171875 880.481445312 602.6484375 875.950195312 c 0
467.352539062 47.05859375 m 0
 662.365234375 47.05859375 820.293945312 204.98828125 820.293945312 400 c 0
 820.293945312 595.01171875 662.365234375 752.94140625 467.352539062 752.94140625 c 0
 272.340820312 752.94140625 114.412109375 595.01171875 114.412109375 400 c 0
 114.412109375 204.98828125 272.340820312 47.05859375 467.352539062 47.05859375 c 0
467.352539062 0 m 0
 246.365234375 0 67.3525390625 179.01171875 67.3525390625 400 c 0
 67.3525390625 620.98828125 246.365234375 800 467.352539062 800 c 0
 688.340820312 800 867.352539062 620.98828125 867.352539062 400 c 0
 867.352539062 179.01171875 688.340820312 0 467.352539062 0 c 0
EndSplineSet
Validated: 1
EndChar

